M48
INCH,LZ
;FILE_FORMAT=2:4
;TYPE=PLATED
;Layer: PTH_Through
;EasyEDA v6.5.51, 2025-12-13 04:46:10
;afe304bc349a47aca8f85fda98863c0f,54a2198792e84a5b8b180a78bcbfafa7,10
;Gerber Generator version 0.2
;Holesize 1 = 0.0120 inch
T01C0.0120
;Holesize 2 = 0.0240 inch
T02C0.0240
;Holesize 3 = 0.0360 inch
T03C0.0360
;Holesize 4 = 0.0400 inch
T04C0.0400
;Holesize 5 = 0.0430 inch
T05C0.0430
;Holesize 6 = 0.0710 inch
T06C0.0710
;Holesize 7 = 0.0910 inch
T07C0.0910
;Holesize 8 = 0.1080 inch
T08C0.1080
%
G05
G90
T01
X015100Y020800
X020700Y017950
X015500Y017700
X020950Y017700
X016300Y017450
X020350Y017400
X021050Y018250
X016900Y018650
X017050Y019650
X021825Y015000
X021825Y015000
X020750Y015000
X019200Y014950
X024900Y015750
X019150Y015750
X019200Y013500
X015900Y016150
X025600Y017600
X025000Y017350
X017300Y015050
X024100Y001250
X025345Y000550
X023500Y000550
X021700Y-001000
X023900Y-000700
X026400Y-001050
X025100Y-000700
X032000Y-000950
X030700Y-000700
X028000Y-000900
X029500Y-000700
X012500Y016400
X013200Y013450
X022600Y014300
X022600Y012950
X019200Y014500
T02
X026103Y-000460G85X026103Y-000105
X022697Y-000460G85X022697Y-000105
X031703Y-000460G85X031703Y-000105
X028297Y-000460G85X028297Y-000105
T03
X016306Y019000
X015904Y019700
X015502Y019000
X015101Y019700
X014699Y019000
X014298Y019700
X013896Y019000
X013494Y019700
X023856Y019000
X023454Y019700
X023052Y019000
X022651Y019700
X022249Y019000
X021848Y019700
X021446Y019000
X021044Y019700
T04
X015381Y002345
X016877Y002392
X018275Y004459
X025106Y001900
X019113Y004065
X025944Y001900
X028015Y002093
X030531Y002597
X030409Y003624
X031250Y005550
X031527Y010077
X032342Y008617
X032795Y004609
T05
X031544Y012059
X012544Y011059
X012544Y012059
X013544Y011059
X013544Y012059
X014544Y011059
X014544Y012059
X015544Y011059
X015544Y012059
X016544Y011059
X016544Y012059
X017544Y011059
X017544Y012059
X018544Y011059
X018544Y012059
X019544Y011059
X019544Y012059
X020544Y011059
X020544Y012059
X021544Y011059
X021544Y012059
X022544Y011059
X022544Y012059
X023544Y011059
X023544Y012059
X024544Y011059
X024544Y012059
X025544Y011059
X025544Y012059
X026544Y011059
X026544Y012059
X027544Y011059
X027544Y012059
X028544Y011059
X028544Y012059
X029544Y011059
X029544Y012059
X030544Y011059
X030544Y012059
X031544Y011059
X030978Y017805
X029994Y017805
X029206Y017805
X028222Y017805
X030978Y016774
X029994Y016774
X029206Y016774
X028222Y016774
T06
X011699Y019299
X018101Y019299
X019249Y019299
X025651Y019299
T07
X027013Y016628
X032187Y016628
X027013Y018872
X032187Y018872
T08
X010594Y011609
X033457Y002559
X010622Y002559
X033444Y011628
X010000Y020850
X034000Y020800
X034000Y-001000
X010000Y-001000
M30
