G04 Layer: BottomLayer*
G04 EasyEDA v6.5.51, 2025-12-13 04:46:10*
G04 afe304bc349a47aca8f85fda98863c0f,54a2198792e84a5b8b180a78bcbfafa7,10*
G04 Gerber Generator version 0.2*
G04 Scale: 100 percent, Rotated: No, Reflected: No *
G04 Dimensions in inches *
G04 leading zeros omitted , absolute positions ,3 integer and 6 decimal *
%FSLAX36Y36*%
%MOIN*%

%ADD10C,0.0050*%
%ADD11C,0.0100*%
%ADD12O,0.03937X0.074803*%
%ADD13R,0.0787X0.0787*%
%ADD14C,0.0709*%
%ADD15C,0.0700*%
%ADD16C,0.2362*%
%ADD17R,0.0620X0.0709*%
%ADD18R,0.0113X0.0709*%
%ADD19C,0.0984*%
%ADD20C,0.0600*%
%ADD21C,0.0669*%
%ADD22C,0.1260*%
%ADD23C,0.0244*%

%LPD*%
G36*
X1040780Y-229800D02*
G01*
X1039200Y-229480D01*
X1037860Y-228540D01*
X1037020Y-227160D01*
X1036780Y-225560D01*
X1037200Y-224000D01*
X1038199Y-222740D01*
X1039640Y-221960D01*
X1041540Y-221400D01*
X1050820Y-217820D01*
X1059800Y-213520D01*
X1068420Y-208540D01*
X1076620Y-202920D01*
X1084360Y-196680D01*
X1091600Y-189840D01*
X1098280Y-182480D01*
X1104380Y-174600D01*
X1109860Y-166300D01*
X1114660Y-157580D01*
X1118780Y-148520D01*
X1122180Y-139180D01*
X1124840Y-129580D01*
X1126760Y-119820D01*
X1127920Y-109940D01*
X1128300Y-100000D01*
X1127920Y-90060D01*
X1126760Y-80180D01*
X1124840Y-70420D01*
X1122180Y-60820D01*
X1118780Y-51480D01*
X1114660Y-42420D01*
X1109860Y-33700D01*
X1104380Y-25400D01*
X1098280Y-17520D01*
X1091600Y-10160D01*
X1084360Y-3320D01*
X1076620Y2920D01*
X1068420Y8540D01*
X1059800Y13520D01*
X1050820Y17820D01*
X1041540Y21400D01*
X1032000Y24260D01*
X1022280Y26360D01*
X1012420Y27700D01*
X1002480Y28280D01*
X992540Y28080D01*
X982640Y27120D01*
X972840Y25400D01*
X963199Y22919D01*
X953780Y19700D01*
X944659Y15760D01*
X935840Y11120D01*
X927420Y5820D01*
X919440Y-140D01*
X911960Y-6680D01*
X904980Y-13779D01*
X898580Y-21400D01*
X892800Y-29500D01*
X887660Y-38020D01*
X883199Y-46900D01*
X879440Y-56120D01*
X878000Y-60560D01*
X877220Y-61960D01*
X875939Y-62920D01*
X874380Y-63320D01*
X872800Y-63080D01*
X871440Y-62220D01*
X870520Y-60900D01*
X870200Y-59320D01*
X870200Y2044319D01*
X870520Y2045900D01*
X871440Y2047220D01*
X872800Y2048080D01*
X874380Y2048320D01*
X875939Y2047920D01*
X877220Y2046960D01*
X878000Y2045560D01*
X879440Y2041120D01*
X883199Y2031900D01*
X887660Y2023020D01*
X892800Y2014500D01*
X898580Y2006399D01*
X904980Y1998779D01*
X911960Y1991680D01*
X919440Y1985140D01*
X927420Y1979180D01*
X935840Y1973880D01*
X944659Y1969240D01*
X953780Y1965300D01*
X963199Y1962080D01*
X972840Y1959600D01*
X982640Y1957880D01*
X992540Y1956920D01*
X1002480Y1956720D01*
X1012420Y1957300D01*
X1022280Y1958640D01*
X1032000Y1960740D01*
X1041540Y1963600D01*
X1050820Y1967180D01*
X1059800Y1971480D01*
X1068420Y1976459D01*
X1076620Y1982080D01*
X1084360Y1988320D01*
X1091600Y1995160D01*
X1098280Y2002520D01*
X1104380Y2010400D01*
X1109860Y2018700D01*
X1114660Y2027420D01*
X1118780Y2036480D01*
X1122180Y2045820D01*
X1124840Y2055420D01*
X1126760Y2065180D01*
X1127920Y2075060D01*
X1128300Y2085000D01*
X1127920Y2094940D01*
X1126760Y2104820D01*
X1124840Y2114580D01*
X1122180Y2124180D01*
X1118780Y2133520D01*
X1114660Y2142580D01*
X1109860Y2151300D01*
X1104380Y2159600D01*
X1098280Y2167480D01*
X1091600Y2174840D01*
X1084360Y2181680D01*
X1076620Y2187920D01*
X1068420Y2193540D01*
X1059800Y2198520D01*
X1052640Y2201940D01*
X1051420Y2202860D01*
X1050620Y2204160D01*
X1050360Y2205680D01*
X1050700Y2207160D01*
X1051580Y2208420D01*
X1052860Y2209260D01*
X1054360Y2209560D01*
X3358540Y2209560D01*
X3360100Y2209240D01*
X3361420Y2208320D01*
X3362280Y2206980D01*
X3362540Y2205400D01*
X3362160Y2203860D01*
X3361220Y2202580D01*
X3359840Y2201760D01*
X3353780Y2199700D01*
X3344660Y2195760D01*
X3335840Y2191120D01*
X3327420Y2185820D01*
X3319440Y2179860D01*
X3311960Y2173320D01*
X3304980Y2166220D01*
X3298580Y2158600D01*
X3292799Y2150500D01*
X3287660Y2141980D01*
X3283200Y2133100D01*
X3279440Y2123880D01*
X3276400Y2114400D01*
X3274100Y2104720D01*
X3272559Y2094900D01*
X3271780Y2084980D01*
X3271780Y2075020D01*
X3272559Y2065100D01*
X3274100Y2055280D01*
X3276400Y2045600D01*
X3279440Y2036120D01*
X3283200Y2026900D01*
X3287660Y2018020D01*
X3292799Y2009500D01*
X3298580Y2001399D01*
X3304980Y1993779D01*
X3311960Y1986680D01*
X3319440Y1980140D01*
X3327420Y1974180D01*
X3335840Y1968880D01*
X3344660Y1964240D01*
X3353780Y1960300D01*
X3363200Y1957080D01*
X3372840Y1954600D01*
X3382640Y1952880D01*
X3392540Y1951920D01*
X3402480Y1951720D01*
X3412420Y1952300D01*
X3422280Y1953640D01*
X3432000Y1955740D01*
X3441540Y1958600D01*
X3450820Y1962180D01*
X3459800Y1966480D01*
X3468420Y1971459D01*
X3476620Y1977080D01*
X3484360Y1983320D01*
X3491600Y1990160D01*
X3498279Y1997520D01*
X3504380Y2005400D01*
X3509860Y2013700D01*
X3514660Y2022420D01*
X3518780Y2031480D01*
X3522040Y2040440D01*
X3522860Y2041800D01*
X3524160Y2042720D01*
X3525700Y2043080D01*
X3527260Y2042800D01*
X3528600Y2041940D01*
X3529480Y2040620D01*
X3529800Y2039079D01*
X3529800Y-59080D01*
X3529480Y-60620D01*
X3528600Y-61940D01*
X3527260Y-62800D01*
X3525700Y-63080D01*
X3524160Y-62720D01*
X3522860Y-61800D01*
X3522040Y-60439D01*
X3518780Y-51480D01*
X3514660Y-42420D01*
X3509860Y-33700D01*
X3504380Y-25400D01*
X3498279Y-17520D01*
X3491600Y-10160D01*
X3484360Y-3320D01*
X3476620Y2920D01*
X3468420Y8540D01*
X3459800Y13520D01*
X3450820Y17820D01*
X3441540Y21400D01*
X3432000Y24260D01*
X3422280Y26360D01*
X3412420Y27700D01*
X3402480Y28280D01*
X3392540Y28080D01*
X3382640Y27120D01*
X3372840Y25400D01*
X3363200Y22919D01*
X3353780Y19700D01*
X3344660Y15760D01*
X3335840Y11120D01*
X3327420Y5820D01*
X3319440Y-140D01*
X3311960Y-6680D01*
X3304980Y-13779D01*
X3298580Y-21400D01*
X3292799Y-29500D01*
X3287660Y-38020D01*
X3283200Y-46900D01*
X3279440Y-56120D01*
X3276400Y-65600D01*
X3274100Y-75280D01*
X3272559Y-85100D01*
X3271780Y-95020D01*
X3271780Y-104980D01*
X3272559Y-114900D01*
X3274100Y-124720D01*
X3276400Y-134400D01*
X3279440Y-143880D01*
X3283200Y-153100D01*
X3287660Y-161980D01*
X3292799Y-170500D01*
X3298580Y-178600D01*
X3304980Y-186220D01*
X3311960Y-193320D01*
X3319440Y-199860D01*
X3327420Y-205820D01*
X3335840Y-211119D01*
X3344660Y-215760D01*
X3353780Y-219700D01*
X3360560Y-222020D01*
X3361940Y-222820D01*
X3362900Y-224100D01*
X3363260Y-225660D01*
X3363000Y-227240D01*
X3362160Y-228580D01*
X3360840Y-229480D01*
X3359280Y-229800D01*
G37*

%LPC*%
G36*
X2640960Y-127380D02*
G01*
X2644720Y-126880D01*
X2648340Y-125780D01*
X2651740Y-124060D01*
X2654800Y-121800D01*
X2657420Y-119060D01*
X2659540Y-115920D01*
X2661120Y-112460D01*
X2662060Y-108780D01*
X2662400Y-105000D01*
X2662060Y-101220D01*
X2661120Y-97540D01*
X2659540Y-94080D01*
X2657420Y-90940D01*
X2654800Y-88200D01*
X2651740Y-85940D01*
X2648340Y-84220D01*
X2644720Y-83120D01*
X2640960Y-82620D01*
X2637160Y-82800D01*
X2633440Y-83600D01*
X2629920Y-85000D01*
X2626680Y-87000D01*
X2624640Y-88800D01*
X2623399Y-89540D01*
X2622000Y-89800D01*
X2552960Y-89800D01*
X2551420Y-89500D01*
X2550120Y-88620D01*
X2533560Y-72060D01*
X2532640Y-70600D01*
X2532420Y-68860D01*
X2532960Y-67200D01*
X2534140Y-65940D01*
X2535760Y-65300D01*
X2537500Y-65400D01*
X2539040Y-66240D01*
X2540120Y-67200D01*
X2543440Y-69240D01*
X2547060Y-70700D01*
X2550880Y-71520D01*
X2554760Y-71680D01*
X2558640Y-71180D01*
X2562360Y-70040D01*
X2565840Y-68280D01*
X2568980Y-65980D01*
X2571660Y-63160D01*
X2573860Y-59920D01*
X2575260Y-56840D01*
X2576160Y-55580D01*
X2577460Y-54740D01*
X2579000Y-54480D01*
X2580520Y-54820D01*
X2581780Y-55720D01*
X2582620Y-57020D01*
X2583360Y-58920D01*
X2585600Y-62779D01*
X2588380Y-66280D01*
X2591660Y-69320D01*
X2595340Y-71840D01*
X2597940Y-73080D01*
X2597940Y-49440D01*
X2580500Y-49440D01*
X2579060Y-49180D01*
X2577799Y-48400D01*
X2576920Y-47200D01*
X2576520Y-45780D01*
X2576440Y-44840D01*
X2575460Y-41060D01*
X2573860Y-37520D01*
X2571660Y-34280D01*
X2568980Y-31460D01*
X2565840Y-29160D01*
X2562360Y-27400D01*
X2558640Y-26260D01*
X2554760Y-25760D01*
X2550880Y-25920D01*
X2547060Y-26740D01*
X2543440Y-28200D01*
X2540120Y-30240D01*
X2537200Y-32820D01*
X2534760Y-35860D01*
X2532840Y-39260D01*
X2531560Y-42920D01*
X2530900Y-46780D01*
X2530900Y-49760D01*
X2530500Y-51480D01*
X2529440Y-52859D01*
X2527860Y-53640D01*
X2526120Y-53700D01*
X2524520Y-52980D01*
X2521740Y-50940D01*
X2518340Y-49220D01*
X2514720Y-48120D01*
X2510960Y-47619D01*
X2507160Y-47800D01*
X2503440Y-48600D01*
X2499920Y-50000D01*
X2496680Y-52000D01*
X2493840Y-54500D01*
X2491440Y-57460D01*
X2489600Y-60780D01*
X2488340Y-64360D01*
X2487700Y-68100D01*
X2487700Y-71900D01*
X2488340Y-75640D01*
X2489600Y-79220D01*
X2491440Y-82540D01*
X2493840Y-85500D01*
X2496680Y-88000D01*
X2499920Y-90000D01*
X2503440Y-91400D01*
X2507160Y-92200D01*
X2509320Y-92300D01*
X2510760Y-92640D01*
X2511980Y-93460D01*
X2534120Y-115600D01*
X2536560Y-117620D01*
X2539200Y-119019D01*
X2542040Y-119880D01*
X2545200Y-120200D01*
X2622000Y-120200D01*
X2623399Y-120460D01*
X2624640Y-121199D01*
X2626680Y-123000D01*
X2629920Y-125000D01*
X2633440Y-126400D01*
X2637160Y-127200D01*
G37*
G36*
X2170960Y-122380D02*
G01*
X2174720Y-121880D01*
X2178340Y-120780D01*
X2181740Y-119060D01*
X2186480Y-115520D01*
X2188040Y-115200D01*
X2359800Y-115200D01*
X2362960Y-114880D01*
X2365800Y-114019D01*
X2368440Y-112620D01*
X2370880Y-110600D01*
X2387960Y-93539D01*
X2389340Y-92640D01*
X2394720Y-91880D01*
X2398340Y-90780D01*
X2401740Y-89060D01*
X2404800Y-86800D01*
X2407420Y-84060D01*
X2409540Y-80920D01*
X2411120Y-77460D01*
X2412060Y-73780D01*
X2412400Y-70000D01*
X2412060Y-66220D01*
X2411120Y-62539D01*
X2409540Y-59080D01*
X2407420Y-55940D01*
X2404800Y-53200D01*
X2401740Y-50940D01*
X2398340Y-49220D01*
X2394720Y-48120D01*
X2390960Y-47619D01*
X2387160Y-47800D01*
X2383440Y-48600D01*
X2379920Y-50000D01*
X2376680Y-52000D01*
X2373840Y-54500D01*
X2371440Y-57460D01*
X2369600Y-60780D01*
X2368340Y-64360D01*
X2367700Y-68100D01*
X2367700Y-69160D01*
X2367380Y-70680D01*
X2366520Y-71980D01*
X2354880Y-83620D01*
X2353580Y-84500D01*
X2352040Y-84800D01*
X2188040Y-84800D01*
X2186480Y-84480D01*
X2181740Y-80940D01*
X2178340Y-79220D01*
X2174720Y-78120D01*
X2170960Y-77620D01*
X2167160Y-77800D01*
X2163440Y-78600D01*
X2159920Y-80000D01*
X2156680Y-82000D01*
X2153840Y-84500D01*
X2151440Y-87460D01*
X2149600Y-90780D01*
X2148340Y-94360D01*
X2147700Y-98100D01*
X2147700Y-101900D01*
X2148340Y-105640D01*
X2149600Y-109220D01*
X2151440Y-112540D01*
X2153840Y-115500D01*
X2156680Y-118000D01*
X2159920Y-120000D01*
X2163440Y-121400D01*
X2167160Y-122200D01*
G37*
G36*
X3200960Y-117380D02*
G01*
X3204720Y-116880D01*
X3208340Y-115780D01*
X3211740Y-114060D01*
X3214800Y-111800D01*
X3217420Y-109060D01*
X3219540Y-105920D01*
X3221120Y-102460D01*
X3222060Y-98780D01*
X3222400Y-95000D01*
X3222060Y-91220D01*
X3221120Y-87540D01*
X3219540Y-84080D01*
X3217420Y-80940D01*
X3214800Y-78200D01*
X3211740Y-75940D01*
X3208340Y-74220D01*
X3204720Y-73120D01*
X3200960Y-72620D01*
X3197160Y-72800D01*
X3195779Y-73080D01*
X3194140Y-73100D01*
X3192640Y-72460D01*
X3191520Y-71280D01*
X3190980Y-69740D01*
X3191080Y-68120D01*
X3191820Y-66660D01*
X3194960Y-62779D01*
X3197200Y-58920D01*
X3198820Y-54760D01*
X3199820Y-50420D01*
X3199880Y-49440D01*
X3182620Y-49440D01*
X3182620Y-75800D01*
X3182320Y-77340D01*
X3181460Y-78620D01*
X3180160Y-79500D01*
X3178620Y-79800D01*
X3161940Y-79800D01*
X3160400Y-79500D01*
X3159100Y-78620D01*
X3158240Y-77340D01*
X3157140Y-78680D01*
X3155860Y-79500D01*
X3154360Y-79800D01*
X3102960Y-79800D01*
X3101420Y-79500D01*
X3100120Y-78620D01*
X3093560Y-72060D01*
X3092640Y-70600D01*
X3092420Y-68860D01*
X3092960Y-67200D01*
X3094140Y-65940D01*
X3095760Y-65300D01*
X3097500Y-65400D01*
X3099040Y-66240D01*
X3100120Y-67200D01*
X3103440Y-69240D01*
X3107060Y-70700D01*
X3110880Y-71520D01*
X3114760Y-71680D01*
X3118639Y-71180D01*
X3122360Y-70040D01*
X3125840Y-68280D01*
X3128980Y-65980D01*
X3131660Y-63160D01*
X3133860Y-59920D01*
X3135260Y-56840D01*
X3136160Y-55580D01*
X3137460Y-54740D01*
X3139000Y-54480D01*
X3140520Y-54820D01*
X3141780Y-55720D01*
X3142620Y-57020D01*
X3143360Y-58920D01*
X3145600Y-62779D01*
X3148380Y-66280D01*
X3151660Y-69320D01*
X3155340Y-71840D01*
X3156100Y-72200D01*
X3157320Y-73120D01*
X3157940Y-74120D01*
X3157940Y-49440D01*
X3140500Y-49440D01*
X3139060Y-49180D01*
X3137799Y-48400D01*
X3136920Y-47200D01*
X3136520Y-45780D01*
X3136440Y-44840D01*
X3135460Y-41060D01*
X3133860Y-37520D01*
X3131660Y-34280D01*
X3128980Y-31460D01*
X3125840Y-29160D01*
X3122360Y-27400D01*
X3118639Y-26260D01*
X3114760Y-25760D01*
X3110880Y-25920D01*
X3107060Y-26740D01*
X3103440Y-28200D01*
X3100120Y-30240D01*
X3097200Y-32820D01*
X3094760Y-35860D01*
X3092840Y-39260D01*
X3091560Y-42920D01*
X3090899Y-46780D01*
X3090899Y-49760D01*
X3090500Y-51480D01*
X3089440Y-52859D01*
X3087860Y-53640D01*
X3086120Y-53700D01*
X3084520Y-52980D01*
X3081740Y-50940D01*
X3078340Y-49220D01*
X3074720Y-48120D01*
X3070960Y-47619D01*
X3067160Y-47800D01*
X3063440Y-48600D01*
X3059920Y-50000D01*
X3056680Y-52000D01*
X3053840Y-54500D01*
X3051440Y-57460D01*
X3049600Y-60780D01*
X3048340Y-64360D01*
X3047700Y-68100D01*
X3047700Y-71900D01*
X3048340Y-75640D01*
X3049600Y-79220D01*
X3051440Y-82540D01*
X3053840Y-85500D01*
X3056680Y-88000D01*
X3059920Y-90000D01*
X3063440Y-91400D01*
X3067160Y-92200D01*
X3069320Y-92300D01*
X3070760Y-92640D01*
X3071980Y-93460D01*
X3084120Y-105600D01*
X3086560Y-107620D01*
X3089200Y-109019D01*
X3092040Y-109880D01*
X3095200Y-110200D01*
X3182000Y-110200D01*
X3183399Y-110460D01*
X3184640Y-111199D01*
X3186680Y-113000D01*
X3189920Y-115000D01*
X3193440Y-116400D01*
X3197160Y-117200D01*
G37*
G36*
X2800960Y-112380D02*
G01*
X2804720Y-111880D01*
X2808340Y-110780D01*
X2811740Y-109060D01*
X2816480Y-105520D01*
X2818039Y-105200D01*
X2929800Y-105200D01*
X2932960Y-104880D01*
X2935800Y-104019D01*
X2938440Y-102620D01*
X2940880Y-100600D01*
X2947960Y-93539D01*
X2949340Y-92640D01*
X2954720Y-91880D01*
X2958340Y-90780D01*
X2961740Y-89060D01*
X2964800Y-86800D01*
X2967420Y-84060D01*
X2969540Y-80920D01*
X2971120Y-77460D01*
X2972060Y-73780D01*
X2972400Y-70000D01*
X2972060Y-66220D01*
X2971120Y-62539D01*
X2969540Y-59080D01*
X2967420Y-55940D01*
X2964800Y-53200D01*
X2961740Y-50940D01*
X2958340Y-49220D01*
X2954720Y-48120D01*
X2950960Y-47619D01*
X2947160Y-47800D01*
X2943440Y-48600D01*
X2939920Y-50000D01*
X2936680Y-52000D01*
X2933840Y-54500D01*
X2931440Y-57460D01*
X2929600Y-60780D01*
X2928340Y-64360D01*
X2927700Y-68100D01*
X2927700Y-69160D01*
X2927380Y-70680D01*
X2926520Y-71980D01*
X2924880Y-73620D01*
X2923580Y-74500D01*
X2922040Y-74800D01*
X2901620Y-74800D01*
X2899980Y-74460D01*
X2898639Y-73480D01*
X2897820Y-72060D01*
X2897620Y-70400D01*
X2898140Y-68820D01*
X2899240Y-67580D01*
X2901420Y-65980D01*
X2904100Y-63160D01*
X2906300Y-59920D01*
X2907900Y-56380D01*
X2908880Y-52600D01*
X2909220Y-48720D01*
X2908880Y-44840D01*
X2907900Y-41060D01*
X2906300Y-37520D01*
X2904100Y-34280D01*
X2901420Y-31460D01*
X2898279Y-29160D01*
X2894800Y-27400D01*
X2891080Y-26260D01*
X2887200Y-25760D01*
X2883320Y-25920D01*
X2879500Y-26740D01*
X2875880Y-28200D01*
X2872559Y-30240D01*
X2869640Y-32820D01*
X2867200Y-35860D01*
X2865280Y-39260D01*
X2864000Y-42920D01*
X2863440Y-46120D01*
X2862980Y-47440D01*
X2862080Y-48500D01*
X2860880Y-49200D01*
X2859500Y-49440D01*
X2842060Y-49440D01*
X2842060Y-70800D01*
X2841760Y-72340D01*
X2840899Y-73620D01*
X2839600Y-74500D01*
X2838060Y-74800D01*
X2821380Y-74800D01*
X2819840Y-74500D01*
X2818540Y-73620D01*
X2817679Y-72340D01*
X2817380Y-70800D01*
X2817380Y-49440D01*
X2800120Y-49440D01*
X2800179Y-50420D01*
X2801180Y-54760D01*
X2802799Y-58920D01*
X2804360Y-61620D01*
X2804880Y-63179D01*
X2804720Y-64800D01*
X2803940Y-66220D01*
X2802660Y-67220D01*
X2801080Y-67620D01*
X2797160Y-67800D01*
X2793440Y-68600D01*
X2789920Y-70000D01*
X2786680Y-72000D01*
X2783840Y-74500D01*
X2781440Y-77460D01*
X2779600Y-80780D01*
X2778340Y-84360D01*
X2777700Y-88100D01*
X2777700Y-91900D01*
X2778340Y-95640D01*
X2779600Y-99220D01*
X2781440Y-102540D01*
X2783840Y-105500D01*
X2786680Y-108000D01*
X2789920Y-110000D01*
X2793440Y-111400D01*
X2797160Y-112200D01*
G37*
G36*
X2622620Y-73080D02*
G01*
X2625220Y-71840D01*
X2628900Y-69320D01*
X2632180Y-66280D01*
X2634960Y-62779D01*
X2637200Y-58920D01*
X2638820Y-54760D01*
X2639820Y-50420D01*
X2639880Y-49440D01*
X2622620Y-49440D01*
G37*
G36*
X2257380Y-73080D02*
G01*
X2257380Y-49440D01*
X2240120Y-49440D01*
X2240180Y-50420D01*
X2241180Y-54760D01*
X2242800Y-58920D01*
X2245040Y-62779D01*
X2247820Y-66280D01*
X2251100Y-69320D01*
X2254780Y-71840D01*
G37*
G36*
X2282060Y-73080D02*
G01*
X2284660Y-71840D01*
X2288340Y-69320D01*
X2291620Y-66280D01*
X2294400Y-62779D01*
X2296640Y-58920D01*
X2297400Y-56960D01*
X2298280Y-55599D01*
X2299620Y-54720D01*
X2301200Y-54420D01*
X2302760Y-54760D01*
X2304080Y-55700D01*
X2304900Y-57080D01*
X2305280Y-58179D01*
X2307200Y-61580D01*
X2309640Y-64620D01*
X2312560Y-67200D01*
X2315880Y-69240D01*
X2319500Y-70700D01*
X2323320Y-71520D01*
X2327200Y-71680D01*
X2331080Y-71180D01*
X2334800Y-70040D01*
X2338280Y-68280D01*
X2341420Y-65980D01*
X2344100Y-63160D01*
X2346300Y-59920D01*
X2347900Y-56380D01*
X2348880Y-52600D01*
X2349220Y-48720D01*
X2348880Y-44840D01*
X2347900Y-41060D01*
X2346300Y-37520D01*
X2344100Y-34280D01*
X2341420Y-31460D01*
X2338280Y-29160D01*
X2334800Y-27400D01*
X2331080Y-26260D01*
X2327200Y-25760D01*
X2323320Y-25920D01*
X2319500Y-26740D01*
X2315880Y-28200D01*
X2312560Y-30240D01*
X2309640Y-32820D01*
X2307200Y-35860D01*
X2305280Y-39260D01*
X2304000Y-42920D01*
X2303440Y-46120D01*
X2302980Y-47440D01*
X2302080Y-48500D01*
X2300880Y-49200D01*
X2299500Y-49440D01*
X2282060Y-49440D01*
G37*
G36*
X3182620Y-7040D02*
G01*
X3199880Y-7040D01*
X3199820Y-6060D01*
X3198820Y-1719D01*
X3197200Y2440D01*
X3194960Y6300D01*
X3192180Y9800D01*
X3188900Y12820D01*
X3185220Y15340D01*
X3182620Y16600D01*
G37*
G36*
X2842060Y-7040D02*
G01*
X2859320Y-7040D01*
X2859260Y-6060D01*
X2858260Y-1719D01*
X2856640Y2440D01*
X2854400Y6300D01*
X2851620Y9800D01*
X2848340Y12820D01*
X2844660Y15340D01*
X2842060Y16600D01*
G37*
G36*
X2800120Y-7040D02*
G01*
X2817380Y-7040D01*
X2817380Y16600D01*
X2814780Y15340D01*
X2811100Y12820D01*
X2807820Y9800D01*
X2805040Y6300D01*
X2802799Y2440D01*
X2801180Y-1719D01*
X2800179Y-6060D01*
G37*
G36*
X2282060Y-7040D02*
G01*
X2299320Y-7040D01*
X2299260Y-6060D01*
X2298260Y-1719D01*
X2296640Y2440D01*
X2294400Y6300D01*
X2291620Y9800D01*
X2288340Y12820D01*
X2284660Y15340D01*
X2282060Y16600D01*
G37*
G36*
X2622620Y-7040D02*
G01*
X2639880Y-7040D01*
X2639820Y-6060D01*
X2638820Y-1719D01*
X2637200Y2440D01*
X2634960Y6300D01*
X2632180Y9800D01*
X2628900Y12820D01*
X2625220Y15340D01*
X2622620Y16600D01*
G37*
G36*
X2240120Y-7040D02*
G01*
X2257380Y-7040D01*
X2257380Y16600D01*
X2254780Y15340D01*
X2251100Y12820D01*
X2247820Y9800D01*
X2245040Y6300D01*
X2242800Y2440D01*
X2241180Y-1719D01*
X2240180Y-6060D01*
G37*
G36*
X2580659Y-7040D02*
G01*
X2597940Y-7040D01*
X2597940Y16600D01*
X2595340Y15340D01*
X2591660Y12820D01*
X2588380Y9800D01*
X2585600Y6300D01*
X2583360Y2440D01*
X2581740Y-1719D01*
X2580740Y-6080D01*
G37*
G36*
X3140659Y-7040D02*
G01*
X3157940Y-7040D01*
X3157940Y16600D01*
X3155340Y15340D01*
X3151660Y12820D01*
X3148380Y9800D01*
X3145600Y6300D01*
X3143360Y2440D01*
X3141740Y-1719D01*
X3140740Y-6080D01*
G37*
G36*
X2350960Y32620D02*
G01*
X2354720Y33120D01*
X2358340Y34220D01*
X2361740Y35940D01*
X2366480Y39480D01*
X2368040Y39800D01*
X2516480Y39800D01*
X2517900Y39540D01*
X2519120Y38800D01*
X2521180Y37000D01*
X2524400Y35000D01*
X2527940Y33600D01*
X2531640Y32800D01*
X2535440Y32620D01*
X2539200Y33120D01*
X2542840Y34220D01*
X2546220Y35940D01*
X2549280Y38200D01*
X2551920Y40940D01*
X2554040Y44080D01*
X2555600Y47539D01*
X2556560Y51220D01*
X2556880Y55000D01*
X2556560Y58780D01*
X2555600Y62460D01*
X2554040Y65920D01*
X2551920Y69060D01*
X2549280Y71800D01*
X2546220Y74060D01*
X2542840Y75780D01*
X2539200Y76880D01*
X2535440Y77380D01*
X2531640Y77200D01*
X2527940Y76400D01*
X2524400Y75000D01*
X2521180Y73000D01*
X2519120Y71200D01*
X2517900Y70460D01*
X2516480Y70200D01*
X2368040Y70200D01*
X2366480Y70520D01*
X2361740Y74060D01*
X2358340Y75780D01*
X2354720Y76880D01*
X2350960Y77380D01*
X2347160Y77200D01*
X2343440Y76400D01*
X2339920Y75000D01*
X2336680Y73000D01*
X2333840Y70500D01*
X2331440Y67540D01*
X2329600Y64220D01*
X2328340Y60640D01*
X2327700Y56900D01*
X2327700Y53099D01*
X2328340Y49360D01*
X2329600Y45780D01*
X2331440Y42460D01*
X2333840Y39500D01*
X2336680Y37000D01*
X2339920Y35000D01*
X2343440Y33600D01*
X2347160Y32800D01*
G37*
G36*
X2410960Y102620D02*
G01*
X2414720Y103120D01*
X2418340Y104220D01*
X2421740Y105940D01*
X2424800Y108200D01*
X2427420Y110940D01*
X2429540Y114080D01*
X2431120Y117540D01*
X2432060Y121220D01*
X2432400Y125000D01*
X2432060Y128780D01*
X2431120Y132460D01*
X2429540Y135920D01*
X2428520Y137440D01*
X2427960Y138700D01*
X2427860Y140060D01*
X2428220Y141380D01*
X2429000Y142500D01*
X2440600Y154120D01*
X2442620Y156560D01*
X2444020Y159200D01*
X2444880Y162040D01*
X2445200Y165200D01*
X2445200Y289800D01*
X2444880Y292960D01*
X2444020Y295800D01*
X2442620Y298440D01*
X2440600Y300880D01*
X1721380Y1020120D01*
X1720500Y1021420D01*
X1720200Y1022960D01*
X1720200Y1066620D01*
X1720580Y1068320D01*
X1721660Y1069700D01*
X1723200Y1070500D01*
X1724940Y1070540D01*
X1726560Y1069860D01*
X1730000Y1067340D01*
X1735020Y1064580D01*
X1740340Y1062480D01*
X1745900Y1061060D01*
X1751579Y1060340D01*
X1757320Y1060340D01*
X1763000Y1061060D01*
X1768540Y1062480D01*
X1773880Y1064580D01*
X1778899Y1067340D01*
X1783540Y1070720D01*
X1787700Y1074640D01*
X1791360Y1079060D01*
X1794420Y1083900D01*
X1796860Y1089080D01*
X1798640Y1094520D01*
X1799720Y1100160D01*
X1800080Y1105880D01*
X1799720Y1111580D01*
X1798640Y1117220D01*
X1796860Y1122660D01*
X1794420Y1127860D01*
X1791360Y1132680D01*
X1787700Y1137100D01*
X1783540Y1141020D01*
X1778899Y1144400D01*
X1773880Y1147160D01*
X1768540Y1149260D01*
X1763000Y1150680D01*
X1757320Y1151400D01*
X1751579Y1151400D01*
X1745900Y1150680D01*
X1740340Y1149260D01*
X1735020Y1147160D01*
X1730000Y1144400D01*
X1726560Y1141880D01*
X1724940Y1141200D01*
X1723200Y1141240D01*
X1721660Y1142040D01*
X1720580Y1143420D01*
X1720200Y1145120D01*
X1720200Y1166620D01*
X1720580Y1168320D01*
X1721660Y1169700D01*
X1723200Y1170500D01*
X1724940Y1170540D01*
X1726560Y1169860D01*
X1730000Y1167340D01*
X1735020Y1164580D01*
X1740340Y1162480D01*
X1745900Y1161060D01*
X1751579Y1160340D01*
X1757320Y1160340D01*
X1763000Y1161060D01*
X1768540Y1162480D01*
X1773880Y1164580D01*
X1778899Y1167340D01*
X1783540Y1170720D01*
X1787700Y1174640D01*
X1791360Y1179060D01*
X1794420Y1183900D01*
X1796860Y1189080D01*
X1798640Y1194520D01*
X1799720Y1200160D01*
X1800080Y1205880D01*
X1799720Y1211580D01*
X1798640Y1217220D01*
X1796860Y1222660D01*
X1794420Y1227860D01*
X1791360Y1232680D01*
X1787700Y1237100D01*
X1783540Y1241020D01*
X1778899Y1244400D01*
X1773880Y1247160D01*
X1768540Y1249260D01*
X1763000Y1250680D01*
X1757320Y1251400D01*
X1751579Y1251400D01*
X1745900Y1250680D01*
X1740340Y1249260D01*
X1735020Y1247160D01*
X1730000Y1244400D01*
X1726560Y1241880D01*
X1724940Y1241200D01*
X1723200Y1241240D01*
X1721660Y1242040D01*
X1720580Y1243420D01*
X1720200Y1245120D01*
X1720200Y1472040D01*
X1720500Y1473580D01*
X1721380Y1474880D01*
X1727960Y1481459D01*
X1729340Y1482360D01*
X1734720Y1483120D01*
X1738340Y1484220D01*
X1741740Y1485940D01*
X1744800Y1488200D01*
X1747420Y1490940D01*
X1749540Y1494079D01*
X1751120Y1497540D01*
X1752060Y1501220D01*
X1752400Y1505000D01*
X1752060Y1508779D01*
X1751120Y1512460D01*
X1749540Y1515920D01*
X1747420Y1519060D01*
X1744800Y1521800D01*
X1741740Y1524060D01*
X1738340Y1525780D01*
X1734720Y1526879D01*
X1732760Y1527140D01*
X1731100Y1527740D01*
X1729860Y1529000D01*
X1729280Y1530680D01*
X1729480Y1532440D01*
X1730440Y1533940D01*
X1760600Y1564120D01*
X1762620Y1566560D01*
X1764019Y1569199D01*
X1764880Y1572040D01*
X1765200Y1575200D01*
X1765200Y1881500D01*
X1765500Y1883000D01*
X1766320Y1884280D01*
X1767560Y1885160D01*
X1769060Y1885500D01*
X1770560Y1885260D01*
X1771860Y1884480D01*
X1773040Y1883440D01*
X1778480Y1879580D01*
X1782980Y1877100D01*
X1782980Y1902780D01*
X1764199Y1902780D01*
X1762660Y1903080D01*
X1761380Y1903940D01*
X1760500Y1905240D01*
X1760200Y1906780D01*
X1760200Y1942040D01*
X1760500Y1943580D01*
X1761380Y1944880D01*
X1772320Y1955820D01*
X1773620Y1956680D01*
X1775140Y1956980D01*
X1782980Y1956980D01*
X1782980Y1964820D01*
X1783280Y1966360D01*
X1784139Y1967640D01*
X1795120Y1978620D01*
X1796420Y1979500D01*
X1797960Y1979800D01*
X1833180Y1979800D01*
X1834720Y1979500D01*
X1836020Y1978620D01*
X1836879Y1977340D01*
X1837180Y1975800D01*
X1837180Y1956980D01*
X1862860Y1956980D01*
X1860380Y1961480D01*
X1856519Y1966920D01*
X1852080Y1971879D01*
X1851040Y1972820D01*
X1850100Y1974100D01*
X1849720Y1975660D01*
X1849980Y1977220D01*
X1850840Y1978580D01*
X1852140Y1979480D01*
X1853720Y1979800D01*
X1881279Y1979800D01*
X1882860Y1979480D01*
X1884180Y1978580D01*
X1885020Y1977220D01*
X1885280Y1975660D01*
X1884900Y1974100D01*
X1883959Y1972820D01*
X1882920Y1971879D01*
X1878480Y1966920D01*
X1874620Y1961480D01*
X1872140Y1956980D01*
X1897820Y1956980D01*
X1897820Y1975800D01*
X1898120Y1977340D01*
X1898980Y1978620D01*
X1900280Y1979500D01*
X1901819Y1979800D01*
X1948020Y1979800D01*
X1949560Y1979500D01*
X1950860Y1978620D01*
X1951720Y1977340D01*
X1952020Y1975800D01*
X1952020Y1956980D01*
X1977700Y1956980D01*
X1975220Y1961480D01*
X1971360Y1966920D01*
X1966920Y1971879D01*
X1965880Y1972820D01*
X1964940Y1974100D01*
X1964560Y1975660D01*
X1964820Y1977220D01*
X1965680Y1978580D01*
X1966980Y1979480D01*
X1968560Y1979800D01*
X2034800Y1979800D01*
X2037960Y1980120D01*
X2040800Y1980980D01*
X2043440Y1982380D01*
X2045880Y1984400D01*
X2080120Y2018620D01*
X2081420Y2019500D01*
X2082960Y2019800D01*
X2111840Y2019800D01*
X2113380Y2019500D01*
X2114680Y2018620D01*
X2120780Y2012520D01*
X2121640Y2011220D01*
X2121960Y2009700D01*
X2121960Y1987540D01*
X2142760Y1987540D01*
X2144260Y1987260D01*
X2145520Y1986440D01*
X2146400Y1985200D01*
X2146760Y1983720D01*
X2146540Y1982220D01*
X2146000Y1980660D01*
X2144940Y1975400D01*
X2144580Y1970040D01*
X2144940Y1964680D01*
X2146000Y1959420D01*
X2146540Y1957860D01*
X2146760Y1956360D01*
X2146480Y1955200D01*
X2147240Y1954740D01*
X2148160Y1953560D01*
X2150180Y1949560D01*
X2152580Y1946080D01*
X2153180Y1944700D01*
X2153220Y1943200D01*
X2152720Y1941780D01*
X2151720Y1940640D01*
X2150380Y1939960D01*
X2148880Y1939840D01*
X2145960Y1940120D01*
X2140160Y1939920D01*
X2138660Y1940140D01*
X2137360Y1940900D01*
X2136440Y1942100D01*
X2136020Y1943540D01*
X2136180Y1945040D01*
X2136880Y1946380D01*
X2137580Y1947300D01*
X2140320Y1951920D01*
X2140580Y1952540D01*
X2121960Y1952540D01*
X2121960Y1935180D01*
X2121580Y1933500D01*
X2120540Y1932120D01*
X2116660Y1928860D01*
X2113060Y1924860D01*
X2110020Y1920440D01*
X2107600Y1915660D01*
X2105840Y1910580D01*
X2104780Y1905320D01*
X2104420Y1899960D01*
X2104780Y1894600D01*
X2105840Y1889340D01*
X2107600Y1884280D01*
X2110020Y1879480D01*
X2113060Y1875060D01*
X2116660Y1871080D01*
X2120760Y1867600D01*
X2125300Y1864720D01*
X2130160Y1862460D01*
X2135280Y1860860D01*
X2140580Y1859980D01*
X2145960Y1859800D01*
X2151300Y1860320D01*
X2156520Y1861579D01*
X2161520Y1863500D01*
X2166240Y1866080D01*
X2170560Y1869259D01*
X2174420Y1873000D01*
X2177740Y1877220D01*
X2180480Y1881840D01*
X2181080Y1883240D01*
X2181900Y1884480D01*
X2183160Y1885340D01*
X2184620Y1885660D01*
X2186100Y1885440D01*
X2187400Y1884660D01*
X2188320Y1883480D01*
X2190340Y1879480D01*
X2193380Y1875060D01*
X2196980Y1871080D01*
X2201080Y1867600D01*
X2205600Y1864720D01*
X2210480Y1862460D01*
X2215600Y1860860D01*
X2220900Y1859980D01*
X2226260Y1859800D01*
X2231600Y1860320D01*
X2236820Y1861579D01*
X2241840Y1863500D01*
X2246540Y1866080D01*
X2250880Y1869259D01*
X2254720Y1873000D01*
X2258060Y1877220D01*
X2260800Y1881840D01*
X2261380Y1883240D01*
X2262220Y1884480D01*
X2263460Y1885340D01*
X2264940Y1885660D01*
X2266420Y1885440D01*
X2267720Y1884660D01*
X2268640Y1883480D01*
X2270660Y1879480D01*
X2273700Y1875060D01*
X2277300Y1871080D01*
X2281400Y1867600D01*
X2285920Y1864720D01*
X2290800Y1862460D01*
X2295920Y1860860D01*
X2301220Y1859980D01*
X2306580Y1859800D01*
X2311920Y1860320D01*
X2317140Y1861579D01*
X2322160Y1863500D01*
X2326860Y1866080D01*
X2331180Y1869259D01*
X2335040Y1873000D01*
X2338380Y1877220D01*
X2341100Y1881840D01*
X2341700Y1883240D01*
X2342540Y1884480D01*
X2343780Y1885340D01*
X2345240Y1885660D01*
X2346740Y1885440D01*
X2348040Y1884660D01*
X2348960Y1883480D01*
X2350980Y1879480D01*
X2354020Y1875060D01*
X2357620Y1871080D01*
X2361720Y1867600D01*
X2366240Y1864720D01*
X2371100Y1862460D01*
X2376240Y1860860D01*
X2381520Y1859980D01*
X2386900Y1859800D01*
X2392240Y1860320D01*
X2397460Y1861579D01*
X2398660Y1862040D01*
X2400160Y1862300D01*
X2401660Y1861980D01*
X2402940Y1861140D01*
X2438040Y1825980D01*
X2438900Y1824680D01*
X2439200Y1823160D01*
X2439200Y1251520D01*
X2438880Y1249980D01*
X2438000Y1248660D01*
X2436680Y1247800D01*
X2435020Y1247160D01*
X2430000Y1244400D01*
X2425360Y1241020D01*
X2421180Y1237100D01*
X2417540Y1232680D01*
X2414460Y1227860D01*
X2412020Y1222660D01*
X2410260Y1217220D01*
X2409180Y1211580D01*
X2408820Y1205880D01*
X2409180Y1200160D01*
X2410260Y1194520D01*
X2412020Y1189080D01*
X2414460Y1183900D01*
X2417540Y1179060D01*
X2421180Y1174640D01*
X2425360Y1170720D01*
X2430000Y1167340D01*
X2435020Y1164580D01*
X2440340Y1162480D01*
X2445900Y1161060D01*
X2451580Y1160340D01*
X2457320Y1160340D01*
X2463000Y1161060D01*
X2468540Y1162480D01*
X2473880Y1164580D01*
X2478900Y1167340D01*
X2483540Y1170720D01*
X2487700Y1174640D01*
X2491360Y1179060D01*
X2494420Y1183900D01*
X2496860Y1189080D01*
X2498640Y1194520D01*
X2499720Y1200160D01*
X2500080Y1205880D01*
X2499720Y1211580D01*
X2498640Y1217220D01*
X2496860Y1222660D01*
X2494420Y1227860D01*
X2491360Y1232680D01*
X2487700Y1237100D01*
X2483540Y1241020D01*
X2478900Y1244400D01*
X2473880Y1247160D01*
X2472120Y1247840D01*
X2470800Y1248700D01*
X2469920Y1250020D01*
X2469600Y1251560D01*
X2469600Y1830900D01*
X2469300Y1834060D01*
X2468420Y1836900D01*
X2467020Y1839520D01*
X2465020Y1841980D01*
X2424460Y1882600D01*
X2423660Y1883740D01*
X2423300Y1885100D01*
X2423440Y1886480D01*
X2424940Y1891960D01*
X2425660Y1897280D01*
X2425660Y1902640D01*
X2424940Y1907960D01*
X2423520Y1913140D01*
X2421420Y1918080D01*
X2418680Y1922700D01*
X2415360Y1926920D01*
X2411500Y1930660D01*
X2407180Y1933839D01*
X2402460Y1936420D01*
X2397460Y1938340D01*
X2392240Y1939600D01*
X2386900Y1940120D01*
X2381100Y1939920D01*
X2379620Y1940140D01*
X2378320Y1940900D01*
X2377380Y1942100D01*
X2376980Y1943540D01*
X2377120Y1945040D01*
X2377820Y1946380D01*
X2378540Y1947300D01*
X2381260Y1951920D01*
X2383360Y1956860D01*
X2384780Y1962040D01*
X2385500Y1967360D01*
X2385500Y1972720D01*
X2384780Y1978040D01*
X2383360Y1983220D01*
X2381260Y1988160D01*
X2378540Y1992780D01*
X2375200Y1997000D01*
X2371340Y2000740D01*
X2367020Y2003920D01*
X2362320Y2006500D01*
X2357300Y2008420D01*
X2352080Y2009680D01*
X2346740Y2010200D01*
X2341380Y2010020D01*
X2336080Y2009139D01*
X2330960Y2007540D01*
X2326080Y2005280D01*
X2321560Y2002400D01*
X2317460Y1998940D01*
X2313860Y1994940D01*
X2310820Y1990520D01*
X2308800Y1986519D01*
X2307880Y1985340D01*
X2306580Y1984560D01*
X2305100Y1984340D01*
X2303620Y1984660D01*
X2302380Y1985520D01*
X2301540Y1986780D01*
X2300960Y1988160D01*
X2298220Y1992780D01*
X2294880Y1997000D01*
X2291020Y2000740D01*
X2286700Y2003920D01*
X2282000Y2006500D01*
X2276980Y2008420D01*
X2271760Y2009680D01*
X2266420Y2010200D01*
X2261060Y2010020D01*
X2255760Y2009139D01*
X2251740Y2007900D01*
X2250320Y2007720D01*
X2248920Y2008060D01*
X2247740Y2008880D01*
X2101000Y2155600D01*
X2098560Y2157620D01*
X2095920Y2159020D01*
X2093080Y2159880D01*
X2089920Y2160200D01*
X1575200Y2160200D01*
X1572040Y2159880D01*
X1569199Y2159020D01*
X1566560Y2157620D01*
X1564120Y2155600D01*
X1511980Y2103460D01*
X1510760Y2102640D01*
X1509319Y2102300D01*
X1507160Y2102200D01*
X1503440Y2101400D01*
X1499920Y2100000D01*
X1496680Y2098000D01*
X1493839Y2095500D01*
X1491440Y2092540D01*
X1489600Y2089220D01*
X1488340Y2085640D01*
X1487700Y2081900D01*
X1487700Y2078100D01*
X1488340Y2074360D01*
X1489600Y2070780D01*
X1491440Y2067460D01*
X1493839Y2064500D01*
X1496680Y2062000D01*
X1499920Y2060000D01*
X1503440Y2058600D01*
X1507160Y2057800D01*
X1510960Y2057620D01*
X1514720Y2058120D01*
X1518340Y2059220D01*
X1521740Y2060940D01*
X1526480Y2064480D01*
X1528040Y2064800D01*
X1582040Y2064800D01*
X1583580Y2064500D01*
X1584880Y2063620D01*
X1606480Y2042020D01*
X1607340Y2040740D01*
X1607640Y2039199D01*
X1607340Y2037660D01*
X1606480Y2036380D01*
X1605180Y2035500D01*
X1603640Y2035200D01*
X1479900Y2035200D01*
X1476740Y2034880D01*
X1473899Y2034019D01*
X1471260Y2032620D01*
X1468820Y2030620D01*
X1447120Y2008880D01*
X1445860Y2008020D01*
X1444360Y2007700D01*
X1442860Y2007980D01*
X1441680Y2008420D01*
X1436459Y2009680D01*
X1431100Y2010200D01*
X1425740Y2010020D01*
X1420440Y2009139D01*
X1415320Y2007540D01*
X1410440Y2005280D01*
X1405920Y2002400D01*
X1401819Y1998940D01*
X1398220Y1994940D01*
X1395180Y1990520D01*
X1393160Y1986519D01*
X1392240Y1985340D01*
X1391480Y1984880D01*
X1391759Y1983720D01*
X1391540Y1982220D01*
X1391000Y1980660D01*
X1389940Y1975400D01*
X1389580Y1970040D01*
X1389940Y1964680D01*
X1391000Y1959420D01*
X1391540Y1957860D01*
X1391759Y1956360D01*
X1391480Y1955200D01*
X1392240Y1954740D01*
X1393160Y1953560D01*
X1395180Y1949560D01*
X1397580Y1946080D01*
X1398180Y1944700D01*
X1398220Y1943200D01*
X1397720Y1941780D01*
X1396720Y1940640D01*
X1395380Y1939960D01*
X1393880Y1939840D01*
X1390960Y1940120D01*
X1385160Y1939920D01*
X1383660Y1940140D01*
X1382360Y1940900D01*
X1381440Y1942100D01*
X1381020Y1943540D01*
X1381180Y1945040D01*
X1381879Y1946380D01*
X1382580Y1947300D01*
X1385320Y1951920D01*
X1385580Y1952540D01*
X1366940Y1952540D01*
X1366940Y1935180D01*
X1366579Y1933500D01*
X1365540Y1932120D01*
X1361660Y1928860D01*
X1358060Y1924860D01*
X1355020Y1920440D01*
X1352600Y1915660D01*
X1350840Y1910580D01*
X1349780Y1905320D01*
X1349420Y1899960D01*
X1349780Y1894600D01*
X1350840Y1889340D01*
X1352600Y1884280D01*
X1355020Y1879480D01*
X1358060Y1875060D01*
X1361660Y1871080D01*
X1365760Y1867600D01*
X1370300Y1864720D01*
X1375160Y1862460D01*
X1380280Y1860860D01*
X1385580Y1859980D01*
X1390960Y1859800D01*
X1396300Y1860320D01*
X1401519Y1861579D01*
X1406519Y1863500D01*
X1411240Y1866080D01*
X1415560Y1869259D01*
X1419420Y1873000D01*
X1422740Y1877220D01*
X1425480Y1881840D01*
X1426080Y1883240D01*
X1426900Y1884480D01*
X1428160Y1885340D01*
X1429620Y1885660D01*
X1431100Y1885440D01*
X1432400Y1884660D01*
X1433320Y1883480D01*
X1435340Y1879480D01*
X1438380Y1875060D01*
X1441980Y1871080D01*
X1446080Y1867600D01*
X1450600Y1864720D01*
X1452400Y1863880D01*
X1453620Y1863000D01*
X1454440Y1861740D01*
X1454720Y1860260D01*
X1454720Y1850280D01*
X1455040Y1847120D01*
X1455900Y1844280D01*
X1457300Y1841639D01*
X1459319Y1839199D01*
X1526519Y1771980D01*
X1527380Y1770680D01*
X1527700Y1769160D01*
X1527700Y1768100D01*
X1528340Y1764360D01*
X1529600Y1760780D01*
X1531440Y1757460D01*
X1533839Y1754500D01*
X1536680Y1752000D01*
X1539920Y1750000D01*
X1543440Y1748600D01*
X1547160Y1747800D01*
X1550960Y1747620D01*
X1554720Y1748120D01*
X1558340Y1749220D01*
X1561740Y1750940D01*
X1564800Y1753200D01*
X1567420Y1755940D01*
X1569540Y1759079D01*
X1571120Y1762540D01*
X1572060Y1766220D01*
X1572400Y1770000D01*
X1572280Y1771240D01*
X1572480Y1772840D01*
X1573280Y1774240D01*
X1574580Y1775200D01*
X1576160Y1775580D01*
X1577740Y1775300D01*
X1579100Y1774400D01*
X1606519Y1746980D01*
X1607380Y1745680D01*
X1607700Y1744160D01*
X1607700Y1743100D01*
X1608340Y1739360D01*
X1609600Y1735780D01*
X1611440Y1732460D01*
X1613839Y1729500D01*
X1616680Y1727000D01*
X1619920Y1725000D01*
X1623440Y1723600D01*
X1627160Y1722800D01*
X1630960Y1722620D01*
X1634720Y1723120D01*
X1638340Y1724220D01*
X1641740Y1725940D01*
X1644800Y1728200D01*
X1647420Y1730940D01*
X1649540Y1734079D01*
X1651120Y1737540D01*
X1652060Y1741220D01*
X1652400Y1745000D01*
X1652060Y1748779D01*
X1651120Y1752460D01*
X1649540Y1755920D01*
X1647420Y1759060D01*
X1644800Y1761800D01*
X1641740Y1764060D01*
X1638340Y1765780D01*
X1634720Y1766879D01*
X1629340Y1767640D01*
X1627960Y1768540D01*
X1566620Y1829880D01*
X1565740Y1831180D01*
X1565440Y1832720D01*
X1565440Y1860200D01*
X1565700Y1861600D01*
X1566420Y1862820D01*
X1567520Y1863700D01*
X1571860Y1866080D01*
X1576180Y1869259D01*
X1580040Y1873000D01*
X1583380Y1877220D01*
X1586100Y1881840D01*
X1586699Y1883240D01*
X1587540Y1884480D01*
X1588779Y1885340D01*
X1590240Y1885660D01*
X1591740Y1885440D01*
X1593040Y1884660D01*
X1593959Y1883480D01*
X1595980Y1879480D01*
X1599019Y1875060D01*
X1602620Y1871080D01*
X1606720Y1867600D01*
X1611240Y1864720D01*
X1616100Y1862460D01*
X1621240Y1860860D01*
X1626519Y1859980D01*
X1631900Y1859800D01*
X1637240Y1860320D01*
X1642460Y1861579D01*
X1647460Y1863500D01*
X1652180Y1866080D01*
X1656500Y1869259D01*
X1660400Y1873040D01*
X1661360Y1874199D01*
X1662740Y1875280D01*
X1664420Y1875660D01*
X1666120Y1875280D01*
X1667500Y1874240D01*
X1668300Y1872700D01*
X1668380Y1870980D01*
X1667700Y1866900D01*
X1667700Y1863100D01*
X1668340Y1859360D01*
X1669600Y1855780D01*
X1671440Y1852460D01*
X1673839Y1849500D01*
X1676680Y1847000D01*
X1679920Y1845000D01*
X1683440Y1843600D01*
X1687160Y1842800D01*
X1689319Y1842700D01*
X1690760Y1842360D01*
X1691980Y1841540D01*
X1693620Y1839880D01*
X1694500Y1838580D01*
X1694800Y1837040D01*
X1694800Y1702960D01*
X1694500Y1701420D01*
X1693620Y1700120D01*
X1294400Y1300880D01*
X1292380Y1298440D01*
X1290980Y1295800D01*
X1290120Y1292960D01*
X1289800Y1289800D01*
X1289800Y1244320D01*
X1289420Y1242620D01*
X1288340Y1241240D01*
X1286800Y1240440D01*
X1285060Y1240400D01*
X1283440Y1241080D01*
X1278900Y1244400D01*
X1273880Y1247160D01*
X1268540Y1249260D01*
X1263000Y1250680D01*
X1257320Y1251400D01*
X1251580Y1251400D01*
X1245900Y1250680D01*
X1240340Y1249260D01*
X1235020Y1247160D01*
X1230000Y1244400D01*
X1225360Y1241020D01*
X1221180Y1237100D01*
X1217540Y1232680D01*
X1214460Y1227860D01*
X1212020Y1222660D01*
X1210260Y1217220D01*
X1209180Y1211580D01*
X1208820Y1205880D01*
X1209180Y1200160D01*
X1210260Y1194520D01*
X1212020Y1189080D01*
X1214460Y1183900D01*
X1217540Y1179060D01*
X1221180Y1174640D01*
X1225360Y1170720D01*
X1230000Y1167340D01*
X1235020Y1164580D01*
X1240340Y1162480D01*
X1245900Y1161060D01*
X1251580Y1160340D01*
X1257320Y1160340D01*
X1263000Y1161060D01*
X1268540Y1162480D01*
X1273880Y1164580D01*
X1278900Y1167340D01*
X1283440Y1170660D01*
X1285060Y1171340D01*
X1286800Y1171300D01*
X1288340Y1170500D01*
X1289420Y1169120D01*
X1289800Y1167420D01*
X1289800Y1159380D01*
X1289500Y1157840D01*
X1288620Y1156540D01*
X1284760Y1152680D01*
X1283460Y1151800D01*
X1281940Y1151500D01*
X1223680Y1151500D01*
X1221180Y1151220D01*
X1219040Y1150480D01*
X1217100Y1149260D01*
X1215500Y1147640D01*
X1214280Y1145720D01*
X1213520Y1143560D01*
X1213240Y1141080D01*
X1213240Y1070660D01*
X1213520Y1068180D01*
X1214280Y1066020D01*
X1215500Y1064100D01*
X1217100Y1062480D01*
X1219040Y1061280D01*
X1221180Y1060520D01*
X1223680Y1060240D01*
X1224540Y1060240D01*
X1226180Y1059880D01*
X1227520Y1058900D01*
X1228360Y1057460D01*
X1228520Y1055800D01*
X1228300Y1053960D01*
X1228300Y1037000D01*
X1255700Y1037000D01*
X1255700Y1056240D01*
X1256000Y1057760D01*
X1256860Y1059060D01*
X1258160Y1059940D01*
X1259700Y1060240D01*
X1285220Y1060240D01*
X1287720Y1060520D01*
X1289860Y1061280D01*
X1291800Y1062480D01*
X1293240Y1063920D01*
X1294540Y1064800D01*
X1296060Y1065100D01*
X1297600Y1064800D01*
X1298899Y1063920D01*
X1299760Y1062620D01*
X1300060Y1061100D01*
X1300060Y1037000D01*
X1327440Y1037000D01*
X1327440Y1053960D01*
X1327160Y1056440D01*
X1326420Y1058600D01*
X1325200Y1060520D01*
X1323500Y1062180D01*
X1321660Y1063340D01*
X1319520Y1064100D01*
X1317020Y1064380D01*
X1299420Y1064380D01*
X1297780Y1064720D01*
X1296440Y1065720D01*
X1295600Y1067160D01*
X1295440Y1068820D01*
X1295640Y1070660D01*
X1295640Y1118920D01*
X1295960Y1120440D01*
X1296819Y1121740D01*
X1308880Y1133820D01*
X1310280Y1134720D01*
X1311920Y1134980D01*
X1313520Y1134560D01*
X1314820Y1133520D01*
X1315580Y1132040D01*
X1315680Y1130400D01*
X1315100Y1128840D01*
X1314460Y1127860D01*
X1312020Y1122660D01*
X1310260Y1117220D01*
X1309180Y1111580D01*
X1308820Y1105880D01*
X1309180Y1100160D01*
X1310260Y1094520D01*
X1312020Y1089080D01*
X1314460Y1083900D01*
X1317540Y1079060D01*
X1321180Y1074640D01*
X1325360Y1070720D01*
X1330000Y1067340D01*
X1335020Y1064580D01*
X1340340Y1062480D01*
X1345900Y1061060D01*
X1351579Y1060340D01*
X1357320Y1060340D01*
X1363000Y1061060D01*
X1368540Y1062480D01*
X1373880Y1064580D01*
X1378899Y1067340D01*
X1383540Y1070720D01*
X1387700Y1074640D01*
X1391360Y1079060D01*
X1394420Y1083900D01*
X1396860Y1089080D01*
X1398640Y1094520D01*
X1399720Y1100160D01*
X1400080Y1105880D01*
X1399720Y1111580D01*
X1398640Y1117220D01*
X1397840Y1119680D01*
X1397660Y1121120D01*
X1398000Y1122540D01*
X1398820Y1123740D01*
X1408880Y1133820D01*
X1410280Y1134720D01*
X1411920Y1134980D01*
X1413520Y1134560D01*
X1414820Y1133520D01*
X1415580Y1132040D01*
X1415680Y1130400D01*
X1415100Y1128840D01*
X1414460Y1127860D01*
X1412020Y1122660D01*
X1410260Y1117220D01*
X1409180Y1111580D01*
X1408820Y1105880D01*
X1409180Y1100160D01*
X1410260Y1094520D01*
X1412020Y1089080D01*
X1414460Y1083900D01*
X1417540Y1079060D01*
X1421180Y1074640D01*
X1425360Y1070720D01*
X1430000Y1067340D01*
X1435020Y1064580D01*
X1440340Y1062480D01*
X1445900Y1061060D01*
X1451579Y1060340D01*
X1457320Y1060340D01*
X1463000Y1061060D01*
X1468540Y1062480D01*
X1473880Y1064580D01*
X1478899Y1067340D01*
X1483540Y1070720D01*
X1487700Y1074640D01*
X1491360Y1079060D01*
X1494420Y1083900D01*
X1496860Y1089080D01*
X1498640Y1094520D01*
X1499720Y1100160D01*
X1500080Y1105880D01*
X1499720Y1111580D01*
X1498640Y1117220D01*
X1497840Y1119680D01*
X1497660Y1121120D01*
X1498000Y1122540D01*
X1498820Y1123740D01*
X1508880Y1133820D01*
X1510280Y1134720D01*
X1511920Y1134980D01*
X1513520Y1134560D01*
X1514820Y1133520D01*
X1515580Y1132040D01*
X1515680Y1130400D01*
X1515100Y1128840D01*
X1514460Y1127860D01*
X1512020Y1122660D01*
X1510260Y1117220D01*
X1509180Y1111580D01*
X1508820Y1105880D01*
X1509180Y1100160D01*
X1510260Y1094520D01*
X1512020Y1089080D01*
X1514460Y1083900D01*
X1517540Y1079060D01*
X1521180Y1074640D01*
X1525360Y1070720D01*
X1530000Y1067340D01*
X1535020Y1064580D01*
X1540340Y1062480D01*
X1545900Y1061060D01*
X1551579Y1060340D01*
X1557320Y1060340D01*
X1563000Y1061060D01*
X1568540Y1062480D01*
X1573880Y1064580D01*
X1578899Y1067340D01*
X1583540Y1070720D01*
X1587700Y1074640D01*
X1591360Y1079060D01*
X1594420Y1083900D01*
X1596860Y1089080D01*
X1598640Y1094520D01*
X1599720Y1100160D01*
X1600080Y1105880D01*
X1599720Y1111580D01*
X1598640Y1117220D01*
X1596860Y1122660D01*
X1594420Y1127860D01*
X1591360Y1132680D01*
X1587700Y1137100D01*
X1583540Y1141020D01*
X1578899Y1144400D01*
X1573880Y1147160D01*
X1568540Y1149260D01*
X1563000Y1150680D01*
X1557320Y1151400D01*
X1551579Y1151400D01*
X1545900Y1150680D01*
X1540340Y1149260D01*
X1535020Y1147160D01*
X1530000Y1144400D01*
X1525080Y1140840D01*
X1523580Y1140160D01*
X1521920Y1140160D01*
X1520420Y1140820D01*
X1519300Y1142020D01*
X1518760Y1143600D01*
X1518920Y1145240D01*
X1519880Y1148460D01*
X1520200Y1151620D01*
X1520200Y1166620D01*
X1520580Y1168320D01*
X1521660Y1169700D01*
X1523200Y1170500D01*
X1524940Y1170540D01*
X1526560Y1169860D01*
X1530000Y1167340D01*
X1535020Y1164580D01*
X1540340Y1162480D01*
X1545900Y1161060D01*
X1551579Y1160340D01*
X1557320Y1160340D01*
X1563000Y1161060D01*
X1568540Y1162480D01*
X1573880Y1164580D01*
X1578899Y1167340D01*
X1583540Y1170720D01*
X1587700Y1174640D01*
X1591360Y1179060D01*
X1594420Y1183900D01*
X1596860Y1189080D01*
X1598640Y1194520D01*
X1599720Y1200160D01*
X1600080Y1205880D01*
X1599720Y1211580D01*
X1598640Y1217220D01*
X1596860Y1222660D01*
X1594420Y1227860D01*
X1591360Y1232680D01*
X1587700Y1237100D01*
X1583540Y1241020D01*
X1578899Y1244400D01*
X1573880Y1247160D01*
X1568540Y1249260D01*
X1563000Y1250680D01*
X1557320Y1251400D01*
X1551579Y1251400D01*
X1545900Y1250680D01*
X1540340Y1249260D01*
X1535020Y1247160D01*
X1530000Y1244400D01*
X1526560Y1241880D01*
X1524940Y1241200D01*
X1523200Y1241240D01*
X1521660Y1242040D01*
X1520580Y1243420D01*
X1520200Y1245120D01*
X1520200Y1322040D01*
X1520500Y1323580D01*
X1521380Y1324880D01*
X1683460Y1486960D01*
X1684940Y1487900D01*
X1686680Y1488120D01*
X1688340Y1487560D01*
X1689620Y1486360D01*
X1690240Y1484720D01*
X1689800Y1479800D01*
X1689800Y1244320D01*
X1689420Y1242620D01*
X1688340Y1241240D01*
X1686800Y1240440D01*
X1685060Y1240400D01*
X1683440Y1241080D01*
X1678899Y1244400D01*
X1673880Y1247160D01*
X1668540Y1249260D01*
X1663000Y1250680D01*
X1657320Y1251400D01*
X1651579Y1251400D01*
X1645900Y1250680D01*
X1640340Y1249260D01*
X1635020Y1247160D01*
X1630000Y1244400D01*
X1625360Y1241020D01*
X1621180Y1237100D01*
X1617540Y1232680D01*
X1614460Y1227860D01*
X1612020Y1222660D01*
X1610260Y1217220D01*
X1609180Y1211580D01*
X1608820Y1205880D01*
X1609180Y1200160D01*
X1610260Y1194520D01*
X1612020Y1189080D01*
X1614460Y1183900D01*
X1617540Y1179060D01*
X1621180Y1174640D01*
X1625360Y1170720D01*
X1630000Y1167340D01*
X1635020Y1164580D01*
X1640340Y1162480D01*
X1645900Y1161060D01*
X1651579Y1160340D01*
X1657320Y1160340D01*
X1663000Y1161060D01*
X1668540Y1162480D01*
X1673880Y1164580D01*
X1678899Y1167340D01*
X1683440Y1170660D01*
X1685060Y1171340D01*
X1686800Y1171300D01*
X1688340Y1170500D01*
X1689420Y1169120D01*
X1689800Y1167420D01*
X1689800Y1144320D01*
X1689420Y1142620D01*
X1688340Y1141240D01*
X1686800Y1140440D01*
X1685060Y1140400D01*
X1683440Y1141080D01*
X1678899Y1144400D01*
X1674660Y1146720D01*
X1674660Y1126080D01*
X1685800Y1126080D01*
X1687340Y1125780D01*
X1688620Y1124920D01*
X1689500Y1123620D01*
X1689800Y1122080D01*
X1689800Y1089660D01*
X1689500Y1088120D01*
X1688620Y1086820D01*
X1687340Y1085960D01*
X1685800Y1085660D01*
X1674660Y1085660D01*
X1674660Y1065020D01*
X1678899Y1067340D01*
X1683440Y1070660D01*
X1685060Y1071340D01*
X1686800Y1071300D01*
X1688340Y1070500D01*
X1689420Y1069120D01*
X1689800Y1067420D01*
X1689800Y1015200D01*
X1690120Y1012039D01*
X1690980Y1009200D01*
X1692380Y1006560D01*
X1694400Y1004120D01*
X2413620Y284880D01*
X2414500Y283580D01*
X2414800Y282040D01*
X2414800Y172960D01*
X2414500Y171420D01*
X2413620Y170120D01*
X2399400Y155880D01*
X2397380Y153440D01*
X2395980Y150800D01*
X2395120Y147960D01*
X2394800Y144800D01*
X2394800Y143100D01*
X2394580Y141760D01*
X2393920Y140580D01*
X2391440Y137540D01*
X2389600Y134220D01*
X2388340Y130640D01*
X2387700Y126900D01*
X2387700Y123100D01*
X2388340Y119360D01*
X2389600Y115780D01*
X2391440Y112460D01*
X2393840Y109500D01*
X2396680Y107000D01*
X2399920Y105000D01*
X2403440Y103600D01*
X2407160Y102800D01*
G37*
G36*
X3348200Y127560D02*
G01*
X3358140Y128140D01*
X3368000Y129500D01*
X3377720Y131600D01*
X3387260Y134460D01*
X3396540Y138040D01*
X3405520Y142320D01*
X3414140Y147300D01*
X3422340Y152940D01*
X3430080Y159180D01*
X3437320Y166000D01*
X3444000Y173380D01*
X3450100Y181240D01*
X3455580Y189560D01*
X3460380Y198260D01*
X3464500Y207320D01*
X3467900Y216680D01*
X3470560Y226260D01*
X3472480Y236020D01*
X3473639Y245900D01*
X3474020Y255859D01*
X3473639Y265800D01*
X3472480Y275680D01*
X3470560Y285440D01*
X3467900Y295020D01*
X3464500Y304380D01*
X3460380Y313440D01*
X3455580Y322140D01*
X3450100Y330460D01*
X3444000Y338320D01*
X3437320Y345700D01*
X3430080Y352520D01*
X3422340Y358760D01*
X3414140Y364400D01*
X3405520Y369380D01*
X3396540Y373660D01*
X3387260Y377239D01*
X3377720Y380100D01*
X3368000Y382200D01*
X3358140Y383560D01*
X3348200Y384140D01*
X3338260Y383940D01*
X3328360Y382980D01*
X3318560Y381240D01*
X3308920Y378760D01*
X3299500Y375540D01*
X3290360Y371599D01*
X3281560Y366960D01*
X3273140Y361659D01*
X3265160Y355720D01*
X3257660Y349180D01*
X3250700Y342080D01*
X3244300Y334460D01*
X3238519Y326360D01*
X3233380Y317840D01*
X3228920Y308940D01*
X3225140Y299740D01*
X3222120Y290260D01*
X3219820Y280580D01*
X3218279Y270740D01*
X3217500Y260820D01*
X3217500Y250880D01*
X3218279Y240960D01*
X3219820Y231119D01*
X3222120Y221439D01*
X3225140Y211960D01*
X3228920Y202760D01*
X3233380Y193860D01*
X3238519Y185340D01*
X3244300Y177260D01*
X3250700Y169620D01*
X3257660Y162520D01*
X3265160Y155980D01*
X3273140Y150040D01*
X3281560Y144740D01*
X3290360Y140100D01*
X3299500Y136160D01*
X3308920Y132940D01*
X3318560Y130460D01*
X3328360Y128720D01*
X3338260Y127760D01*
G37*
G36*
X1064700Y127560D02*
G01*
X1074640Y128140D01*
X1084500Y129500D01*
X1094220Y131600D01*
X1103760Y134460D01*
X1113040Y138040D01*
X1122020Y142320D01*
X1130640Y147300D01*
X1138840Y152940D01*
X1146580Y159180D01*
X1153820Y166000D01*
X1160500Y173380D01*
X1166600Y181240D01*
X1172080Y189560D01*
X1176880Y198260D01*
X1181000Y207320D01*
X1184400Y216680D01*
X1187060Y226260D01*
X1188980Y236020D01*
X1190140Y245900D01*
X1190520Y255859D01*
X1190140Y265800D01*
X1188980Y275680D01*
X1187060Y285440D01*
X1184400Y295020D01*
X1181000Y304380D01*
X1176880Y313440D01*
X1172080Y322140D01*
X1166600Y330460D01*
X1160500Y338320D01*
X1153820Y345700D01*
X1146580Y352520D01*
X1138840Y358760D01*
X1130640Y364400D01*
X1122020Y369380D01*
X1113040Y373660D01*
X1103760Y377239D01*
X1094220Y380100D01*
X1084500Y382200D01*
X1074640Y383560D01*
X1064700Y384140D01*
X1054760Y383940D01*
X1044860Y382980D01*
X1035060Y381240D01*
X1025420Y378760D01*
X1016000Y375540D01*
X1006860Y371599D01*
X998060Y366960D01*
X989640Y361659D01*
X981660Y355720D01*
X974160Y349180D01*
X967200Y342080D01*
X960800Y334460D01*
X955020Y326360D01*
X949880Y317840D01*
X945420Y308940D01*
X941640Y299740D01*
X938620Y290260D01*
X936320Y280580D01*
X934780Y270740D01*
X934000Y260820D01*
X934000Y250880D01*
X934780Y240960D01*
X936320Y231119D01*
X938620Y221439D01*
X941640Y211960D01*
X945420Y202760D01*
X949880Y193860D01*
X955020Y185340D01*
X960800Y177260D01*
X967200Y169620D01*
X974160Y162520D01*
X981660Y155980D01*
X989640Y150040D01*
X998060Y144740D01*
X1006860Y140100D01*
X1016000Y136160D01*
X1025420Y132940D01*
X1035060Y130460D01*
X1044860Y128720D01*
X1054760Y127760D01*
G37*
G36*
X2507720Y144900D02*
G01*
X2513400Y144900D01*
X2519020Y145620D01*
X2524520Y147020D01*
X2529800Y149120D01*
X2534760Y151860D01*
X2539360Y155180D01*
X2543500Y159080D01*
X2547120Y163440D01*
X2549100Y166580D01*
X2550220Y167740D01*
X2551680Y168359D01*
X2553280Y168359D01*
X2554760Y167740D01*
X2555860Y166580D01*
X2557840Y163440D01*
X2561460Y159080D01*
X2565600Y155180D01*
X2570200Y151860D01*
X2575160Y149120D01*
X2580440Y147020D01*
X2585940Y145620D01*
X2591580Y144900D01*
X2597240Y144900D01*
X2602880Y145620D01*
X2608380Y147020D01*
X2613660Y149120D01*
X2618620Y151860D01*
X2623220Y155180D01*
X2627360Y159080D01*
X2630980Y163440D01*
X2634020Y168240D01*
X2636420Y173380D01*
X2638180Y178780D01*
X2639240Y184340D01*
X2639600Y190000D01*
X2639240Y195680D01*
X2638180Y201240D01*
X2636420Y206640D01*
X2634020Y211780D01*
X2630980Y216580D01*
X2627360Y220940D01*
X2623220Y224840D01*
X2618620Y228160D01*
X2613660Y230900D01*
X2612140Y231500D01*
X2610820Y232360D01*
X2609920Y233660D01*
X2609620Y235219D01*
X2609620Y455400D01*
X2609300Y458560D01*
X2608440Y461400D01*
X2607040Y464020D01*
X2605020Y466480D01*
X2021380Y1050120D01*
X2020500Y1051420D01*
X2020200Y1052960D01*
X2020200Y1066620D01*
X2020580Y1068320D01*
X2021660Y1069700D01*
X2023200Y1070500D01*
X2024940Y1070540D01*
X2026560Y1069860D01*
X2030000Y1067340D01*
X2035020Y1064580D01*
X2040340Y1062480D01*
X2045900Y1061060D01*
X2051579Y1060340D01*
X2057320Y1060340D01*
X2063000Y1061060D01*
X2068540Y1062480D01*
X2073880Y1064580D01*
X2078899Y1067340D01*
X2083540Y1070720D01*
X2087700Y1074640D01*
X2091360Y1079060D01*
X2094420Y1083900D01*
X2096860Y1089080D01*
X2098640Y1094520D01*
X2099720Y1100160D01*
X2100080Y1105880D01*
X2099720Y1111580D01*
X2098640Y1117220D01*
X2096860Y1122660D01*
X2094420Y1127860D01*
X2093800Y1128860D01*
X2093220Y1130400D01*
X2093320Y1132060D01*
X2094079Y1133540D01*
X2095380Y1134560D01*
X2096980Y1135000D01*
X2098620Y1134720D01*
X2100000Y1133820D01*
X2110080Y1123740D01*
X2110900Y1122540D01*
X2111240Y1121120D01*
X2111060Y1119680D01*
X2110260Y1117220D01*
X2109180Y1111580D01*
X2108820Y1105880D01*
X2109180Y1100160D01*
X2110260Y1094520D01*
X2112020Y1089080D01*
X2114460Y1083900D01*
X2117540Y1079060D01*
X2121180Y1074640D01*
X2125360Y1070720D01*
X2130000Y1067340D01*
X2135020Y1064580D01*
X2140340Y1062480D01*
X2145900Y1061060D01*
X2151580Y1060340D01*
X2157320Y1060340D01*
X2163000Y1061060D01*
X2168540Y1062480D01*
X2173880Y1064580D01*
X2178900Y1067340D01*
X2183540Y1070720D01*
X2187700Y1074640D01*
X2191360Y1079060D01*
X2194420Y1083900D01*
X2196860Y1089080D01*
X2198640Y1094520D01*
X2199720Y1100160D01*
X2200080Y1105880D01*
X2199720Y1111580D01*
X2198640Y1117220D01*
X2196860Y1122660D01*
X2194420Y1127860D01*
X2193820Y1128800D01*
X2193260Y1130360D01*
X2193360Y1132000D01*
X2194120Y1133480D01*
X2195400Y1134520D01*
X2197000Y1134940D01*
X2198640Y1134680D01*
X2200040Y1133760D01*
X2210080Y1123720D01*
X2210900Y1122520D01*
X2211240Y1121100D01*
X2211060Y1119660D01*
X2210260Y1117220D01*
X2209180Y1111580D01*
X2208820Y1105880D01*
X2209180Y1100160D01*
X2210260Y1094520D01*
X2212020Y1089080D01*
X2214460Y1083900D01*
X2217540Y1079060D01*
X2221180Y1074640D01*
X2225360Y1070720D01*
X2230000Y1067340D01*
X2235020Y1064580D01*
X2240340Y1062480D01*
X2245900Y1061060D01*
X2251580Y1060340D01*
X2257320Y1060340D01*
X2263000Y1061060D01*
X2268540Y1062480D01*
X2273880Y1064580D01*
X2278900Y1067340D01*
X2283540Y1070720D01*
X2287700Y1074640D01*
X2291360Y1079060D01*
X2294420Y1083900D01*
X2296860Y1089080D01*
X2298640Y1094520D01*
X2299720Y1100160D01*
X2300080Y1105880D01*
X2299720Y1111580D01*
X2298640Y1117220D01*
X2296860Y1122660D01*
X2294420Y1127860D01*
X2293800Y1128860D01*
X2293220Y1130400D01*
X2293320Y1132060D01*
X2294080Y1133540D01*
X2295380Y1134560D01*
X2296980Y1135000D01*
X2298620Y1134720D01*
X2300000Y1133820D01*
X2310080Y1123740D01*
X2310900Y1122540D01*
X2311240Y1121120D01*
X2311060Y1119680D01*
X2310260Y1117220D01*
X2309180Y1111580D01*
X2308820Y1105880D01*
X2309180Y1100160D01*
X2310260Y1094520D01*
X2312020Y1089080D01*
X2314460Y1083900D01*
X2317540Y1079060D01*
X2321180Y1074640D01*
X2325360Y1070720D01*
X2330000Y1067340D01*
X2335020Y1064580D01*
X2340340Y1062480D01*
X2345900Y1061060D01*
X2351580Y1060340D01*
X2357320Y1060340D01*
X2363000Y1061060D01*
X2368540Y1062480D01*
X2373880Y1064580D01*
X2378900Y1067340D01*
X2383540Y1070720D01*
X2387700Y1074640D01*
X2391360Y1079060D01*
X2394420Y1083900D01*
X2396860Y1089080D01*
X2398640Y1094520D01*
X2399720Y1100160D01*
X2400080Y1105880D01*
X2399720Y1111580D01*
X2398640Y1117220D01*
X2396860Y1122660D01*
X2394420Y1127860D01*
X2391360Y1132680D01*
X2387700Y1137100D01*
X2383540Y1141020D01*
X2378900Y1144400D01*
X2373880Y1147160D01*
X2368540Y1149260D01*
X2363000Y1150680D01*
X2357320Y1151400D01*
X2351580Y1151400D01*
X2345900Y1150680D01*
X2340340Y1149260D01*
X2335020Y1147160D01*
X2334200Y1146700D01*
X2332560Y1146220D01*
X2330880Y1146460D01*
X2329440Y1147380D01*
X2321380Y1155440D01*
X2320500Y1156740D01*
X2320200Y1158280D01*
X2320200Y1166620D01*
X2320580Y1168320D01*
X2321660Y1169700D01*
X2323200Y1170500D01*
X2324940Y1170540D01*
X2326560Y1169860D01*
X2330000Y1167340D01*
X2335020Y1164580D01*
X2340340Y1162480D01*
X2345900Y1161060D01*
X2351580Y1160340D01*
X2357320Y1160340D01*
X2363000Y1161060D01*
X2368540Y1162480D01*
X2373880Y1164580D01*
X2378900Y1167340D01*
X2383540Y1170720D01*
X2387700Y1174640D01*
X2391360Y1179060D01*
X2394420Y1183900D01*
X2396860Y1189080D01*
X2398640Y1194520D01*
X2399720Y1200160D01*
X2400080Y1205880D01*
X2399720Y1211580D01*
X2398640Y1217220D01*
X2396860Y1222660D01*
X2394420Y1227860D01*
X2391360Y1232680D01*
X2387700Y1237100D01*
X2383540Y1241020D01*
X2378900Y1244400D01*
X2373880Y1247160D01*
X2372720Y1247600D01*
X2371400Y1248460D01*
X2370520Y1249780D01*
X2370200Y1251320D01*
X2370200Y1609800D01*
X2369880Y1612960D01*
X2369020Y1615800D01*
X2367620Y1618440D01*
X2365600Y1620880D01*
X2150880Y1835600D01*
X2148440Y1837620D01*
X2145800Y1839019D01*
X2142960Y1839880D01*
X2139800Y1840200D01*
X2123040Y1840200D01*
X2121480Y1840520D01*
X2116740Y1844060D01*
X2113340Y1845780D01*
X2109720Y1846879D01*
X2105960Y1847380D01*
X2102160Y1847200D01*
X2098440Y1846399D01*
X2094920Y1845000D01*
X2091680Y1843000D01*
X2088839Y1840500D01*
X2086440Y1837540D01*
X2084600Y1834220D01*
X2083340Y1830640D01*
X2082700Y1826900D01*
X2082700Y1823100D01*
X2083160Y1820360D01*
X2083100Y1818760D01*
X2082420Y1817280D01*
X2081200Y1816220D01*
X2079660Y1815720D01*
X2078040Y1815860D01*
X2074720Y1816879D01*
X2070960Y1817380D01*
X2067160Y1817200D01*
X2063440Y1816399D01*
X2059920Y1815000D01*
X2056680Y1813000D01*
X2053839Y1810500D01*
X2051440Y1807540D01*
X2049600Y1804220D01*
X2048340Y1800640D01*
X2047700Y1796900D01*
X2047700Y1793100D01*
X2048340Y1789360D01*
X2049600Y1785780D01*
X2051440Y1782460D01*
X2053839Y1779500D01*
X2056680Y1777000D01*
X2059920Y1775000D01*
X2063440Y1773600D01*
X2067160Y1772800D01*
X2068860Y1772720D01*
X2070340Y1772360D01*
X2071579Y1771480D01*
X2072400Y1770220D01*
X2073340Y1764360D01*
X2074600Y1760780D01*
X2076440Y1757460D01*
X2078839Y1754500D01*
X2081680Y1752000D01*
X2084920Y1750000D01*
X2088440Y1748600D01*
X2092160Y1747800D01*
X2094319Y1747700D01*
X2095760Y1747360D01*
X2096980Y1746540D01*
X2193620Y1649880D01*
X2194500Y1648580D01*
X2194800Y1647040D01*
X2194800Y1524980D01*
X2194520Y1523520D01*
X2193740Y1522260D01*
X2192540Y1521380D01*
X2191100Y1520980D01*
X2189620Y1521140D01*
X2187220Y1521879D01*
X2183460Y1522380D01*
X2179660Y1522200D01*
X2175940Y1521399D01*
X2172420Y1520000D01*
X2169180Y1518000D01*
X2167140Y1516200D01*
X2165900Y1515460D01*
X2164500Y1515200D01*
X2093040Y1515200D01*
X2091480Y1515520D01*
X2086740Y1519060D01*
X2083340Y1520780D01*
X2079720Y1521879D01*
X2075960Y1522380D01*
X2072160Y1522200D01*
X2068440Y1521399D01*
X2064920Y1520000D01*
X2061680Y1518000D01*
X2058839Y1515500D01*
X2057320Y1513600D01*
X2056060Y1512580D01*
X2054480Y1512120D01*
X2052860Y1512340D01*
X2051480Y1513200D01*
X2050540Y1514520D01*
X2050200Y1516120D01*
X2050200Y1722000D01*
X2050480Y1723500D01*
X2051320Y1724780D01*
X2052420Y1725940D01*
X2054540Y1729079D01*
X2056120Y1732540D01*
X2057060Y1736220D01*
X2057400Y1740000D01*
X2057060Y1743779D01*
X2056120Y1747460D01*
X2054540Y1750920D01*
X2052420Y1754060D01*
X2049800Y1756800D01*
X2046740Y1759060D01*
X2043340Y1760780D01*
X2039720Y1761879D01*
X2035960Y1762380D01*
X2032160Y1762200D01*
X2028440Y1761399D01*
X2024920Y1760000D01*
X2021680Y1758000D01*
X2018839Y1755500D01*
X2016440Y1752540D01*
X2014600Y1749220D01*
X2013340Y1745640D01*
X2012700Y1741900D01*
X2012700Y1738100D01*
X2013340Y1734360D01*
X2014600Y1730780D01*
X2016440Y1727460D01*
X2018920Y1724420D01*
X2019580Y1723240D01*
X2019800Y1721900D01*
X2019800Y1454500D01*
X2020120Y1451339D01*
X2020980Y1448480D01*
X2022380Y1445860D01*
X2024400Y1443420D01*
X2088620Y1379180D01*
X2089500Y1377880D01*
X2089800Y1376339D01*
X2089800Y1244320D01*
X2089420Y1242620D01*
X2088340Y1241240D01*
X2086800Y1240440D01*
X2085060Y1240400D01*
X2083440Y1241080D01*
X2078899Y1244400D01*
X2073880Y1247160D01*
X2068540Y1249260D01*
X2063000Y1250680D01*
X2057320Y1251400D01*
X2051579Y1251400D01*
X2045900Y1250680D01*
X2040340Y1249260D01*
X2035020Y1247160D01*
X2030000Y1244400D01*
X2023640Y1239780D01*
X2022220Y1239480D01*
X2020780Y1239720D01*
X2019520Y1240460D01*
X2018600Y1241600D01*
X2017620Y1243440D01*
X2015600Y1245880D01*
X1990880Y1270600D01*
X1988440Y1272620D01*
X1985800Y1274020D01*
X1982960Y1274880D01*
X1979800Y1275200D01*
X1909199Y1275200D01*
X1907660Y1275500D01*
X1906380Y1276380D01*
X1905500Y1277660D01*
X1905200Y1279200D01*
X1905200Y1425980D01*
X1905500Y1427500D01*
X1906360Y1428800D01*
X1907640Y1429680D01*
X1909160Y1429980D01*
X1910700Y1429700D01*
X1913440Y1428600D01*
X1917160Y1427800D01*
X1920960Y1427620D01*
X1924720Y1428120D01*
X1928340Y1429220D01*
X1931740Y1430940D01*
X1934800Y1433200D01*
X1937420Y1435940D01*
X1939540Y1439079D01*
X1941120Y1442540D01*
X1942060Y1446220D01*
X1942400Y1450000D01*
X1942060Y1453779D01*
X1941120Y1457460D01*
X1939540Y1460920D01*
X1937420Y1464060D01*
X1934800Y1466800D01*
X1931740Y1469060D01*
X1928340Y1470780D01*
X1924720Y1471879D01*
X1920960Y1472380D01*
X1917160Y1472200D01*
X1913440Y1471399D01*
X1909920Y1470000D01*
X1906680Y1468000D01*
X1904640Y1466200D01*
X1903400Y1465460D01*
X1902000Y1465200D01*
X1895200Y1465200D01*
X1892040Y1464880D01*
X1889199Y1464019D01*
X1886560Y1462620D01*
X1884120Y1460600D01*
X1879400Y1455880D01*
X1877380Y1453440D01*
X1875980Y1450800D01*
X1875120Y1447960D01*
X1874800Y1444800D01*
X1874800Y1270200D01*
X1875120Y1267040D01*
X1875980Y1264200D01*
X1877380Y1261560D01*
X1879400Y1259120D01*
X1889120Y1249400D01*
X1891560Y1247380D01*
X1894199Y1245980D01*
X1897040Y1245120D01*
X1900200Y1244800D01*
X1919280Y1244800D01*
X1920840Y1244480D01*
X1922140Y1243600D01*
X1923000Y1242280D01*
X1923280Y1240720D01*
X1922940Y1239180D01*
X1922020Y1237880D01*
X1921180Y1237100D01*
X1917540Y1232680D01*
X1914460Y1227860D01*
X1912020Y1222660D01*
X1910260Y1217220D01*
X1909180Y1211580D01*
X1908820Y1205880D01*
X1909180Y1200160D01*
X1910260Y1194520D01*
X1912020Y1189080D01*
X1914460Y1183900D01*
X1917540Y1179060D01*
X1921180Y1174640D01*
X1925360Y1170720D01*
X1930000Y1167340D01*
X1935020Y1164580D01*
X1940340Y1162480D01*
X1945900Y1161060D01*
X1951579Y1160340D01*
X1957320Y1160340D01*
X1963000Y1161060D01*
X1968540Y1162480D01*
X1973880Y1164580D01*
X1978899Y1167340D01*
X1983440Y1170660D01*
X1985060Y1171340D01*
X1986800Y1171300D01*
X1988340Y1170500D01*
X1989420Y1169120D01*
X1989800Y1167420D01*
X1989800Y1144320D01*
X1989420Y1142620D01*
X1988340Y1141240D01*
X1986800Y1140440D01*
X1985060Y1140400D01*
X1983440Y1141080D01*
X1978899Y1144400D01*
X1973880Y1147160D01*
X1968540Y1149260D01*
X1963000Y1150680D01*
X1957320Y1151400D01*
X1951579Y1151400D01*
X1945900Y1150680D01*
X1940340Y1149260D01*
X1935020Y1147160D01*
X1930000Y1144400D01*
X1925360Y1141020D01*
X1921180Y1137100D01*
X1917540Y1132680D01*
X1914460Y1127860D01*
X1912020Y1122660D01*
X1910260Y1117220D01*
X1909180Y1111580D01*
X1908820Y1105880D01*
X1909180Y1100160D01*
X1910260Y1094520D01*
X1912020Y1089080D01*
X1914460Y1083900D01*
X1917540Y1079060D01*
X1921180Y1074640D01*
X1925360Y1070720D01*
X1930000Y1067340D01*
X1935020Y1064580D01*
X1940340Y1062480D01*
X1945900Y1061060D01*
X1951579Y1060340D01*
X1957320Y1060340D01*
X1963000Y1061060D01*
X1968540Y1062480D01*
X1973880Y1064580D01*
X1978899Y1067340D01*
X1983440Y1070660D01*
X1985060Y1071340D01*
X1986800Y1071300D01*
X1988340Y1070500D01*
X1989420Y1069120D01*
X1989800Y1067420D01*
X1989800Y1045200D01*
X1990120Y1042039D01*
X1990980Y1039200D01*
X1992380Y1036560D01*
X1994400Y1034120D01*
X2578039Y450460D01*
X2578900Y449159D01*
X2579220Y447640D01*
X2579220Y235219D01*
X2578900Y233660D01*
X2578000Y232360D01*
X2576680Y231500D01*
X2575160Y230900D01*
X2570200Y228160D01*
X2565600Y224840D01*
X2561460Y220940D01*
X2557840Y216580D01*
X2555860Y213440D01*
X2554760Y212280D01*
X2553280Y211660D01*
X2551680Y211660D01*
X2550220Y212280D01*
X2549100Y213440D01*
X2547120Y216580D01*
X2543500Y220940D01*
X2539360Y224840D01*
X2534760Y228160D01*
X2529800Y230900D01*
X2524520Y232979D01*
X2519020Y234400D01*
X2513400Y235120D01*
X2507720Y235120D01*
X2502080Y234400D01*
X2496580Y232979D01*
X2491320Y230900D01*
X2486340Y228160D01*
X2481740Y224840D01*
X2477600Y220940D01*
X2474000Y216580D01*
X2470960Y211780D01*
X2468540Y206640D01*
X2466780Y201240D01*
X2465720Y195680D01*
X2465360Y190000D01*
X2465720Y184340D01*
X2466780Y178780D01*
X2468540Y173380D01*
X2470960Y168240D01*
X2474000Y163440D01*
X2477600Y159080D01*
X2481740Y155180D01*
X2486340Y151860D01*
X2491320Y149120D01*
X2496580Y147020D01*
X2502080Y145620D01*
G37*
G36*
X2781500Y168820D02*
G01*
X2781500Y189300D01*
X2761060Y189300D01*
X2761900Y187520D01*
X2764940Y182740D01*
X2768560Y178359D01*
X2772700Y174480D01*
X2777280Y171140D01*
G37*
G36*
X2821500Y168820D02*
G01*
X2825720Y171140D01*
X2830299Y174480D01*
X2834440Y178359D01*
X2838060Y182740D01*
X2841100Y187520D01*
X2841940Y189300D01*
X2821500Y189300D01*
G37*
G36*
X1518120Y194020D02*
G01*
X1518120Y214500D01*
X1497680Y214500D01*
X1498520Y212719D01*
X1501560Y207940D01*
X1505160Y203560D01*
X1509300Y199680D01*
X1513899Y196340D01*
G37*
G36*
X1558120Y194020D02*
G01*
X1562320Y196340D01*
X1566920Y199680D01*
X1571060Y203560D01*
X1574680Y207940D01*
X1577720Y212719D01*
X1578540Y214500D01*
X1558120Y214500D01*
G37*
G36*
X1684880Y194120D02*
G01*
X1690560Y194120D01*
X1696180Y194840D01*
X1701680Y196240D01*
X1706960Y198340D01*
X1711940Y201060D01*
X1716519Y204400D01*
X1720660Y208280D01*
X1724280Y212659D01*
X1727320Y217460D01*
X1729740Y222580D01*
X1731500Y227979D01*
X1732560Y233560D01*
X1732920Y239220D01*
X1732560Y244880D01*
X1731500Y250460D01*
X1729740Y255859D01*
X1727320Y261000D01*
X1724280Y265780D01*
X1720660Y270160D01*
X1716519Y274040D01*
X1711940Y277380D01*
X1706960Y280120D01*
X1701680Y282200D01*
X1696180Y283620D01*
X1690560Y284320D01*
X1684880Y284320D01*
X1679240Y283620D01*
X1673760Y282200D01*
X1668480Y280120D01*
X1663500Y277380D01*
X1658920Y274040D01*
X1654780Y270160D01*
X1651160Y265780D01*
X1648120Y261000D01*
X1645700Y255859D01*
X1643940Y250460D01*
X1642880Y244880D01*
X1642520Y239220D01*
X1642880Y233560D01*
X1643940Y227979D01*
X1645700Y222580D01*
X1648120Y217460D01*
X1651160Y212659D01*
X1654780Y208280D01*
X1658920Y204400D01*
X1663500Y201060D01*
X1668480Y198340D01*
X1673760Y196240D01*
X1679240Y194840D01*
G37*
G36*
X3033080Y219220D02*
G01*
X3033080Y239700D01*
X3012640Y239700D01*
X3013480Y237920D01*
X3016520Y233140D01*
X3020120Y228760D01*
X3024260Y224880D01*
X3028860Y221540D01*
G37*
G36*
X3073080Y219220D02*
G01*
X3077280Y221540D01*
X3081880Y224880D01*
X3086019Y228760D01*
X3089640Y233140D01*
X3092679Y237920D01*
X3093500Y239700D01*
X3073080Y239700D01*
G37*
G36*
X2821500Y229300D02*
G01*
X2841940Y229300D01*
X2841100Y231080D01*
X2838060Y235859D01*
X2834440Y240240D01*
X2830299Y244120D01*
X2825720Y247460D01*
X2821500Y249780D01*
G37*
G36*
X2761060Y229300D02*
G01*
X2781500Y229300D01*
X2781500Y249780D01*
X2777280Y247460D01*
X2772700Y244120D01*
X2768560Y240240D01*
X2764940Y235859D01*
X2761900Y231080D01*
G37*
G36*
X1558120Y254500D02*
G01*
X1578540Y254500D01*
X1577720Y256260D01*
X1574680Y261060D01*
X1571060Y265440D01*
X1566920Y269320D01*
X1562320Y272660D01*
X1558120Y274980D01*
G37*
G36*
X1497680Y254500D02*
G01*
X1518120Y254500D01*
X1518120Y274980D01*
X1513899Y272660D01*
X1509300Y269320D01*
X1505160Y265440D01*
X1501560Y261060D01*
X1498520Y256260D01*
G37*
G36*
X3073080Y279700D02*
G01*
X3093500Y279700D01*
X3092679Y281460D01*
X3089640Y286260D01*
X3086019Y290640D01*
X3081880Y294520D01*
X3077280Y297860D01*
X3073080Y300160D01*
G37*
G36*
X3012640Y279700D02*
G01*
X3033080Y279700D01*
X3033080Y300160D01*
X3028860Y297860D01*
X3024260Y294520D01*
X3020120Y290640D01*
X3016520Y286260D01*
X3013480Y281460D01*
G37*
G36*
X3038020Y317340D02*
G01*
X3043700Y317340D01*
X3049320Y318040D01*
X3054820Y319460D01*
X3060100Y321540D01*
X3065080Y324280D01*
X3069660Y327620D01*
X3073800Y331500D01*
X3077420Y335880D01*
X3080460Y340660D01*
X3082880Y345800D01*
X3084640Y351200D01*
X3085700Y356780D01*
X3086060Y362440D01*
X3085700Y368100D01*
X3084640Y373680D01*
X3082880Y379080D01*
X3080460Y384219D01*
X3077420Y389000D01*
X3073800Y393380D01*
X3069660Y397260D01*
X3065080Y400600D01*
X3060100Y403340D01*
X3054820Y405420D01*
X3049320Y406840D01*
X3043700Y407540D01*
X3038020Y407540D01*
X3032380Y406840D01*
X3026900Y405420D01*
X3021620Y403340D01*
X3016640Y400600D01*
X3012060Y397260D01*
X3007919Y393380D01*
X3004300Y389000D01*
X3001259Y384219D01*
X2998840Y379080D01*
X2997080Y373680D01*
X2996019Y368100D01*
X2995659Y362440D01*
X2996019Y356780D01*
X2997080Y351200D01*
X2998840Y345800D01*
X3001259Y340660D01*
X3004300Y335880D01*
X3007919Y331500D01*
X3012060Y327620D01*
X3016640Y324280D01*
X3021620Y321540D01*
X3026900Y319460D01*
X3032380Y318040D01*
G37*
G36*
X1908500Y361440D02*
G01*
X1914180Y361440D01*
X1919800Y362160D01*
X1925300Y363560D01*
X1930580Y365660D01*
X1935560Y368380D01*
X1940140Y371719D01*
X1944280Y375600D01*
X1947900Y379980D01*
X1950940Y384780D01*
X1953360Y389900D01*
X1955120Y395300D01*
X1956180Y400880D01*
X1956540Y406540D01*
X1956180Y412200D01*
X1955120Y417780D01*
X1953360Y423180D01*
X1950940Y428320D01*
X1947900Y433100D01*
X1944280Y437480D01*
X1940140Y441360D01*
X1935560Y444700D01*
X1930580Y447440D01*
X1925300Y449520D01*
X1919800Y450940D01*
X1914180Y451640D01*
X1908500Y451640D01*
X1902880Y450940D01*
X1897380Y449520D01*
X1892100Y447440D01*
X1887120Y444700D01*
X1882540Y441360D01*
X1879120Y438160D01*
X1877780Y437320D01*
X1876220Y437080D01*
X1874680Y437460D01*
X1873400Y438400D01*
X1872600Y439760D01*
X1872380Y441320D01*
X1872680Y445920D01*
X1872320Y451580D01*
X1871260Y457160D01*
X1869500Y462560D01*
X1867080Y467680D01*
X1864040Y472480D01*
X1860420Y476860D01*
X1856279Y480740D01*
X1851699Y484080D01*
X1846720Y486800D01*
X1841440Y488900D01*
X1835960Y490300D01*
X1830320Y491019D01*
X1824640Y491019D01*
X1819019Y490300D01*
X1813520Y488900D01*
X1808240Y486800D01*
X1803260Y484080D01*
X1798680Y480740D01*
X1794540Y476860D01*
X1790920Y472480D01*
X1787880Y467680D01*
X1785460Y462560D01*
X1783720Y457160D01*
X1782640Y451580D01*
X1782300Y445920D01*
X1782640Y440260D01*
X1783720Y434680D01*
X1785460Y429280D01*
X1787880Y424140D01*
X1790920Y419360D01*
X1794540Y414980D01*
X1798680Y411100D01*
X1803260Y407760D01*
X1808240Y405020D01*
X1813520Y402939D01*
X1819019Y401520D01*
X1824640Y400820D01*
X1830320Y400820D01*
X1835960Y401520D01*
X1841440Y402939D01*
X1846720Y405020D01*
X1851699Y407760D01*
X1856279Y411100D01*
X1859700Y414300D01*
X1861060Y415140D01*
X1862620Y415379D01*
X1864139Y415000D01*
X1865420Y414060D01*
X1866220Y412700D01*
X1866440Y411140D01*
X1866140Y406540D01*
X1866500Y400880D01*
X1867560Y395300D01*
X1869319Y389900D01*
X1871740Y384780D01*
X1874780Y379980D01*
X1878400Y375600D01*
X1882540Y371719D01*
X1887120Y368380D01*
X1892100Y365660D01*
X1897380Y363560D01*
X1902880Y362160D01*
G37*
G36*
X3276620Y415780D02*
G01*
X3282280Y415780D01*
X3287919Y416480D01*
X3293420Y417900D01*
X3298700Y419980D01*
X3303660Y422720D01*
X3308260Y426060D01*
X3312400Y429940D01*
X3316019Y434320D01*
X3319060Y439099D01*
X3321460Y444240D01*
X3323220Y449640D01*
X3324280Y455220D01*
X3324640Y460880D01*
X3324280Y466540D01*
X3323220Y472120D01*
X3321460Y477520D01*
X3319060Y482640D01*
X3316019Y487440D01*
X3312400Y491820D01*
X3308260Y495700D01*
X3303660Y499040D01*
X3298700Y501760D01*
X3293420Y503860D01*
X3287919Y505260D01*
X3282280Y505980D01*
X3276620Y505980D01*
X3270980Y505260D01*
X3265480Y503860D01*
X3260200Y501760D01*
X3255240Y499040D01*
X3250640Y495700D01*
X3246500Y491820D01*
X3242880Y487440D01*
X3239840Y482640D01*
X3237440Y477520D01*
X3235680Y472120D01*
X3234620Y466540D01*
X3234260Y460880D01*
X3234620Y455220D01*
X3235680Y449640D01*
X3237440Y444240D01*
X3239840Y439099D01*
X3242880Y434320D01*
X3246500Y429940D01*
X3250640Y426060D01*
X3255240Y422720D01*
X3260200Y419980D01*
X3265480Y417900D01*
X3270980Y416480D01*
G37*
G36*
X3122160Y509900D02*
G01*
X3127840Y509900D01*
X3133460Y510600D01*
X3138960Y512020D01*
X3144240Y514099D01*
X3149220Y516840D01*
X3153800Y520180D01*
X3157940Y524060D01*
X3161560Y528440D01*
X3164600Y533220D01*
X3167020Y538360D01*
X3168780Y543760D01*
X3169840Y549340D01*
X3170200Y555000D01*
X3169840Y560660D01*
X3168780Y566240D01*
X3167020Y571640D01*
X3164600Y576760D01*
X3161560Y581560D01*
X3157940Y585940D01*
X3153800Y589820D01*
X3149220Y593160D01*
X3144240Y595880D01*
X3138960Y597980D01*
X3133460Y599380D01*
X3127840Y600100D01*
X3122160Y600100D01*
X3116540Y599380D01*
X3111040Y597980D01*
X3105760Y595880D01*
X3100779Y593160D01*
X3096200Y589820D01*
X3092060Y585940D01*
X3088440Y581560D01*
X3085400Y576760D01*
X3082980Y571640D01*
X3081220Y566240D01*
X3080160Y560660D01*
X3079800Y555000D01*
X3080160Y549340D01*
X3081220Y543760D01*
X3082980Y538360D01*
X3085400Y533220D01*
X3088440Y528440D01*
X3092060Y524060D01*
X3096200Y520180D01*
X3100779Y516840D01*
X3105760Y514099D01*
X3111040Y512020D01*
X3116540Y510600D01*
G37*
G36*
X3231340Y816560D02*
G01*
X3237020Y816560D01*
X3242640Y817280D01*
X3248140Y818680D01*
X3253420Y820780D01*
X3258399Y823500D01*
X3262980Y826840D01*
X3267120Y830720D01*
X3270740Y835100D01*
X3273780Y839900D01*
X3276200Y845020D01*
X3277940Y850420D01*
X3279020Y856000D01*
X3279360Y861660D01*
X3279020Y867320D01*
X3277940Y872900D01*
X3276200Y878300D01*
X3273780Y883439D01*
X3270740Y888220D01*
X3267120Y892600D01*
X3262980Y896480D01*
X3258399Y899820D01*
X3253420Y902560D01*
X3248140Y904640D01*
X3242640Y906060D01*
X3237020Y906760D01*
X3231340Y906760D01*
X3225700Y906060D01*
X3220220Y904640D01*
X3214940Y902560D01*
X3209960Y899820D01*
X3205360Y896480D01*
X3201240Y892600D01*
X3197620Y888220D01*
X3194580Y883439D01*
X3192160Y878300D01*
X3190400Y872900D01*
X3189340Y867320D01*
X3188980Y861660D01*
X3189340Y856000D01*
X3190400Y850420D01*
X3192160Y845020D01*
X3194580Y839900D01*
X3197620Y835100D01*
X3201240Y830720D01*
X3205360Y826840D01*
X3209960Y823500D01*
X3214940Y820780D01*
X3220220Y818680D01*
X3225700Y817280D01*
G37*
G36*
X3149840Y962620D02*
G01*
X3155520Y962620D01*
X3161139Y963340D01*
X3166640Y964740D01*
X3171920Y966840D01*
X3176900Y969560D01*
X3181480Y972900D01*
X3185620Y976780D01*
X3189240Y981160D01*
X3192280Y985960D01*
X3194700Y991080D01*
X3196460Y996480D01*
X3197520Y1002060D01*
X3197880Y1007720D01*
X3197520Y1013400D01*
X3196460Y1018960D01*
X3194700Y1024360D01*
X3192280Y1029500D01*
X3189240Y1034280D01*
X3185620Y1038660D01*
X3181480Y1042540D01*
X3176900Y1045879D01*
X3171920Y1048620D01*
X3166640Y1050700D01*
X3161139Y1052120D01*
X3155520Y1052820D01*
X3149840Y1052820D01*
X3144220Y1052120D01*
X3138720Y1050700D01*
X3133440Y1048620D01*
X3128460Y1045879D01*
X3123880Y1042540D01*
X3119740Y1038660D01*
X3116120Y1034280D01*
X3113080Y1029500D01*
X3110659Y1024360D01*
X3108900Y1018960D01*
X3107840Y1013400D01*
X3107480Y1007720D01*
X3107840Y1002060D01*
X3108900Y996480D01*
X3110659Y991080D01*
X3113080Y985960D01*
X3116120Y981160D01*
X3119740Y976780D01*
X3123880Y972900D01*
X3128460Y969560D01*
X3133440Y966840D01*
X3138720Y964740D01*
X3144220Y963340D01*
G37*
G36*
X1300060Y965240D02*
G01*
X1317020Y965240D01*
X1319520Y965520D01*
X1321660Y966280D01*
X1323600Y967480D01*
X1325200Y969100D01*
X1326420Y971020D01*
X1327160Y973180D01*
X1327440Y975660D01*
X1327440Y992620D01*
X1300060Y992620D01*
G37*
G36*
X1238740Y965240D02*
G01*
X1255700Y965240D01*
X1255700Y992620D01*
X1228300Y992620D01*
X1228300Y975660D01*
X1228580Y973180D01*
X1229340Y971020D01*
X1230560Y969100D01*
X1232160Y967480D01*
X1234100Y966280D01*
X1236240Y965520D01*
G37*
G36*
X1061940Y1032580D02*
G01*
X1071860Y1033160D01*
X1081720Y1034520D01*
X1091460Y1036620D01*
X1100980Y1039479D01*
X1110260Y1043060D01*
X1119240Y1047340D01*
X1127860Y1052320D01*
X1136060Y1057960D01*
X1143820Y1064200D01*
X1151060Y1071020D01*
X1157740Y1078400D01*
X1163840Y1086260D01*
X1169300Y1094580D01*
X1174100Y1103280D01*
X1178220Y1112340D01*
X1181620Y1121700D01*
X1184300Y1131280D01*
X1186220Y1141040D01*
X1187360Y1150920D01*
X1187760Y1160880D01*
X1187360Y1170820D01*
X1186220Y1180700D01*
X1184300Y1190460D01*
X1181620Y1200040D01*
X1178220Y1209400D01*
X1174100Y1218460D01*
X1169300Y1227160D01*
X1163840Y1235480D01*
X1157740Y1243340D01*
X1151060Y1250720D01*
X1143820Y1257540D01*
X1136060Y1263780D01*
X1127860Y1269420D01*
X1119240Y1274400D01*
X1110260Y1278680D01*
X1100980Y1282260D01*
X1091460Y1285120D01*
X1081720Y1287220D01*
X1071860Y1288580D01*
X1061940Y1289160D01*
X1051980Y1288959D01*
X1042080Y1288000D01*
X1032280Y1286260D01*
X1022640Y1283779D01*
X1013240Y1280560D01*
X1004100Y1276620D01*
X995300Y1271980D01*
X986880Y1266680D01*
X978900Y1260740D01*
X971400Y1254200D01*
X964440Y1247100D01*
X958040Y1239480D01*
X952240Y1231380D01*
X947099Y1222860D01*
X942640Y1213960D01*
X938880Y1204760D01*
X935840Y1195280D01*
X933540Y1185600D01*
X932000Y1175760D01*
X931240Y1165840D01*
X931240Y1155900D01*
X932000Y1145980D01*
X933540Y1136140D01*
X935840Y1126460D01*
X938880Y1116980D01*
X942640Y1107780D01*
X947099Y1098880D01*
X952240Y1090360D01*
X958040Y1082280D01*
X964440Y1074640D01*
X971400Y1067540D01*
X978900Y1061000D01*
X986880Y1055060D01*
X995300Y1049760D01*
X1004100Y1045120D01*
X1013240Y1041180D01*
X1022640Y1037960D01*
X1032280Y1035480D01*
X1042080Y1033740D01*
X1051980Y1032780D01*
G37*
G36*
X3346900Y1034460D02*
G01*
X3356840Y1035040D01*
X3366700Y1036400D01*
X3376420Y1038500D01*
X3385960Y1041360D01*
X3395240Y1044940D01*
X3404220Y1049220D01*
X3412840Y1054200D01*
X3421040Y1059840D01*
X3428780Y1066080D01*
X3436019Y1072900D01*
X3442700Y1080280D01*
X3448800Y1088140D01*
X3454280Y1096460D01*
X3459080Y1105160D01*
X3463200Y1114220D01*
X3466600Y1123580D01*
X3469260Y1133160D01*
X3471180Y1142920D01*
X3472340Y1152800D01*
X3472720Y1162760D01*
X3472340Y1172700D01*
X3471180Y1182580D01*
X3469260Y1192340D01*
X3466600Y1201920D01*
X3463200Y1211280D01*
X3459080Y1220340D01*
X3454280Y1229040D01*
X3448800Y1237360D01*
X3442700Y1245220D01*
X3436019Y1252600D01*
X3428780Y1259420D01*
X3421040Y1265660D01*
X3412840Y1271300D01*
X3404220Y1276280D01*
X3395240Y1280560D01*
X3385960Y1284139D01*
X3376420Y1287000D01*
X3366700Y1289100D01*
X3356840Y1290460D01*
X3346900Y1291040D01*
X3336960Y1290840D01*
X3327060Y1289880D01*
X3317260Y1288140D01*
X3307620Y1285660D01*
X3298200Y1282440D01*
X3289060Y1278500D01*
X3280260Y1273860D01*
X3271840Y1268560D01*
X3263860Y1262620D01*
X3256360Y1256080D01*
X3249400Y1248980D01*
X3243000Y1241360D01*
X3237220Y1233260D01*
X3232080Y1224740D01*
X3227620Y1215840D01*
X3223840Y1206640D01*
X3220820Y1197160D01*
X3218519Y1187480D01*
X3216980Y1177640D01*
X3216200Y1167720D01*
X3216200Y1157780D01*
X3216980Y1147860D01*
X3218519Y1138020D01*
X3220820Y1128340D01*
X3223840Y1118860D01*
X3227620Y1109660D01*
X3232080Y1100760D01*
X3237220Y1092240D01*
X3243000Y1084160D01*
X3249400Y1076520D01*
X3256360Y1069420D01*
X3263860Y1062880D01*
X3271840Y1056940D01*
X3280260Y1051640D01*
X3289060Y1047000D01*
X3298200Y1043060D01*
X3307620Y1039840D01*
X3317260Y1037360D01*
X3327060Y1035620D01*
X3336960Y1034659D01*
G37*
G36*
X2651580Y1060340D02*
G01*
X2657320Y1060340D01*
X2663000Y1061060D01*
X2668540Y1062480D01*
X2673880Y1064580D01*
X2678900Y1067340D01*
X2683540Y1070720D01*
X2687700Y1074640D01*
X2691360Y1079060D01*
X2694420Y1083900D01*
X2696860Y1089080D01*
X2698639Y1094520D01*
X2699720Y1100160D01*
X2700080Y1105880D01*
X2699720Y1111580D01*
X2698639Y1117220D01*
X2696860Y1122660D01*
X2694420Y1127860D01*
X2691360Y1132680D01*
X2687700Y1137100D01*
X2683540Y1141020D01*
X2678900Y1144400D01*
X2673880Y1147160D01*
X2668540Y1149260D01*
X2663000Y1150680D01*
X2657320Y1151400D01*
X2651580Y1151400D01*
X2645899Y1150680D01*
X2640340Y1149260D01*
X2635020Y1147160D01*
X2630000Y1144400D01*
X2625360Y1141020D01*
X2621180Y1137100D01*
X2617540Y1132680D01*
X2614460Y1127860D01*
X2612020Y1122660D01*
X2610260Y1117220D01*
X2609180Y1111580D01*
X2608820Y1105880D01*
X2609180Y1100160D01*
X2610260Y1094520D01*
X2612020Y1089080D01*
X2614460Y1083900D01*
X2617540Y1079060D01*
X2621180Y1074640D01*
X2625360Y1070720D01*
X2630000Y1067340D01*
X2635020Y1064580D01*
X2640340Y1062480D01*
X2645899Y1061060D01*
G37*
G36*
X2951580Y1060340D02*
G01*
X2957320Y1060340D01*
X2963000Y1061060D01*
X2968540Y1062480D01*
X2973880Y1064580D01*
X2978900Y1067340D01*
X2983540Y1070720D01*
X2987700Y1074640D01*
X2991360Y1079060D01*
X2994420Y1083900D01*
X2996860Y1089080D01*
X2998639Y1094520D01*
X2999720Y1100160D01*
X3000080Y1105880D01*
X2999720Y1111580D01*
X2998639Y1117220D01*
X2996860Y1122660D01*
X2994420Y1127860D01*
X2991360Y1132680D01*
X2987700Y1137100D01*
X2983540Y1141020D01*
X2978900Y1144400D01*
X2973880Y1147160D01*
X2968540Y1149260D01*
X2963000Y1150680D01*
X2957320Y1151400D01*
X2951580Y1151400D01*
X2945899Y1150680D01*
X2940340Y1149260D01*
X2935020Y1147160D01*
X2930000Y1144400D01*
X2925360Y1141020D01*
X2921180Y1137100D01*
X2917540Y1132680D01*
X2914460Y1127860D01*
X2912020Y1122660D01*
X2910260Y1117220D01*
X2909180Y1111580D01*
X2908820Y1105880D01*
X2909180Y1100160D01*
X2910260Y1094520D01*
X2912020Y1089080D01*
X2914460Y1083900D01*
X2917540Y1079060D01*
X2921180Y1074640D01*
X2925360Y1070720D01*
X2930000Y1067340D01*
X2935020Y1064580D01*
X2940340Y1062480D01*
X2945899Y1061060D01*
G37*
G36*
X2751580Y1060340D02*
G01*
X2757320Y1060340D01*
X2763000Y1061060D01*
X2768540Y1062480D01*
X2773880Y1064580D01*
X2778900Y1067340D01*
X2783540Y1070720D01*
X2787700Y1074640D01*
X2791360Y1079060D01*
X2794420Y1083900D01*
X2796860Y1089080D01*
X2798639Y1094520D01*
X2799720Y1100160D01*
X2800080Y1105880D01*
X2799720Y1111580D01*
X2798639Y1117220D01*
X2796860Y1122660D01*
X2794420Y1127860D01*
X2791360Y1132680D01*
X2787700Y1137100D01*
X2783540Y1141020D01*
X2778900Y1144400D01*
X2773880Y1147160D01*
X2768540Y1149260D01*
X2763000Y1150680D01*
X2757320Y1151400D01*
X2751580Y1151400D01*
X2745899Y1150680D01*
X2740340Y1149260D01*
X2735020Y1147160D01*
X2730000Y1144400D01*
X2725360Y1141020D01*
X2721180Y1137100D01*
X2717540Y1132680D01*
X2714460Y1127860D01*
X2712020Y1122660D01*
X2710260Y1117220D01*
X2709180Y1111580D01*
X2708820Y1105880D01*
X2709180Y1100160D01*
X2710260Y1094520D01*
X2712020Y1089080D01*
X2714460Y1083900D01*
X2717540Y1079060D01*
X2721180Y1074640D01*
X2725360Y1070720D01*
X2730000Y1067340D01*
X2735020Y1064580D01*
X2740340Y1062480D01*
X2745899Y1061060D01*
G37*
G36*
X3051580Y1060340D02*
G01*
X3057320Y1060340D01*
X3063000Y1061060D01*
X3068540Y1062480D01*
X3073880Y1064580D01*
X3078900Y1067340D01*
X3083540Y1070720D01*
X3087700Y1074640D01*
X3091360Y1079060D01*
X3094420Y1083900D01*
X3096860Y1089080D01*
X3098639Y1094520D01*
X3099720Y1100160D01*
X3100080Y1105880D01*
X3099720Y1111580D01*
X3098639Y1117220D01*
X3096860Y1122660D01*
X3094420Y1127860D01*
X3091360Y1132680D01*
X3087700Y1137100D01*
X3083540Y1141020D01*
X3078900Y1144400D01*
X3073880Y1147160D01*
X3068540Y1149260D01*
X3063000Y1150680D01*
X3057320Y1151400D01*
X3051580Y1151400D01*
X3045899Y1150680D01*
X3040340Y1149260D01*
X3035020Y1147160D01*
X3030000Y1144400D01*
X3025360Y1141020D01*
X3021180Y1137100D01*
X3017540Y1132680D01*
X3014460Y1127860D01*
X3012020Y1122660D01*
X3010260Y1117220D01*
X3009180Y1111580D01*
X3008820Y1105880D01*
X3009180Y1100160D01*
X3010260Y1094520D01*
X3012020Y1089080D01*
X3014460Y1083900D01*
X3017540Y1079060D01*
X3021180Y1074640D01*
X3025360Y1070720D01*
X3030000Y1067340D01*
X3035020Y1064580D01*
X3040340Y1062480D01*
X3045899Y1061060D01*
G37*
G36*
X2851580Y1060340D02*
G01*
X2857320Y1060340D01*
X2863000Y1061060D01*
X2868540Y1062480D01*
X2873880Y1064580D01*
X2878900Y1067340D01*
X2883540Y1070720D01*
X2887700Y1074640D01*
X2891360Y1079060D01*
X2894420Y1083900D01*
X2896860Y1089080D01*
X2898639Y1094520D01*
X2899720Y1100160D01*
X2900080Y1105880D01*
X2899720Y1111580D01*
X2898639Y1117220D01*
X2896860Y1122660D01*
X2894420Y1127860D01*
X2891360Y1132680D01*
X2887700Y1137100D01*
X2883540Y1141020D01*
X2878900Y1144400D01*
X2873880Y1147160D01*
X2868540Y1149260D01*
X2863000Y1150680D01*
X2857320Y1151400D01*
X2851580Y1151400D01*
X2845899Y1150680D01*
X2840340Y1149260D01*
X2835020Y1147160D01*
X2830000Y1144400D01*
X2825360Y1141020D01*
X2821180Y1137100D01*
X2817540Y1132680D01*
X2814460Y1127860D01*
X2812020Y1122660D01*
X2810260Y1117220D01*
X2809180Y1111580D01*
X2808820Y1105880D01*
X2809180Y1100160D01*
X2810260Y1094520D01*
X2812020Y1089080D01*
X2814460Y1083900D01*
X2817540Y1079060D01*
X2821180Y1074640D01*
X2825360Y1070720D01*
X2830000Y1067340D01*
X2835020Y1064580D01*
X2840340Y1062480D01*
X2845899Y1061060D01*
G37*
G36*
X2551580Y1060340D02*
G01*
X2557320Y1060340D01*
X2563000Y1061060D01*
X2568540Y1062480D01*
X2573880Y1064580D01*
X2578900Y1067340D01*
X2583540Y1070720D01*
X2587700Y1074640D01*
X2591360Y1079060D01*
X2594420Y1083900D01*
X2596860Y1089080D01*
X2598639Y1094520D01*
X2599720Y1100160D01*
X2600080Y1105880D01*
X2599720Y1111580D01*
X2598639Y1117220D01*
X2596860Y1122660D01*
X2594420Y1127860D01*
X2591360Y1132680D01*
X2587700Y1137100D01*
X2583540Y1141020D01*
X2578900Y1144400D01*
X2573880Y1147160D01*
X2568540Y1149260D01*
X2563000Y1150680D01*
X2557320Y1151400D01*
X2551580Y1151400D01*
X2545900Y1150680D01*
X2540340Y1149260D01*
X2535020Y1147160D01*
X2530000Y1144400D01*
X2525360Y1141020D01*
X2521180Y1137100D01*
X2517540Y1132680D01*
X2514460Y1127860D01*
X2512020Y1122660D01*
X2510260Y1117220D01*
X2509180Y1111580D01*
X2508820Y1105880D01*
X2509180Y1100160D01*
X2510260Y1094520D01*
X2512020Y1089080D01*
X2514460Y1083900D01*
X2517540Y1079060D01*
X2521180Y1074640D01*
X2525360Y1070720D01*
X2530000Y1067340D01*
X2535020Y1064580D01*
X2540340Y1062480D01*
X2545900Y1061060D01*
G37*
G36*
X1851579Y1060340D02*
G01*
X1857320Y1060340D01*
X1863000Y1061060D01*
X1868540Y1062480D01*
X1873880Y1064580D01*
X1878899Y1067340D01*
X1883540Y1070720D01*
X1887700Y1074640D01*
X1891360Y1079060D01*
X1894420Y1083900D01*
X1896860Y1089080D01*
X1898640Y1094520D01*
X1899720Y1100160D01*
X1900080Y1105880D01*
X1899720Y1111580D01*
X1898640Y1117220D01*
X1896860Y1122660D01*
X1894420Y1127860D01*
X1891360Y1132680D01*
X1887700Y1137100D01*
X1883540Y1141020D01*
X1878899Y1144400D01*
X1873880Y1147160D01*
X1868540Y1149260D01*
X1863000Y1150680D01*
X1857320Y1151400D01*
X1851579Y1151400D01*
X1845900Y1150680D01*
X1840340Y1149260D01*
X1835020Y1147160D01*
X1830000Y1144400D01*
X1825360Y1141020D01*
X1821180Y1137100D01*
X1817540Y1132680D01*
X1814460Y1127860D01*
X1812020Y1122660D01*
X1810260Y1117220D01*
X1809180Y1111580D01*
X1808820Y1105880D01*
X1809180Y1100160D01*
X1810260Y1094520D01*
X1812020Y1089080D01*
X1814460Y1083900D01*
X1817540Y1079060D01*
X1821180Y1074640D01*
X1825360Y1070720D01*
X1830000Y1067340D01*
X1835020Y1064580D01*
X1840340Y1062480D01*
X1845900Y1061060D01*
G37*
G36*
X2434240Y1065020D02*
G01*
X2434240Y1085660D01*
X2413640Y1085660D01*
X2414460Y1083900D01*
X2417540Y1079060D01*
X2421180Y1074640D01*
X2425360Y1070720D01*
X2430000Y1067340D01*
G37*
G36*
X3134240Y1065020D02*
G01*
X3134240Y1085660D01*
X3113639Y1085660D01*
X3114460Y1083900D01*
X3117540Y1079060D01*
X3121180Y1074640D01*
X3125360Y1070720D01*
X3130000Y1067340D01*
G37*
G36*
X3174660Y1065020D02*
G01*
X3178900Y1067340D01*
X3183540Y1070720D01*
X3187700Y1074640D01*
X3191360Y1079060D01*
X3194420Y1083900D01*
X3195260Y1085660D01*
X3174660Y1085660D01*
G37*
G36*
X1634240Y1065020D02*
G01*
X1634240Y1085660D01*
X1613640Y1085660D01*
X1614460Y1083900D01*
X1617540Y1079060D01*
X1621180Y1074640D01*
X1625360Y1070720D01*
X1630000Y1067340D01*
G37*
G36*
X2474660Y1065020D02*
G01*
X2478900Y1067340D01*
X2483540Y1070720D01*
X2487700Y1074640D01*
X2491360Y1079060D01*
X2494420Y1083900D01*
X2495260Y1085660D01*
X2474660Y1085660D01*
G37*
G36*
X3113639Y1126080D02*
G01*
X3134240Y1126080D01*
X3134240Y1146720D01*
X3130000Y1144400D01*
X3125360Y1141020D01*
X3121180Y1137100D01*
X3117540Y1132680D01*
X3114460Y1127860D01*
G37*
G36*
X3174660Y1126080D02*
G01*
X3195260Y1126080D01*
X3194420Y1127860D01*
X3191360Y1132680D01*
X3187700Y1137100D01*
X3183540Y1141020D01*
X3178900Y1144400D01*
X3174660Y1146720D01*
G37*
G36*
X2474660Y1126080D02*
G01*
X2495260Y1126080D01*
X2494420Y1127860D01*
X2491360Y1132680D01*
X2487700Y1137100D01*
X2483540Y1141020D01*
X2478900Y1144400D01*
X2474660Y1146720D01*
G37*
G36*
X2413640Y1126080D02*
G01*
X2434240Y1126080D01*
X2434240Y1146720D01*
X2430000Y1144400D01*
X2425360Y1141020D01*
X2421180Y1137100D01*
X2417540Y1132680D01*
X2414460Y1127860D01*
G37*
G36*
X1613640Y1126080D02*
G01*
X1634240Y1126080D01*
X1634240Y1146720D01*
X1630000Y1144400D01*
X1625360Y1141020D01*
X1621180Y1137100D01*
X1617540Y1132680D01*
X1614460Y1127860D01*
G37*
G36*
X2751580Y1160340D02*
G01*
X2757320Y1160340D01*
X2763000Y1161060D01*
X2768540Y1162480D01*
X2773880Y1164580D01*
X2778900Y1167340D01*
X2783540Y1170720D01*
X2787700Y1174640D01*
X2791360Y1179060D01*
X2794420Y1183900D01*
X2796860Y1189080D01*
X2798639Y1194520D01*
X2799720Y1200160D01*
X2800080Y1205880D01*
X2799720Y1211580D01*
X2798639Y1217220D01*
X2796860Y1222660D01*
X2794420Y1227860D01*
X2791360Y1232680D01*
X2787700Y1237100D01*
X2783540Y1241020D01*
X2778900Y1244400D01*
X2773880Y1247160D01*
X2768540Y1249260D01*
X2763000Y1250680D01*
X2757320Y1251400D01*
X2751580Y1251400D01*
X2745899Y1250680D01*
X2740340Y1249260D01*
X2735020Y1247160D01*
X2730000Y1244400D01*
X2725360Y1241020D01*
X2721180Y1237100D01*
X2717540Y1232680D01*
X2714460Y1227860D01*
X2712020Y1222660D01*
X2710260Y1217220D01*
X2709180Y1211580D01*
X2708820Y1205880D01*
X2709180Y1200160D01*
X2710260Y1194520D01*
X2712020Y1189080D01*
X2714460Y1183900D01*
X2717540Y1179060D01*
X2721180Y1174640D01*
X2725360Y1170720D01*
X2730000Y1167340D01*
X2735020Y1164580D01*
X2740340Y1162480D01*
X2745899Y1161060D01*
G37*
G36*
X3051580Y1160340D02*
G01*
X3057320Y1160340D01*
X3063000Y1161060D01*
X3068540Y1162480D01*
X3073880Y1164580D01*
X3078900Y1167340D01*
X3083540Y1170720D01*
X3087700Y1174640D01*
X3091360Y1179060D01*
X3094420Y1183900D01*
X3096860Y1189080D01*
X3098639Y1194520D01*
X3099720Y1200160D01*
X3100080Y1205880D01*
X3099720Y1211580D01*
X3098639Y1217220D01*
X3096860Y1222660D01*
X3094420Y1227860D01*
X3091360Y1232680D01*
X3087700Y1237100D01*
X3083540Y1241020D01*
X3078900Y1244400D01*
X3073880Y1247160D01*
X3068540Y1249260D01*
X3063000Y1250680D01*
X3057320Y1251400D01*
X3051580Y1251400D01*
X3045899Y1250680D01*
X3040340Y1249260D01*
X3035020Y1247160D01*
X3030000Y1244400D01*
X3025360Y1241020D01*
X3021180Y1237100D01*
X3017540Y1232680D01*
X3014460Y1227860D01*
X3012020Y1222660D01*
X3010260Y1217220D01*
X3009180Y1211580D01*
X3008820Y1205880D01*
X3009180Y1200160D01*
X3010260Y1194520D01*
X3012020Y1189080D01*
X3014460Y1183900D01*
X3017540Y1179060D01*
X3021180Y1174640D01*
X3025360Y1170720D01*
X3030000Y1167340D01*
X3035020Y1164580D01*
X3040340Y1162480D01*
X3045899Y1161060D01*
G37*
G36*
X2951580Y1160340D02*
G01*
X2957320Y1160340D01*
X2963000Y1161060D01*
X2968540Y1162480D01*
X2973880Y1164580D01*
X2978900Y1167340D01*
X2983540Y1170720D01*
X2987700Y1174640D01*
X2991360Y1179060D01*
X2994420Y1183900D01*
X2996860Y1189080D01*
X2998639Y1194520D01*
X2999720Y1200160D01*
X3000080Y1205880D01*
X2999720Y1211580D01*
X2998639Y1217220D01*
X2996860Y1222660D01*
X2994420Y1227860D01*
X2991360Y1232680D01*
X2987700Y1237100D01*
X2983540Y1241020D01*
X2978900Y1244400D01*
X2973880Y1247160D01*
X2968540Y1249260D01*
X2963000Y1250680D01*
X2957320Y1251400D01*
X2951580Y1251400D01*
X2945899Y1250680D01*
X2940340Y1249260D01*
X2935020Y1247160D01*
X2930000Y1244400D01*
X2925360Y1241020D01*
X2921180Y1237100D01*
X2917540Y1232680D01*
X2914460Y1227860D01*
X2912020Y1222660D01*
X2910260Y1217220D01*
X2909180Y1211580D01*
X2908820Y1205880D01*
X2909180Y1200160D01*
X2910260Y1194520D01*
X2912020Y1189080D01*
X2914460Y1183900D01*
X2917540Y1179060D01*
X2921180Y1174640D01*
X2925360Y1170720D01*
X2930000Y1167340D01*
X2935020Y1164580D01*
X2940340Y1162480D01*
X2945899Y1161060D01*
G37*
G36*
X3151580Y1160340D02*
G01*
X3157320Y1160340D01*
X3163000Y1161060D01*
X3168540Y1162480D01*
X3173880Y1164580D01*
X3178900Y1167340D01*
X3183540Y1170720D01*
X3187700Y1174640D01*
X3191360Y1179060D01*
X3194420Y1183900D01*
X3196860Y1189080D01*
X3198639Y1194520D01*
X3199720Y1200160D01*
X3200080Y1205880D01*
X3199720Y1211580D01*
X3198639Y1217220D01*
X3196860Y1222660D01*
X3194420Y1227860D01*
X3191360Y1232680D01*
X3187700Y1237100D01*
X3183540Y1241020D01*
X3178900Y1244400D01*
X3173880Y1247160D01*
X3168540Y1249260D01*
X3163000Y1250680D01*
X3157320Y1251400D01*
X3151580Y1251400D01*
X3145899Y1250680D01*
X3140340Y1249260D01*
X3135020Y1247160D01*
X3130000Y1244400D01*
X3125360Y1241020D01*
X3121180Y1237100D01*
X3117540Y1232680D01*
X3114460Y1227860D01*
X3112020Y1222660D01*
X3110260Y1217220D01*
X3109180Y1211580D01*
X3108820Y1205880D01*
X3109180Y1200160D01*
X3110260Y1194520D01*
X3112020Y1189080D01*
X3114460Y1183900D01*
X3117540Y1179060D01*
X3121180Y1174640D01*
X3125360Y1170720D01*
X3130000Y1167340D01*
X3135020Y1164580D01*
X3140340Y1162480D01*
X3145899Y1161060D01*
G37*
G36*
X2551580Y1160340D02*
G01*
X2557320Y1160340D01*
X2563000Y1161060D01*
X2568540Y1162480D01*
X2573880Y1164580D01*
X2578900Y1167340D01*
X2583540Y1170720D01*
X2587700Y1174640D01*
X2591360Y1179060D01*
X2594420Y1183900D01*
X2596860Y1189080D01*
X2598639Y1194520D01*
X2599720Y1200160D01*
X2600080Y1205880D01*
X2599720Y1211580D01*
X2598639Y1217220D01*
X2596860Y1222660D01*
X2594420Y1227860D01*
X2591360Y1232680D01*
X2587700Y1237100D01*
X2583540Y1241020D01*
X2578900Y1244400D01*
X2573880Y1247160D01*
X2568540Y1249260D01*
X2563000Y1250680D01*
X2557320Y1251400D01*
X2551580Y1251400D01*
X2545900Y1250680D01*
X2540340Y1249260D01*
X2535020Y1247160D01*
X2530000Y1244400D01*
X2525360Y1241020D01*
X2521180Y1237100D01*
X2517540Y1232680D01*
X2514460Y1227860D01*
X2512020Y1222660D01*
X2510260Y1217220D01*
X2509180Y1211580D01*
X2508820Y1205880D01*
X2509180Y1200160D01*
X2510260Y1194520D01*
X2512020Y1189080D01*
X2514460Y1183900D01*
X2517540Y1179060D01*
X2521180Y1174640D01*
X2525360Y1170720D01*
X2530000Y1167340D01*
X2535020Y1164580D01*
X2540340Y1162480D01*
X2545900Y1161060D01*
G37*
G36*
X2674660Y1165020D02*
G01*
X2678900Y1167340D01*
X2683540Y1170720D01*
X2687700Y1174640D01*
X2691360Y1179060D01*
X2694420Y1183900D01*
X2695260Y1185660D01*
X2674660Y1185660D01*
G37*
G36*
X2834240Y1165020D02*
G01*
X2834240Y1185660D01*
X2813639Y1185660D01*
X2814460Y1183900D01*
X2817540Y1179060D01*
X2821180Y1174640D01*
X2825360Y1170720D01*
X2830000Y1167340D01*
G37*
G36*
X2634240Y1165020D02*
G01*
X2634240Y1185660D01*
X2613639Y1185660D01*
X2614460Y1183900D01*
X2617540Y1179060D01*
X2621180Y1174640D01*
X2625360Y1170720D01*
X2630000Y1167340D01*
G37*
G36*
X2874660Y1165020D02*
G01*
X2878900Y1167340D01*
X2883540Y1170720D01*
X2887700Y1174640D01*
X2891360Y1179060D01*
X2894420Y1183900D01*
X2895260Y1185660D01*
X2874660Y1185660D01*
G37*
G36*
X1874660Y1165020D02*
G01*
X1878899Y1167340D01*
X1883540Y1170720D01*
X1887700Y1174640D01*
X1891360Y1179060D01*
X1894420Y1183900D01*
X1895260Y1185660D01*
X1874660Y1185660D01*
G37*
G36*
X1834240Y1165020D02*
G01*
X1834240Y1185660D01*
X1813640Y1185660D01*
X1814460Y1183900D01*
X1817540Y1179060D01*
X1821180Y1174640D01*
X1825360Y1170720D01*
X1830000Y1167340D01*
G37*
G36*
X2813639Y1226080D02*
G01*
X2834240Y1226080D01*
X2834240Y1246720D01*
X2830000Y1244400D01*
X2825360Y1241020D01*
X2821180Y1237100D01*
X2817540Y1232680D01*
X2814460Y1227860D01*
G37*
G36*
X2674660Y1226080D02*
G01*
X2695260Y1226080D01*
X2694420Y1227860D01*
X2691360Y1232680D01*
X2687700Y1237100D01*
X2683540Y1241020D01*
X2678900Y1244400D01*
X2674660Y1246720D01*
G37*
G36*
X2613639Y1226080D02*
G01*
X2634240Y1226080D01*
X2634240Y1246720D01*
X2630000Y1244400D01*
X2625360Y1241020D01*
X2621180Y1237100D01*
X2617540Y1232680D01*
X2614460Y1227860D01*
G37*
G36*
X1874660Y1226080D02*
G01*
X1895260Y1226080D01*
X1894420Y1227860D01*
X1891360Y1232680D01*
X1887700Y1237100D01*
X1883540Y1241020D01*
X1878899Y1244400D01*
X1874660Y1246720D01*
G37*
G36*
X2874660Y1226080D02*
G01*
X2895260Y1226080D01*
X2894420Y1227860D01*
X2891360Y1232680D01*
X2887700Y1237100D01*
X2883540Y1241020D01*
X2878900Y1244400D01*
X2874660Y1246720D01*
G37*
G36*
X1813640Y1226080D02*
G01*
X1834240Y1226080D01*
X1834240Y1246720D01*
X1830000Y1244400D01*
X1825360Y1241020D01*
X1821180Y1237100D01*
X1817540Y1232680D01*
X1814460Y1227860D01*
G37*
G36*
X2735340Y1598060D02*
G01*
X2736860Y1598800D01*
X2743140Y1602720D01*
X2749020Y1607260D01*
X2754380Y1612380D01*
X2759220Y1618000D01*
X2763440Y1624079D01*
X2766060Y1628800D01*
X2735340Y1628800D01*
G37*
G36*
X2667340Y1598060D02*
G01*
X2667340Y1628800D01*
X2636620Y1628800D01*
X2639220Y1624079D01*
X2643460Y1618000D01*
X2648300Y1612380D01*
X2653660Y1607260D01*
X2659520Y1602720D01*
X2665820Y1598800D01*
G37*
G36*
X3184660Y1598060D02*
G01*
X3184660Y1628800D01*
X3153940Y1628800D01*
X3156560Y1624079D01*
X3160779Y1618000D01*
X3165620Y1612380D01*
X3170980Y1607260D01*
X3176860Y1602720D01*
X3183140Y1598800D01*
G37*
G36*
X3252660Y1598060D02*
G01*
X3254180Y1598800D01*
X3260480Y1602720D01*
X3266340Y1607260D01*
X3271700Y1612380D01*
X3276540Y1618000D01*
X3280779Y1624079D01*
X3283380Y1628800D01*
X3252660Y1628800D01*
G37*
G36*
X3095000Y1633800D02*
G01*
X3100600Y1633800D01*
X3106139Y1634520D01*
X3111560Y1635940D01*
X3116740Y1638040D01*
X3121620Y1640780D01*
X3126100Y1644120D01*
X3130120Y1648020D01*
X3133600Y1652380D01*
X3136500Y1657180D01*
X3138780Y1662280D01*
X3140360Y1667640D01*
X3141259Y1673180D01*
X3141440Y1678760D01*
X3140880Y1684400D01*
X3139660Y1689780D01*
X3137720Y1695040D01*
X3135140Y1700000D01*
X3131940Y1704580D01*
X3128180Y1708720D01*
X3123920Y1712340D01*
X3119220Y1715400D01*
X3114180Y1717820D01*
X3108880Y1719600D01*
X3103380Y1720660D01*
X3097799Y1721020D01*
X3092220Y1720660D01*
X3086720Y1719600D01*
X3081420Y1717820D01*
X3076380Y1715400D01*
X3071680Y1712340D01*
X3067420Y1708720D01*
X3063660Y1704580D01*
X3060460Y1700000D01*
X3057880Y1695040D01*
X3055940Y1689780D01*
X3054700Y1684340D01*
X3054160Y1678760D01*
X3054340Y1673180D01*
X3055240Y1667640D01*
X3056840Y1662280D01*
X3059100Y1657180D01*
X3062000Y1652380D01*
X3065480Y1648020D01*
X3069500Y1644120D01*
X3073980Y1640780D01*
X3078860Y1638040D01*
X3084040Y1635940D01*
X3089460Y1634520D01*
G37*
G36*
X2917840Y1633800D02*
G01*
X2923420Y1633800D01*
X2928980Y1634520D01*
X2934380Y1635940D01*
X2939580Y1638040D01*
X2944440Y1640780D01*
X2948920Y1644120D01*
X2952940Y1648020D01*
X2956580Y1652620D01*
X2957700Y1653820D01*
X2959180Y1654460D01*
X2960820Y1654460D01*
X2962300Y1653820D01*
X2963560Y1652380D01*
X2967060Y1648020D01*
X2971080Y1644120D01*
X2975560Y1640780D01*
X2980419Y1638040D01*
X2985620Y1635940D01*
X2991019Y1634520D01*
X2996580Y1633800D01*
X3002160Y1633800D01*
X3007720Y1634520D01*
X3013120Y1635940D01*
X3018320Y1638040D01*
X3023180Y1640780D01*
X3027660Y1644120D01*
X3031680Y1648020D01*
X3035179Y1652380D01*
X3038080Y1657180D01*
X3040340Y1662280D01*
X3041940Y1667640D01*
X3042820Y1673180D01*
X3043000Y1678760D01*
X3042460Y1684340D01*
X3041220Y1689780D01*
X3039280Y1695040D01*
X3036700Y1700000D01*
X3033500Y1704580D01*
X3029740Y1708720D01*
X3025480Y1712340D01*
X3020800Y1715400D01*
X3015760Y1717820D01*
X3010440Y1719600D01*
X3004960Y1720660D01*
X2999380Y1721020D01*
X2993780Y1720660D01*
X2988300Y1719600D01*
X2982980Y1717820D01*
X2981420Y1717080D01*
X2979840Y1716680D01*
X2978220Y1716960D01*
X2976860Y1717840D01*
X2951019Y1743640D01*
X2950140Y1744940D01*
X2949860Y1746500D01*
X2950179Y1748040D01*
X2951060Y1749340D01*
X2952940Y1751160D01*
X2956580Y1755780D01*
X2957700Y1756960D01*
X2959180Y1757620D01*
X2960820Y1757620D01*
X2962300Y1756960D01*
X2963560Y1755540D01*
X2967060Y1751160D01*
X2971080Y1747280D01*
X2975560Y1743920D01*
X2980419Y1741180D01*
X2985620Y1739079D01*
X2991019Y1737660D01*
X2996580Y1736940D01*
X3002160Y1736940D01*
X3007720Y1737660D01*
X3013120Y1739079D01*
X3018320Y1741180D01*
X3023180Y1743920D01*
X3027660Y1747280D01*
X3031680Y1751160D01*
X3035179Y1755540D01*
X3038080Y1760320D01*
X3040340Y1765440D01*
X3041940Y1770800D01*
X3042820Y1776320D01*
X3043000Y1781920D01*
X3042460Y1787480D01*
X3041220Y1792940D01*
X3039280Y1798180D01*
X3036700Y1803140D01*
X3033500Y1807740D01*
X3029740Y1811879D01*
X3025480Y1815500D01*
X3020800Y1818560D01*
X3015760Y1820980D01*
X3010440Y1822740D01*
X3004960Y1823800D01*
X2999380Y1824160D01*
X2993780Y1823800D01*
X2988300Y1822740D01*
X2982980Y1820980D01*
X2977940Y1818560D01*
X2973260Y1815500D01*
X2969000Y1811879D01*
X2965240Y1807740D01*
X2963279Y1804920D01*
X2962180Y1803860D01*
X2960760Y1803280D01*
X2959240Y1803280D01*
X2957820Y1803860D01*
X2956720Y1804920D01*
X2954760Y1807740D01*
X2951000Y1811879D01*
X2946740Y1815500D01*
X2942060Y1818560D01*
X2937020Y1820980D01*
X2931700Y1822740D01*
X2926220Y1823800D01*
X2920640Y1824160D01*
X2915040Y1823800D01*
X2909560Y1822740D01*
X2904240Y1820980D01*
X2899200Y1818560D01*
X2894520Y1815500D01*
X2890260Y1811879D01*
X2886500Y1807740D01*
X2883300Y1803140D01*
X2880720Y1798180D01*
X2878780Y1792940D01*
X2877540Y1787480D01*
X2877000Y1781920D01*
X2877180Y1776320D01*
X2878060Y1770800D01*
X2879660Y1765440D01*
X2881920Y1760320D01*
X2884820Y1755540D01*
X2885899Y1754199D01*
X2886580Y1752880D01*
X2886760Y1751399D01*
X2886380Y1749960D01*
X2885480Y1748760D01*
X2884220Y1747980D01*
X2882760Y1747700D01*
X2860059Y1747700D01*
X2858600Y1747980D01*
X2857340Y1748760D01*
X2856460Y1749960D01*
X2856080Y1751399D01*
X2856240Y1752880D01*
X2856940Y1754199D01*
X2858000Y1755540D01*
X2860899Y1760320D01*
X2861340Y1761279D01*
X2841440Y1761279D01*
X2841440Y1751699D01*
X2841120Y1750160D01*
X2840260Y1748880D01*
X2838960Y1748000D01*
X2837440Y1747700D01*
X2811920Y1747700D01*
X2810380Y1748000D01*
X2809080Y1748880D01*
X2804140Y1753820D01*
X2803279Y1755120D01*
X2802960Y1756639D01*
X2802960Y1761279D01*
X2798340Y1761279D01*
X2796800Y1761579D01*
X2795500Y1762460D01*
X2749120Y1808839D01*
X2746900Y1810640D01*
X2744540Y1811840D01*
X2741940Y1812540D01*
X2739840Y1812700D01*
X2565200Y1812700D01*
X2562360Y1812400D01*
X2559840Y1811579D01*
X2557500Y1810240D01*
X2555900Y1808860D01*
X2505400Y1758360D01*
X2504420Y1757640D01*
X2503280Y1757260D01*
X2502060Y1757220D01*
X2500960Y1757380D01*
X2497160Y1757200D01*
X2493440Y1756399D01*
X2489920Y1755000D01*
X2486680Y1753000D01*
X2483840Y1750500D01*
X2481440Y1747540D01*
X2479600Y1744220D01*
X2478340Y1740640D01*
X2477700Y1736900D01*
X2477700Y1733100D01*
X2478340Y1729360D01*
X2479600Y1725780D01*
X2481440Y1722460D01*
X2483840Y1719500D01*
X2486680Y1717000D01*
X2489920Y1715000D01*
X2493440Y1713600D01*
X2497160Y1712800D01*
X2500960Y1712620D01*
X2504720Y1713120D01*
X2508340Y1714220D01*
X2511740Y1715940D01*
X2514800Y1718200D01*
X2517420Y1720940D01*
X2519540Y1724079D01*
X2521120Y1727540D01*
X2522060Y1731220D01*
X2522400Y1735000D01*
X2522200Y1737220D01*
X2522420Y1738940D01*
X2523360Y1740400D01*
X2533760Y1750800D01*
X2534960Y1751620D01*
X2536400Y1751960D01*
X2537860Y1751759D01*
X2539140Y1751040D01*
X2540080Y1749920D01*
X2541440Y1747460D01*
X2543840Y1744500D01*
X2546680Y1742000D01*
X2549920Y1740000D01*
X2553440Y1738600D01*
X2557160Y1737800D01*
X2560960Y1737620D01*
X2564720Y1738120D01*
X2568340Y1739220D01*
X2571740Y1740940D01*
X2574800Y1743200D01*
X2577420Y1745940D01*
X2579540Y1749079D01*
X2581120Y1752540D01*
X2582060Y1756220D01*
X2582400Y1760000D01*
X2582200Y1762220D01*
X2582420Y1763940D01*
X2583360Y1765400D01*
X2589080Y1771120D01*
X2590380Y1772000D01*
X2591920Y1772300D01*
X2728080Y1772300D01*
X2729620Y1772000D01*
X2730920Y1771120D01*
X2789840Y1712200D01*
X2790680Y1710940D01*
X2791019Y1709460D01*
X2790760Y1707980D01*
X2789980Y1706680D01*
X2788060Y1704580D01*
X2784860Y1700000D01*
X2783100Y1696600D01*
X2802960Y1696600D01*
X2802960Y1703300D01*
X2803279Y1704840D01*
X2804140Y1706120D01*
X2805440Y1707000D01*
X2806960Y1707300D01*
X2837440Y1707300D01*
X2838960Y1707000D01*
X2840260Y1706120D01*
X2841120Y1704840D01*
X2841440Y1703300D01*
X2841440Y1696600D01*
X2861300Y1696600D01*
X2859540Y1700000D01*
X2858820Y1701020D01*
X2858159Y1702620D01*
X2858240Y1704340D01*
X2859040Y1705880D01*
X2860419Y1706920D01*
X2862100Y1707300D01*
X2871080Y1707300D01*
X2872600Y1707000D01*
X2873900Y1706120D01*
X2880100Y1699920D01*
X2881019Y1698520D01*
X2881259Y1696860D01*
X2880720Y1695040D01*
X2878780Y1689780D01*
X2877540Y1684340D01*
X2877000Y1678760D01*
X2877180Y1673180D01*
X2878060Y1667640D01*
X2879660Y1662280D01*
X2881920Y1657180D01*
X2884820Y1652380D01*
X2888320Y1648020D01*
X2892340Y1644120D01*
X2896820Y1640780D01*
X2901680Y1638040D01*
X2906880Y1635940D01*
X2912280Y1634520D01*
G37*
G36*
X2841440Y1638200D02*
G01*
X2846019Y1640780D01*
X2850500Y1644120D01*
X2854520Y1648020D01*
X2858000Y1652380D01*
X2860899Y1657180D01*
X2861340Y1658140D01*
X2841440Y1658140D01*
G37*
G36*
X2802960Y1638200D02*
G01*
X2802960Y1658140D01*
X2783060Y1658140D01*
X2783500Y1657180D01*
X2786400Y1652380D01*
X2789880Y1648020D01*
X2793900Y1644120D01*
X2798380Y1640780D01*
G37*
G36*
X3153940Y1696800D02*
G01*
X3184660Y1696800D01*
X3184660Y1727540D01*
X3183140Y1726780D01*
X3176860Y1722860D01*
X3170980Y1718320D01*
X3165620Y1713220D01*
X3160779Y1707600D01*
X3156560Y1701500D01*
G37*
G36*
X2636620Y1696800D02*
G01*
X2667340Y1696800D01*
X2667340Y1727540D01*
X2665820Y1726780D01*
X2659520Y1722860D01*
X2653660Y1718320D01*
X2648300Y1713220D01*
X2643460Y1707600D01*
X2639220Y1701500D01*
G37*
G36*
X2735340Y1696800D02*
G01*
X2766060Y1696800D01*
X2763440Y1701500D01*
X2759220Y1707600D01*
X2754380Y1713220D01*
X2749020Y1718320D01*
X2743140Y1722860D01*
X2736860Y1726780D01*
X2735340Y1727540D01*
G37*
G36*
X3252660Y1696800D02*
G01*
X3283380Y1696800D01*
X3280779Y1701500D01*
X3276540Y1707600D01*
X3271700Y1713220D01*
X3266340Y1718320D01*
X3260480Y1722860D01*
X3254180Y1726780D01*
X3252660Y1727540D01*
G37*
G36*
X3095000Y1736940D02*
G01*
X3100600Y1736940D01*
X3106139Y1737660D01*
X3111560Y1739079D01*
X3116740Y1741180D01*
X3121620Y1743920D01*
X3126100Y1747280D01*
X3130120Y1751160D01*
X3133600Y1755540D01*
X3136500Y1760320D01*
X3138780Y1765440D01*
X3140360Y1770800D01*
X3141259Y1776320D01*
X3141440Y1781920D01*
X3140899Y1787480D01*
X3139660Y1792940D01*
X3137720Y1798180D01*
X3135140Y1803140D01*
X3131940Y1807740D01*
X3128180Y1811879D01*
X3123920Y1815500D01*
X3119220Y1818560D01*
X3114180Y1820980D01*
X3108880Y1822740D01*
X3103380Y1823800D01*
X3097799Y1824160D01*
X3092220Y1823800D01*
X3086720Y1822740D01*
X3081420Y1820980D01*
X3076380Y1818560D01*
X3071680Y1815500D01*
X3067420Y1811879D01*
X3063660Y1807740D01*
X3060460Y1803140D01*
X3057880Y1798180D01*
X3055940Y1792940D01*
X3054700Y1787480D01*
X3054160Y1781920D01*
X3054340Y1776320D01*
X3055240Y1770800D01*
X3056840Y1765440D01*
X3059100Y1760320D01*
X3062000Y1755540D01*
X3065480Y1751160D01*
X3069500Y1747280D01*
X3073980Y1743920D01*
X3078860Y1741180D01*
X3084040Y1739079D01*
X3089460Y1737660D01*
G37*
G36*
X2783100Y1799740D02*
G01*
X2802960Y1799740D01*
X2802960Y1819600D01*
X2800779Y1818560D01*
X2796080Y1815500D01*
X2791820Y1811879D01*
X2788060Y1807740D01*
X2784860Y1803140D01*
G37*
G36*
X2841440Y1799740D02*
G01*
X2861300Y1799740D01*
X2859540Y1803140D01*
X2856340Y1807740D01*
X2852580Y1811879D01*
X2848320Y1815500D01*
X2843620Y1818560D01*
X2841440Y1819600D01*
G37*
G36*
X3184660Y1822460D02*
G01*
X3184660Y1853200D01*
X3153940Y1853200D01*
X3156560Y1848500D01*
X3160779Y1842400D01*
X3165620Y1836780D01*
X3170980Y1831680D01*
X3176860Y1827140D01*
X3183140Y1823220D01*
G37*
G36*
X2667340Y1822460D02*
G01*
X2667340Y1853200D01*
X2636620Y1853200D01*
X2639220Y1848500D01*
X2643460Y1842400D01*
X2648300Y1836780D01*
X2653660Y1831680D01*
X2659520Y1827140D01*
X2665820Y1823220D01*
G37*
G36*
X2735340Y1822460D02*
G01*
X2736860Y1823220D01*
X2743140Y1827140D01*
X2749020Y1831680D01*
X2754380Y1836780D01*
X2759220Y1842400D01*
X2763440Y1848500D01*
X2766060Y1853200D01*
X2735340Y1853200D01*
G37*
G36*
X3252660Y1822460D02*
G01*
X3254180Y1823220D01*
X3260480Y1827140D01*
X3266340Y1831680D01*
X3271700Y1836780D01*
X3276540Y1842400D01*
X3280779Y1848500D01*
X3283380Y1853200D01*
X3252660Y1853200D01*
G37*
G36*
X1952020Y1877100D02*
G01*
X1956519Y1879580D01*
X1961960Y1883440D01*
X1966920Y1887880D01*
X1971360Y1892840D01*
X1975220Y1898280D01*
X1977700Y1902780D01*
X1952020Y1902780D01*
G37*
G36*
X1837180Y1877100D02*
G01*
X1841680Y1879580D01*
X1847120Y1883440D01*
X1852080Y1887880D01*
X1856519Y1892840D01*
X1860380Y1898280D01*
X1862860Y1902780D01*
X1837180Y1902780D01*
G37*
G36*
X1197020Y1877100D02*
G01*
X1201520Y1879580D01*
X1206960Y1883440D01*
X1211920Y1887880D01*
X1216360Y1892840D01*
X1220220Y1898280D01*
X1222700Y1902780D01*
X1197020Y1902780D01*
G37*
G36*
X2537980Y1877100D02*
G01*
X2537980Y1902780D01*
X2512300Y1902780D01*
X2514780Y1898280D01*
X2518640Y1892840D01*
X2523080Y1887880D01*
X2528040Y1883440D01*
X2533480Y1879580D01*
G37*
G36*
X2592180Y1877100D02*
G01*
X2596680Y1879580D01*
X2602120Y1883440D01*
X2607080Y1887880D01*
X2611520Y1892840D01*
X2615380Y1898280D01*
X2617860Y1902780D01*
X2592180Y1902780D01*
G37*
G36*
X1897820Y1877100D02*
G01*
X1897820Y1902780D01*
X1872140Y1902780D01*
X1874620Y1898280D01*
X1878480Y1892840D01*
X1882920Y1887880D01*
X1887880Y1883440D01*
X1893320Y1879580D01*
G37*
G36*
X1142820Y1877100D02*
G01*
X1142820Y1902780D01*
X1117140Y1902780D01*
X1119620Y1898280D01*
X1123480Y1892840D01*
X1127920Y1887880D01*
X1132880Y1883440D01*
X1138320Y1879580D01*
G37*
G36*
X3153940Y1921200D02*
G01*
X3184660Y1921200D01*
X3184660Y1951940D01*
X3183140Y1951200D01*
X3176860Y1947280D01*
X3170980Y1942740D01*
X3165620Y1937620D01*
X3160779Y1932000D01*
X3156560Y1925920D01*
G37*
G36*
X2636620Y1921200D02*
G01*
X2667340Y1921200D01*
X2667340Y1951940D01*
X2665820Y1951200D01*
X2659520Y1947280D01*
X2653660Y1942740D01*
X2648300Y1937620D01*
X2643460Y1932000D01*
X2639220Y1925920D01*
G37*
G36*
X3252660Y1921200D02*
G01*
X3283380Y1921200D01*
X3280779Y1925920D01*
X3276540Y1932000D01*
X3271700Y1937620D01*
X3266340Y1942740D01*
X3260480Y1947280D01*
X3254180Y1951200D01*
X3252660Y1951940D01*
G37*
G36*
X2735340Y1921200D02*
G01*
X2766060Y1921200D01*
X2763440Y1925920D01*
X2759220Y1932000D01*
X2754380Y1937620D01*
X2749020Y1942740D01*
X2743140Y1947280D01*
X2736860Y1951200D01*
X2735340Y1951940D01*
G37*
G36*
X2086960Y1933959D02*
G01*
X2086960Y1952540D01*
X2068360Y1952540D01*
X2069860Y1949560D01*
X2072900Y1945140D01*
X2076500Y1941140D01*
X2080600Y1937680D01*
X2085140Y1934800D01*
G37*
G36*
X1331940Y1933959D02*
G01*
X1331940Y1952540D01*
X1313360Y1952540D01*
X1314860Y1949560D01*
X1317900Y1945140D01*
X1321500Y1941140D01*
X1325600Y1937680D01*
X1330140Y1934800D01*
G37*
G36*
X1197020Y1956980D02*
G01*
X1222700Y1956980D01*
X1220220Y1961480D01*
X1216360Y1966920D01*
X1211920Y1971879D01*
X1206960Y1976320D01*
X1201520Y1980180D01*
X1197020Y1982660D01*
G37*
G36*
X1117140Y1956980D02*
G01*
X1142820Y1956980D01*
X1142820Y1982660D01*
X1138320Y1980180D01*
X1132880Y1976320D01*
X1127920Y1971879D01*
X1123480Y1966920D01*
X1119620Y1961480D01*
G37*
G36*
X2592180Y1956980D02*
G01*
X2617860Y1956980D01*
X2615380Y1961480D01*
X2611520Y1966920D01*
X2607080Y1971879D01*
X2602120Y1976320D01*
X2596680Y1980180D01*
X2592180Y1982660D01*
G37*
G36*
X2512300Y1956980D02*
G01*
X2537980Y1956980D01*
X2537980Y1982660D01*
X2533480Y1980180D01*
X2528040Y1976320D01*
X2523080Y1971879D01*
X2518640Y1966920D01*
X2514780Y1961480D01*
G37*
G36*
X2068360Y1987540D02*
G01*
X2086960Y1987540D01*
X2086960Y2006120D01*
X2085140Y2005280D01*
X2080600Y2002400D01*
X2076500Y1998940D01*
X2072900Y1994940D01*
X2069860Y1990520D01*
G37*
G36*
X1313360Y1987540D02*
G01*
X1331940Y1987540D01*
X1331940Y2006120D01*
X1330140Y2005280D01*
X1325600Y2002400D01*
X1321500Y1998940D01*
X1317900Y1994940D01*
X1314860Y1990520D01*
G37*
G36*
X1366940Y1987540D02*
G01*
X1385580Y1987540D01*
X1385320Y1988160D01*
X1382580Y1992780D01*
X1379259Y1997000D01*
X1375400Y2000740D01*
X1371080Y2003920D01*
X1366940Y2006180D01*
G37*
G36*
X1238160Y1995900D02*
G01*
X1245540Y1996080D01*
X1252880Y1997000D01*
X1260080Y1998640D01*
X1267100Y2001000D01*
X1273840Y2004040D01*
X1280240Y2007740D01*
X1286240Y2012060D01*
X1291780Y2016940D01*
X1296819Y2022360D01*
X1301279Y2028260D01*
X1305140Y2034560D01*
X1308340Y2041220D01*
X1310880Y2048180D01*
X1312700Y2055340D01*
X1313800Y2062660D01*
X1314180Y2070040D01*
X1313800Y2077420D01*
X1312700Y2084740D01*
X1310880Y2091900D01*
X1308340Y2098860D01*
X1305140Y2105520D01*
X1301279Y2111820D01*
X1296819Y2117720D01*
X1291780Y2123140D01*
X1286240Y2128020D01*
X1280240Y2132340D01*
X1273840Y2136040D01*
X1267100Y2139080D01*
X1260080Y2141440D01*
X1252880Y2143080D01*
X1245540Y2144000D01*
X1238160Y2144180D01*
X1230780Y2143640D01*
X1223500Y2142360D01*
X1216380Y2140340D01*
X1209500Y2137640D01*
X1202920Y2134280D01*
X1196700Y2130260D01*
X1190920Y2125660D01*
X1185620Y2120480D01*
X1180880Y2114820D01*
X1176720Y2108720D01*
X1173180Y2102220D01*
X1170300Y2095400D01*
X1168120Y2088340D01*
X1166660Y2081100D01*
X1165920Y2073740D01*
X1165920Y2066339D01*
X1166660Y2058980D01*
X1168120Y2051740D01*
X1170300Y2044680D01*
X1173180Y2037860D01*
X1176720Y2031360D01*
X1180880Y2025260D01*
X1185620Y2019600D01*
X1190920Y2014420D01*
X1196700Y2009820D01*
X1202920Y2005800D01*
X1209500Y2002440D01*
X1216380Y1999740D01*
X1223500Y1997720D01*
X1230780Y1996440D01*
G37*
G36*
X2493160Y1995900D02*
G01*
X2500540Y1996080D01*
X2507880Y1997000D01*
X2515080Y1998640D01*
X2522100Y2001000D01*
X2528840Y2004040D01*
X2535240Y2007740D01*
X2541240Y2012060D01*
X2546780Y2016940D01*
X2551820Y2022360D01*
X2556280Y2028260D01*
X2560140Y2034560D01*
X2563340Y2041220D01*
X2565880Y2048180D01*
X2567700Y2055340D01*
X2568800Y2062660D01*
X2569180Y2070040D01*
X2568800Y2077420D01*
X2567700Y2084740D01*
X2565880Y2091900D01*
X2563340Y2098860D01*
X2560140Y2105520D01*
X2556280Y2111820D01*
X2551820Y2117720D01*
X2546780Y2123140D01*
X2541240Y2128020D01*
X2535240Y2132340D01*
X2528840Y2136040D01*
X2522100Y2139080D01*
X2515080Y2141440D01*
X2507880Y2143080D01*
X2500540Y2144000D01*
X2493160Y2144180D01*
X2485780Y2143640D01*
X2478500Y2142360D01*
X2471380Y2140340D01*
X2464500Y2137640D01*
X2457920Y2134280D01*
X2451700Y2130260D01*
X2445920Y2125660D01*
X2440620Y2120480D01*
X2435880Y2114820D01*
X2431720Y2108720D01*
X2428180Y2102220D01*
X2425300Y2095400D01*
X2423120Y2088340D01*
X2421660Y2081100D01*
X2420920Y2073740D01*
X2420920Y2066339D01*
X2421660Y2058980D01*
X2423120Y2051740D01*
X2425300Y2044680D01*
X2428180Y2037860D01*
X2431720Y2031360D01*
X2435880Y2025260D01*
X2440620Y2019600D01*
X2445920Y2014420D01*
X2451700Y2009820D01*
X2457920Y2005800D01*
X2464500Y2002440D01*
X2471380Y1999740D01*
X2478500Y1997720D01*
X2485780Y1996440D01*
G37*

%LPD*%
G36*
X1421900Y1140100D02*
G01*
X1420400Y1140760D01*
X1419280Y1141980D01*
X1418740Y1143540D01*
X1418880Y1145200D01*
X1419880Y1148460D01*
X1420200Y1151620D01*
X1420200Y1166620D01*
X1420580Y1168320D01*
X1421660Y1169700D01*
X1423200Y1170500D01*
X1424940Y1170540D01*
X1426560Y1169860D01*
X1430000Y1167340D01*
X1434240Y1165020D01*
X1434240Y1185660D01*
X1424199Y1185660D01*
X1422660Y1185960D01*
X1421380Y1186820D01*
X1420500Y1188120D01*
X1420200Y1189660D01*
X1420200Y1222080D01*
X1420500Y1223620D01*
X1421380Y1224920D01*
X1422660Y1225780D01*
X1424199Y1226080D01*
X1434240Y1226080D01*
X1434240Y1246720D01*
X1430000Y1244400D01*
X1426560Y1241880D01*
X1424940Y1241200D01*
X1423200Y1241240D01*
X1421660Y1242040D01*
X1420580Y1243420D01*
X1420200Y1245120D01*
X1420200Y1327040D01*
X1420500Y1328580D01*
X1421380Y1329880D01*
X1727980Y1636480D01*
X1729259Y1637340D01*
X1730800Y1637640D01*
X1732340Y1637340D01*
X1733620Y1636480D01*
X1734500Y1635180D01*
X1734800Y1633640D01*
X1734800Y1582960D01*
X1734500Y1581420D01*
X1733620Y1580120D01*
X1494400Y1340880D01*
X1492380Y1338440D01*
X1490980Y1335800D01*
X1490120Y1332960D01*
X1489800Y1329800D01*
X1489800Y1244320D01*
X1489420Y1242620D01*
X1488340Y1241240D01*
X1486800Y1240440D01*
X1485060Y1240400D01*
X1483440Y1241080D01*
X1478899Y1244400D01*
X1474660Y1246720D01*
X1474660Y1226080D01*
X1485800Y1226080D01*
X1487340Y1225780D01*
X1488620Y1224920D01*
X1489500Y1223620D01*
X1489800Y1222080D01*
X1489800Y1189660D01*
X1489500Y1188120D01*
X1488620Y1186820D01*
X1487340Y1185960D01*
X1485800Y1185660D01*
X1474660Y1185660D01*
X1474660Y1165020D01*
X1478899Y1167340D01*
X1483440Y1170660D01*
X1485060Y1171340D01*
X1486800Y1171300D01*
X1488340Y1170500D01*
X1489420Y1169120D01*
X1489800Y1167420D01*
X1489800Y1159380D01*
X1489500Y1157840D01*
X1488620Y1156540D01*
X1479460Y1147380D01*
X1478020Y1146460D01*
X1476339Y1146220D01*
X1474700Y1146700D01*
X1473880Y1147160D01*
X1468540Y1149260D01*
X1463000Y1150680D01*
X1457320Y1151400D01*
X1451579Y1151400D01*
X1445900Y1150680D01*
X1440340Y1149260D01*
X1435020Y1147160D01*
X1430000Y1144400D01*
X1425060Y1140780D01*
X1423560Y1140120D01*
G37*

%LPD*%
G36*
X2187720Y1139060D02*
G01*
X2185980Y1139240D01*
X2184500Y1140120D01*
X2183540Y1141020D01*
X2178900Y1144400D01*
X2173880Y1147160D01*
X2168540Y1149260D01*
X2163000Y1150680D01*
X2157320Y1151400D01*
X2151580Y1151400D01*
X2145900Y1150680D01*
X2140340Y1149260D01*
X2135020Y1147160D01*
X2134200Y1146700D01*
X2132560Y1146220D01*
X2130880Y1146460D01*
X2129440Y1147380D01*
X2121380Y1155440D01*
X2120500Y1156740D01*
X2120200Y1158280D01*
X2120200Y1166620D01*
X2120580Y1168320D01*
X2121660Y1169700D01*
X2123200Y1170500D01*
X2124940Y1170540D01*
X2126560Y1169860D01*
X2130000Y1167340D01*
X2134240Y1165020D01*
X2134240Y1185660D01*
X2124200Y1185660D01*
X2122660Y1185960D01*
X2121380Y1186820D01*
X2120500Y1188120D01*
X2120200Y1189660D01*
X2120200Y1222080D01*
X2120500Y1223620D01*
X2121380Y1224920D01*
X2122660Y1225780D01*
X2124200Y1226080D01*
X2134240Y1226080D01*
X2134240Y1246720D01*
X2130000Y1244400D01*
X2126560Y1241880D01*
X2124940Y1241200D01*
X2123200Y1241240D01*
X2121660Y1242040D01*
X2120580Y1243420D01*
X2120200Y1245120D01*
X2120200Y1384100D01*
X2119880Y1387260D01*
X2119020Y1390100D01*
X2117620Y1392740D01*
X2115600Y1395180D01*
X2051380Y1459420D01*
X2050500Y1460720D01*
X2050200Y1462260D01*
X2050200Y1483880D01*
X2050540Y1485480D01*
X2051480Y1486800D01*
X2052860Y1487660D01*
X2054480Y1487880D01*
X2056060Y1487420D01*
X2057320Y1486399D01*
X2058839Y1484500D01*
X2061680Y1482000D01*
X2064920Y1480000D01*
X2068440Y1478600D01*
X2072160Y1477800D01*
X2075960Y1477620D01*
X2079720Y1478120D01*
X2083340Y1479220D01*
X2086740Y1480940D01*
X2091480Y1484480D01*
X2093040Y1484800D01*
X2164500Y1484800D01*
X2165900Y1484540D01*
X2167140Y1483800D01*
X2169180Y1482000D01*
X2172420Y1480000D01*
X2175940Y1478600D01*
X2179660Y1477800D01*
X2183460Y1477620D01*
X2187220Y1478120D01*
X2189640Y1478839D01*
X2191320Y1478980D01*
X2192920Y1478420D01*
X2194120Y1477240D01*
X2194740Y1475660D01*
X2194660Y1473980D01*
X2193900Y1472480D01*
X2192380Y1470640D01*
X2190980Y1468000D01*
X2190120Y1465160D01*
X2189800Y1462000D01*
X2189800Y1244320D01*
X2189420Y1242620D01*
X2188340Y1241240D01*
X2186800Y1240440D01*
X2185060Y1240400D01*
X2183440Y1241080D01*
X2178900Y1244400D01*
X2174660Y1246720D01*
X2174660Y1226080D01*
X2185800Y1226080D01*
X2187340Y1225780D01*
X2188620Y1224920D01*
X2189500Y1223620D01*
X2189800Y1222080D01*
X2189800Y1189660D01*
X2189500Y1188120D01*
X2188620Y1186820D01*
X2187340Y1185960D01*
X2185800Y1185660D01*
X2174660Y1185660D01*
X2174660Y1165020D01*
X2178900Y1167340D01*
X2183440Y1170660D01*
X2185060Y1171340D01*
X2186800Y1171300D01*
X2188340Y1170500D01*
X2189420Y1169120D01*
X2189800Y1167420D01*
X2189800Y1150500D01*
X2190120Y1147340D01*
X2191060Y1144200D01*
X2191200Y1142460D01*
X2190580Y1140840D01*
X2189340Y1139640D01*
G37*

%LPD*%
D10*
X2560000Y1760000D02*
G01*
X2585000Y1785000D01*
X2635000Y1785000D01*
X2500000Y1735000D02*
G01*
X2565000Y1800000D01*
X2635000Y1800000D01*
X2805000Y1735000D02*
G01*
X2740000Y1800000D01*
X2635000Y1800000D01*
X2999399Y1677399D02*
G01*
X2941700Y1735000D01*
X2805000Y1735000D01*
X2920630Y1677359D02*
G01*
X2877990Y1720000D01*
X2800000Y1720000D01*
X2735000Y1785000D01*
X2635000Y1785000D01*
D11*
X2184799Y1970000D02*
G01*
X2119799Y2035000D01*
X2075000Y2035000D01*
X2035000Y1995000D01*
X1790000Y1995000D01*
X1745000Y1950000D01*
X1745000Y1890000D01*
X1750000Y1885000D01*
X1750000Y1575000D01*
X1505000Y1330000D01*
X1505000Y1191419D01*
X1405000Y1191419D02*
G01*
X1405000Y1335000D01*
X1730000Y1660000D01*
X1730000Y1880000D01*
X1639960Y1970039D01*
X1590389Y1970039D01*
X1305000Y1191399D02*
G01*
X1305000Y1290000D01*
X1710000Y1695000D01*
X1710000Y1845000D01*
X1690000Y1865000D01*
X1705000Y1965000D02*
G01*
X1590000Y2080000D01*
X1510000Y2080000D01*
X1429799Y1970000D02*
G01*
X1479700Y2020000D01*
X1615000Y2020000D01*
X1745000Y1890000D01*
X2265079Y1970039D02*
G01*
X2090119Y2145000D01*
X1965000Y2145000D01*
X1575000Y2145000D01*
X1510000Y2080000D01*
X1630000Y1745000D02*
G01*
X1550240Y1824760D01*
X1550240Y1899960D01*
X1469920Y1899960D02*
G01*
X1469920Y1850079D01*
X1550000Y1770000D01*
X1254449Y1100870D02*
G01*
X1305000Y1151419D01*
X1305000Y1191399D01*
X1354449Y1100870D02*
G01*
X1405000Y1151419D01*
X1405000Y1191419D01*
X1454449Y1100870D02*
G01*
X1505000Y1151419D01*
X1505000Y1191419D01*
X2035000Y1740000D02*
G01*
X2035000Y1454299D01*
X2105000Y1384299D01*
X2105000Y1150320D01*
X2154449Y1100870D01*
X2385600Y1900000D02*
G01*
X2454399Y1831100D01*
X2454399Y1200900D01*
X1730000Y1505000D02*
G01*
X1705000Y1480000D01*
X1705000Y1335000D01*
X1705000Y1015000D01*
X1780000Y940000D01*
X2430000Y290000D01*
X2430000Y165000D01*
X2430000Y165000D02*
G01*
X2410000Y145000D01*
X2410000Y125000D01*
X2534485Y55000D02*
G01*
X2350000Y55000D01*
X2170000Y-100000D02*
G01*
X2360000Y-100000D01*
X2390000Y-70000D01*
X2640000Y-105000D02*
G01*
X2545000Y-105000D01*
X2510000Y-70000D01*
X3200000Y-95000D02*
G01*
X3095000Y-95000D01*
X3070000Y-70000D01*
X2800000Y-90000D02*
G01*
X2930000Y-90000D01*
X2950000Y-70000D01*
X2254399Y1100900D02*
G01*
X2205000Y1150300D01*
X2205000Y1462199D01*
X2210000Y1467199D01*
X2210000Y1655000D01*
X2095000Y1770000D01*
X2354449Y1100870D02*
G01*
X2305000Y1150320D01*
X2305000Y1610000D01*
X2120000Y1795000D01*
X2070000Y1795000D01*
X2105000Y1825000D02*
G01*
X2140000Y1825000D01*
X2355000Y1610000D01*
X2355000Y1200900D01*
X2075000Y1500000D02*
G01*
X2182500Y1500000D01*
X2260000Y1430000D02*
G01*
X2260000Y1295000D01*
X1890000Y1375000D02*
G01*
X1890000Y1445000D01*
X1895000Y1450000D01*
X1920000Y1450000D01*
X2594409Y455590D02*
G01*
X2315000Y735000D01*
X2005000Y1045000D01*
X2005000Y1235000D01*
X1980000Y1260000D01*
X1900000Y1260000D01*
X1890000Y1270000D01*
X1890000Y1375000D01*
X2594409Y190010D02*
G01*
X2594409Y455590D01*
D12*
G01*
X2610280Y-28249D03*
G01*
X2269729Y-28249D03*
G01*
X3170280Y-28249D03*
G01*
X2829729Y-28249D03*
D13*
G01*
X1277879Y1014810D03*
D14*
G01*
X3154449Y1205870D03*
D15*
G01*
X1538119Y234499D03*
G01*
X1687719Y239220D03*
G01*
X1827489Y445909D03*
G01*
X2510559Y190010D03*
G01*
X1911340Y406539D03*
G01*
X2594409Y190010D03*
G01*
X2801499Y209299D03*
G01*
X3053080Y259690D03*
G01*
X3040860Y362440D03*
G01*
X3125000Y555000D03*
G01*
X3152680Y1007719D03*
G01*
X3234179Y861660D03*
G01*
X3279449Y460869D03*
D16*
G01*
X1059449Y1160870D03*
G01*
X3345720Y255850D03*
G01*
X1062219Y255850D03*
G01*
X3344420Y1162750D03*
D17*
G01*
X1254449Y1105870D03*
D14*
G01*
X1254449Y1205870D03*
G01*
X1354449Y1105870D03*
G01*
X1354449Y1205870D03*
G01*
X1454449Y1105870D03*
G01*
X1454449Y1205870D03*
G01*
X1554449Y1105870D03*
G01*
X1554449Y1205870D03*
G01*
X1654449Y1105870D03*
G01*
X1654449Y1205870D03*
G01*
X1754449Y1105870D03*
G01*
X1754449Y1205870D03*
G01*
X1854449Y1105870D03*
G01*
X1854449Y1205870D03*
G01*
X1954449Y1105870D03*
G01*
X1954449Y1205870D03*
G01*
X2054449Y1105870D03*
G01*
X2054449Y1205870D03*
G01*
X2154449Y1105870D03*
G01*
X2154449Y1205870D03*
G01*
X2254449Y1105870D03*
G01*
X2254449Y1205870D03*
G01*
X2354449Y1105870D03*
G01*
X2354449Y1205870D03*
G01*
X2454449Y1105870D03*
G01*
X2454449Y1205870D03*
G01*
X2554449Y1105870D03*
G01*
X2554449Y1205870D03*
G01*
X2654449Y1105870D03*
G01*
X2654449Y1205870D03*
G01*
X2754449Y1105870D03*
G01*
X2754449Y1205870D03*
G01*
X2854449Y1105870D03*
G01*
X2854449Y1205870D03*
G01*
X2954449Y1105870D03*
G01*
X2954449Y1205870D03*
G01*
X3054449Y1105870D03*
G01*
X3054449Y1205870D03*
G01*
X3154449Y1105870D03*
D19*
G01*
X1169920Y1929879D03*
G01*
X1810079Y1929879D03*
D20*
G01*
X1630550Y1899960D03*
G01*
X1590389Y1970039D03*
G01*
X1550240Y1899960D03*
G01*
X1510079Y1970039D03*
G01*
X1469920Y1899960D03*
G01*
X1429759Y1970039D03*
G01*
X1389610Y1899960D03*
G01*
X1349449Y1970039D03*
D19*
G01*
X1924920Y1929879D03*
G01*
X2565079Y1929879D03*
D20*
G01*
X2385550Y1899960D03*
G01*
X2345389Y1970039D03*
G01*
X2305240Y1899960D03*
G01*
X2265079Y1970039D03*
G01*
X2224920Y1899960D03*
G01*
X2184759Y1970039D03*
G01*
X2144610Y1899960D03*
G01*
X2104449Y1970039D03*
D21*
G01*
X3097799Y1780509D03*
G01*
X2999369Y1780509D03*
G01*
X2920630Y1780509D03*
G01*
X2822200Y1780509D03*
D22*
G01*
X2701340Y1662790D03*
G01*
X3218660Y1662790D03*
G01*
X2701340Y1887199D03*
G01*
X3218660Y1887199D03*
D21*
G01*
X3097799Y1677359D03*
G01*
X2999369Y1677359D03*
G01*
X2920630Y1677359D03*
G01*
X2822200Y1677359D03*
D16*
G01*
X1000000Y2085000D03*
G01*
X3400000Y2080000D03*
G01*
X3400000Y-100000D03*
G01*
X1000000Y-100000D03*
D23*
G01*
X1510000Y2080000D03*
G01*
X2070000Y1795000D03*
G01*
X1550000Y1770000D03*
G01*
X2095000Y1770000D03*
G01*
X1630000Y1745000D03*
G01*
X2035000Y1740000D03*
G01*
X2105000Y1825000D03*
G01*
X1690000Y1865000D03*
G01*
X1705000Y1965000D03*
G01*
X2182500Y1500000D03*
G01*
X2182500Y1500000D03*
G01*
X2075000Y1500000D03*
G01*
X1920000Y1495000D03*
G01*
X2490000Y1575000D03*
G01*
X1915000Y1575000D03*
G01*
X1920000Y1350000D03*
G01*
X1590000Y1615000D03*
G01*
X2560000Y1760000D03*
G01*
X2500000Y1735000D03*
G01*
X1730000Y1505000D03*
G01*
X2410000Y125000D03*
G01*
X2534489Y55000D03*
G01*
X2350000Y55000D03*
G01*
X2170000Y-100000D03*
G01*
X2390000Y-70000D03*
G01*
X2640000Y-105000D03*
G01*
X2510000Y-70000D03*
G01*
X3200000Y-95000D03*
G01*
X3070000Y-70000D03*
G01*
X2800000Y-90000D03*
G01*
X2950000Y-70000D03*
G01*
X1250000Y1640000D03*
G01*
X1320000Y1345000D03*
G01*
X2260000Y1430000D03*
G01*
X2260000Y1295000D03*
G01*
X1920000Y1450000D03*
M02*
