G04 Layer: TopSolderMaskLayer*
G04 EasyEDA v6.5.51, 2025-12-13 04:46:10*
G04 afe304bc349a47aca8f85fda98863c0f,54a2198792e84a5b8b180a78bcbfafa7,10*
G04 Gerber Generator version 0.2*
G04 Scale: 100 percent, Rotated: No, Reflected: No *
G04 Dimensions in inches *
G04 leading zeros omitted , absolute positions ,3 integer and 6 decimal *
%FSLAX36Y36*%
%MOIN*%

%AMMACRO1*4,1,8,-0.0126,-0.0246,-0.0138,-0.0235,-0.0138,0.0235,-0.0126,0.0246,0.0126,0.0246,0.0138,0.0235,0.0138,-0.0235,0.0126,-0.0246,-0.0126,-0.0246,0*%
%AMMACRO2*4,1,8,-0.0067,-0.0246,-0.0079,-0.0235,-0.0079,0.0235,-0.0067,0.0246,0.0067,0.0246,0.0079,0.0235,0.0079,-0.0235,0.0067,-0.0246,-0.0067,-0.0246,0*%
%AMMACRO3*4,1,8,-0.0343,-0.0355,-0.0355,-0.0343,-0.0355,0.0343,-0.0343,0.0355,0.0343,0.0355,0.0355,0.0343,0.0355,-0.0343,0.0343,-0.0355,-0.0343,-0.0355,0*%
%AMMACRO4*4,1,8,-0.041,-0.0434,-0.0434,-0.041,-0.0434,0.041,-0.041,0.0434,0.041,0.0434,0.0434,0.041,0.0434,-0.041,0.041,-0.0434,-0.041,-0.0434,0*%
%AMMACRO5*4,1,8,-0.0318,-0.0374,-0.033,-0.0363,-0.033,0.0363,-0.0318,0.0374,0.0318,0.0374,0.033,0.0363,0.033,-0.0363,0.0318,-0.0374,-0.0318,-0.0374,0*%
%AMMACRO6*4,1,8,-0.0166,-0.0197,-0.0177,-0.0185,-0.0177,0.0185,-0.0166,0.0197,0.0166,0.0197,0.0177,0.0185,0.0177,-0.0185,0.0166,-0.0197,-0.0166,-0.0197,0*%
%AMMACRO7*4,1,8,-0.0178,-0.0179,-0.019,-0.0167,-0.019,0.0167,-0.0178,0.0179,0.0178,0.0179,0.019,0.0167,0.019,-0.0167,0.0178,-0.0179,-0.0178,-0.0179,0*%
%AMMACRO8*4,1,8,-0.0167,-0.019,-0.0179,-0.0178,-0.0179,0.0178,-0.0167,0.019,0.0167,0.019,0.0179,0.0178,0.0179,-0.0178,0.0167,-0.019,-0.0167,-0.019,0*%
%AMMACRO9*4,1,8,-0.0077,-0.0365,-0.0089,-0.0353,-0.0089,0.0353,-0.0077,0.0365,0.0077,0.0365,0.0089,0.0353,0.0089,-0.0353,0.0077,-0.0365,-0.0077,-0.0365,0*%
%AMMACRO10*4,1,8,-0.0185,-0.0217,-0.0197,-0.0205,-0.0197,0.0205,-0.0185,0.0217,0.0185,0.0217,0.0197,0.0205,0.0197,-0.0205,0.0185,-0.0217,-0.0185,-0.0217,0*%
%AMMACRO11*4,1,8,-0.054,-0.0551,-0.0551,-0.054,-0.0551,0.054,-0.054,0.0551,0.054,0.0551,0.0551,0.054,0.0551,-0.054,0.054,-0.0551,-0.054,-0.0551,0*%
%ADD10MACRO1*%
%ADD11MACRO2*%
%ADD12MACRO3*%
%ADD13O,0.04337X0.078803*%
%ADD14MACRO4*%
%ADD15C,0.0143*%
%ADD16C,0.0749*%
%ADD17C,0.0740*%
%ADD18C,0.0740*%
%ADD19C,0.2402*%
%ADD20MACRO5*%
%ADD21C,0.1024*%
%ADD22C,0.0640*%
%ADD23MACRO6*%
%ADD24MACRO7*%
%ADD25MACRO8*%
%ADD26MACRO9*%
%ADD27C,0.0709*%
%ADD28C,0.1299*%
%ADD29MACRO10*%
%ADD30O,0.015024X0.035496*%
%ADD31O,0.035496X0.015024*%
%ADD32MACRO11*%

%LPD*%
D10*
G01*
X2565984Y1788D03*
G01*
X2534487Y1788D03*
D11*
G01*
X2508895Y1788D03*
G01*
X2489213Y1788D03*
G01*
X2469529Y1788D03*
G01*
X2449845Y1788D03*
G01*
X2430160Y1788D03*
G01*
X2410476Y1788D03*
G01*
X2390790Y1788D03*
G01*
X2371105Y1788D03*
D10*
G01*
X2345512Y1788D03*
G01*
X2314015Y1788D03*
D12*
G01*
X2637833Y-181783D03*
G01*
X2242165Y-181783D03*
D13*
G01*
X2610280Y-28249D03*
G01*
X2269729Y-28249D03*
D10*
G01*
X3125984Y1788D03*
G01*
X3094487Y1788D03*
D11*
G01*
X3068895Y1788D03*
G01*
X3049213Y1788D03*
G01*
X3029529Y1788D03*
G01*
X3009845Y1788D03*
G01*
X2990160Y1788D03*
G01*
X2970476Y1788D03*
G01*
X2950790Y1788D03*
G01*
X2931105Y1788D03*
D10*
G01*
X2905512Y1788D03*
G01*
X2874015Y1788D03*
D12*
G01*
X3197833Y-181783D03*
G01*
X2802165Y-181783D03*
D13*
G01*
X3170280Y-28249D03*
G01*
X2829729Y-28249D03*
D14*
G01*
X1277877Y1014810D03*
D16*
G01*
X3154449Y1205870D03*
D17*
G01*
X1538119Y234499D03*
G01*
X1687719Y239220D03*
G01*
X1827489Y445909D03*
G01*
X2510559Y190010D03*
G01*
X1911340Y406539D03*
G01*
X2594409Y190010D03*
G01*
X2801499Y209299D03*
G01*
X3053080Y259690D03*
D18*
G01*
X3040860Y362440D03*
D17*
G01*
X3125000Y555000D03*
G01*
X3152680Y1007719D03*
G01*
X3234179Y861660D03*
G01*
X3279449Y460869D03*
D19*
G01*
X1059449Y1160870D03*
G01*
X3345720Y255850D03*
G01*
X1062219Y255850D03*
G01*
X3344420Y1162750D03*
D20*
G01*
X1254448Y1105870D03*
D16*
G01*
X1254449Y1205870D03*
G01*
X1354449Y1105870D03*
G01*
X1354449Y1205870D03*
G01*
X1454449Y1105870D03*
G01*
X1454449Y1205870D03*
G01*
X1554449Y1105870D03*
G01*
X1554449Y1205870D03*
G01*
X1654449Y1105870D03*
G01*
X1654449Y1205870D03*
G01*
X1754449Y1105870D03*
G01*
X1754449Y1205870D03*
G01*
X1854449Y1105870D03*
G01*
X1854449Y1205870D03*
G01*
X1954449Y1105870D03*
G01*
X1954449Y1205870D03*
G01*
X2054449Y1105870D03*
G01*
X2054449Y1205870D03*
G01*
X2154449Y1105870D03*
G01*
X2154449Y1205870D03*
G01*
X2254449Y1105870D03*
G01*
X2254449Y1205870D03*
G01*
X2354449Y1105870D03*
G01*
X2354449Y1205870D03*
G01*
X2454449Y1105870D03*
G01*
X2454449Y1205870D03*
G01*
X2554449Y1105870D03*
G01*
X2554449Y1205870D03*
G01*
X2654449Y1105870D03*
G01*
X2654449Y1205870D03*
G01*
X2754449Y1105870D03*
G01*
X2754449Y1205870D03*
G01*
X2854449Y1105870D03*
G01*
X2854449Y1205870D03*
G01*
X2954449Y1105870D03*
G01*
X2954449Y1205870D03*
G01*
X3054449Y1105870D03*
G01*
X3054449Y1205870D03*
G01*
X3154449Y1105870D03*
D21*
G01*
X1169920Y1929879D03*
G01*
X1810079Y1929879D03*
D22*
G01*
X1630550Y1899960D03*
G01*
X1590389Y1970039D03*
G01*
X1550240Y1899960D03*
G01*
X1510079Y1970039D03*
G01*
X1469920Y1899960D03*
G01*
X1429759Y1970039D03*
G01*
X1389610Y1899960D03*
G01*
X1349449Y1970039D03*
D23*
G01*
X2022559Y1350000D03*
G01*
X1967440Y1350000D03*
G01*
X2022559Y1495000D03*
G01*
X1967440Y1495000D03*
D24*
G01*
X2680000Y-60344D03*
G01*
X2680000Y-119655D03*
G01*
X2215000Y-60344D03*
G01*
X2215000Y-119655D03*
D25*
G01*
X2029655Y1575000D03*
G01*
X1970344Y1575000D03*
D21*
G01*
X1924920Y1929879D03*
G01*
X2565079Y1929879D03*
D22*
G01*
X2385550Y1899960D03*
G01*
X2345389Y1970039D03*
G01*
X2305240Y1899960D03*
G01*
X2265079Y1970039D03*
G01*
X2224920Y1899960D03*
G01*
X2184759Y1970039D03*
G01*
X2144610Y1899960D03*
G01*
X2104449Y1970039D03*
D26*
G01*
X2457500Y1376630D03*
G01*
X2432500Y1376630D03*
G01*
X2407500Y1376630D03*
G01*
X2382500Y1376630D03*
G01*
X2357500Y1376630D03*
G01*
X2332500Y1376630D03*
G01*
X2307500Y1376630D03*
G01*
X2282500Y1376630D03*
G01*
X2257500Y1376630D03*
G01*
X2232500Y1376630D03*
G01*
X2207500Y1376630D03*
G01*
X2182501Y1376630D03*
G01*
X2157501Y1376630D03*
G01*
X2132501Y1376630D03*
G01*
X2132501Y1583370D03*
G01*
X2157501Y1583370D03*
G01*
X2182501Y1583370D03*
G01*
X2207500Y1583370D03*
G01*
X2232500Y1583370D03*
G01*
X2257500Y1583370D03*
G01*
X2282500Y1583370D03*
G01*
X2307500Y1583370D03*
G01*
X2332500Y1583370D03*
G01*
X2357500Y1583370D03*
G01*
X2382500Y1583370D03*
G01*
X2407500Y1583370D03*
G01*
X2432500Y1583370D03*
G01*
X2457500Y1583370D03*
D27*
G01*
X3097799Y1780509D03*
G01*
X2999369Y1780509D03*
G01*
X2920630Y1780509D03*
G01*
X2822200Y1780509D03*
D28*
G01*
X2701340Y1662790D03*
G01*
X3218660Y1662790D03*
G01*
X2701340Y1887199D03*
G01*
X3218660Y1887199D03*
D27*
G01*
X3097799Y1677359D03*
G01*
X2999369Y1677359D03*
G01*
X2920630Y1677359D03*
G01*
X2822200Y1677359D03*
D29*
G01*
X2539486Y1448585D03*
G01*
X2539485Y1521416D03*
G01*
X2600515Y1521416D03*
G01*
X2600515Y1448585D03*
D23*
G01*
X1157440Y1520000D03*
G01*
X1212559Y1520000D03*
G01*
X1337559Y1590000D03*
G01*
X1282440Y1590000D03*
G01*
X1487559Y1345000D03*
G01*
X1432440Y1345000D03*
D25*
G01*
X1209655Y1410000D03*
G01*
X1150344Y1410000D03*
G01*
X1280344Y1410000D03*
G01*
X1339655Y1410000D03*
D30*
G01*
X1589210Y1568730D03*
G01*
X1569530Y1568730D03*
G01*
X1549840Y1568730D03*
G01*
X1530159Y1568730D03*
G01*
X1510469Y1568730D03*
G01*
X1490780Y1568730D03*
D31*
G01*
X1461260Y1539200D03*
G01*
X1461260Y1519520D03*
G01*
X1461260Y1499830D03*
G01*
X1461260Y1480149D03*
G01*
X1461260Y1460459D03*
G01*
X1461260Y1440779D03*
D30*
G01*
X1490780Y1411250D03*
G01*
X1510469Y1411250D03*
G01*
X1530159Y1411250D03*
G01*
X1549840Y1411250D03*
G01*
X1569530Y1411250D03*
G01*
X1588900Y1411250D03*
D31*
G01*
X1618729Y1440779D03*
G01*
X1618729Y1460459D03*
G01*
X1618729Y1480149D03*
G01*
X1618729Y1499830D03*
G01*
X1618729Y1519520D03*
G01*
X1618729Y1539200D03*
D32*
G01*
X1539500Y1490000D03*
D24*
G01*
X3230000Y-60344D03*
G01*
X3230000Y-119655D03*
G01*
X2765000Y-60344D03*
G01*
X2765000Y-119655D03*
D23*
G01*
X1157440Y1590000D03*
G01*
X1212559Y1590000D03*
G01*
X1337559Y1520000D03*
G01*
X1282440Y1520000D03*
D19*
G01*
X1000000Y2085000D03*
G01*
X3400000Y2080000D03*
G01*
X3400000Y-100000D03*
G01*
X1000000Y-100000D03*
M02*
