G04 Layer: TopSilkscreenLayer*
G04 EasyEDA v6.5.51, 2025-12-13 04:46:10*
G04 afe304bc349a47aca8f85fda98863c0f,54a2198792e84a5b8b180a78bcbfafa7,10*
G04 Gerber Generator version 0.2*
G04 Scale: 100 percent, Rotated: No, Reflected: No *
G04 Dimensions in inches *
G04 leading zeros omitted , absolute positions ,3 integer and 6 decimal *
%FSLAX36Y36*%
%MOIN*%

%ADD10C,0.0060*%
%ADD11C,0.0100*%
%ADD12C,0.0080*%
%ADD13C,0.0079*%
%ADD14C,0.0082*%
%ADD15C,0.0150*%

%LPD*%
D10*
X2369975Y-159555D02*
G01*
X2369975Y-190255D01*
X2372075Y-196455D01*
X2376175Y-200455D01*
X2382274Y-202555D01*
X2386374Y-202555D01*
X2392475Y-200455D01*
X2396575Y-196455D01*
X2398675Y-190255D01*
X2398675Y-159555D01*
X2440775Y-165754D02*
G01*
X2436674Y-161655D01*
X2430574Y-159555D01*
X2422375Y-159555D01*
X2416274Y-161655D01*
X2412174Y-165754D01*
X2412174Y-169854D01*
X2414174Y-173955D01*
X2416274Y-175954D01*
X2420275Y-177955D01*
X2432574Y-182055D01*
X2436674Y-184155D01*
X2438774Y-186154D01*
X2440775Y-190255D01*
X2440775Y-196455D01*
X2436674Y-200455D01*
X2430574Y-202555D01*
X2422375Y-202555D01*
X2416274Y-200455D01*
X2412174Y-196455D01*
X2454274Y-159555D02*
G01*
X2454274Y-202555D01*
X2454274Y-159555D02*
G01*
X2472674Y-159555D01*
X2478774Y-161655D01*
X2480874Y-163654D01*
X2482875Y-167755D01*
X2482875Y-171855D01*
X2480874Y-175954D01*
X2478774Y-177955D01*
X2472674Y-180055D01*
X2454274Y-180055D02*
G01*
X2472674Y-180055D01*
X2478774Y-182055D01*
X2480874Y-184155D01*
X2482875Y-188254D01*
X2482875Y-194355D01*
X2480874Y-198454D01*
X2478774Y-200455D01*
X2472674Y-202555D01*
X2454274Y-202555D01*
X2498474Y-169854D02*
G01*
X2498474Y-167755D01*
X2500474Y-163654D01*
X2502574Y-161655D01*
X2506674Y-159555D01*
X2514774Y-159555D01*
X2518874Y-161655D01*
X2520974Y-163654D01*
X2522974Y-167755D01*
X2522974Y-171855D01*
X2520974Y-175954D01*
X2516875Y-182055D01*
X2496374Y-202555D01*
X2525074Y-202555D01*
X2924975Y-159555D02*
G01*
X2924975Y-190255D01*
X2927075Y-196455D01*
X2931175Y-200455D01*
X2937274Y-202555D01*
X2941374Y-202555D01*
X2947475Y-200455D01*
X2951575Y-196455D01*
X2953675Y-190255D01*
X2953675Y-159555D01*
X2995775Y-165754D02*
G01*
X2991674Y-161655D01*
X2985574Y-159555D01*
X2977375Y-159555D01*
X2971274Y-161655D01*
X2967174Y-165754D01*
X2967174Y-169854D01*
X2969174Y-173955D01*
X2971274Y-175954D01*
X2975275Y-177955D01*
X2987574Y-182055D01*
X2991674Y-184155D01*
X2993774Y-186154D01*
X2995775Y-190255D01*
X2995775Y-196455D01*
X2991674Y-200455D01*
X2985574Y-202555D01*
X2977375Y-202555D01*
X2971274Y-200455D01*
X2967174Y-196455D01*
X3009274Y-159555D02*
G01*
X3009274Y-202555D01*
X3009274Y-159555D02*
G01*
X3027674Y-159555D01*
X3033774Y-161655D01*
X3035874Y-163654D01*
X3037875Y-167755D01*
X3037875Y-171855D01*
X3035874Y-175954D01*
X3033774Y-177955D01*
X3027674Y-180055D01*
X3009274Y-180055D02*
G01*
X3027674Y-180055D01*
X3033774Y-182055D01*
X3035874Y-184155D01*
X3037875Y-188254D01*
X3037875Y-194355D01*
X3035874Y-198454D01*
X3033774Y-200455D01*
X3027674Y-202555D01*
X3009274Y-202555D01*
X3055474Y-159555D02*
G01*
X3077974Y-159555D01*
X3065775Y-175954D01*
X3071875Y-175954D01*
X3075974Y-177955D01*
X3077974Y-180055D01*
X3080074Y-186154D01*
X3080074Y-190255D01*
X3077974Y-196455D01*
X3073874Y-200455D01*
X3067775Y-202555D01*
X3061674Y-202555D01*
X3055474Y-200455D01*
X3053474Y-198454D01*
X3051374Y-194355D01*
X864600Y700000D02*
G01*
X895299Y700000D01*
X901400Y701999D01*
X905500Y706100D01*
X907500Y712300D01*
X907500Y716399D01*
X905500Y722500D01*
X901400Y726599D01*
X895299Y728600D01*
X864600Y728600D01*
X872799Y742100D02*
G01*
X870699Y746199D01*
X864600Y752399D01*
X907500Y752399D01*
X1185000Y1715399D02*
G01*
X1185000Y1672500D01*
X1185000Y1715399D02*
G01*
X1203400Y1715399D01*
X1209499Y1713400D01*
X1211599Y1711300D01*
X1213599Y1707199D01*
X1213599Y1703099D01*
X1211599Y1699000D01*
X1209499Y1696999D01*
X1203400Y1695000D01*
X1185000Y1695000D01*
X1199300Y1695000D02*
G01*
X1213599Y1672500D01*
X1247600Y1715399D02*
G01*
X1247600Y1682699D01*
X1245500Y1676500D01*
X1243500Y1674499D01*
X1239399Y1672500D01*
X1235299Y1672500D01*
X1231199Y1674499D01*
X1229200Y1676500D01*
X1227100Y1682699D01*
X1227100Y1686799D01*
X1261099Y1707199D02*
G01*
X1265200Y1709299D01*
X1271300Y1715399D01*
X1271300Y1672500D01*
X1895699Y1365199D02*
G01*
X1893599Y1369299D01*
X1889499Y1373400D01*
X1885500Y1375399D01*
X1877299Y1375399D01*
X1873199Y1373400D01*
X1869099Y1369299D01*
X1866999Y1365199D01*
X1865000Y1359000D01*
X1865000Y1348800D01*
X1866999Y1342699D01*
X1869099Y1338600D01*
X1873199Y1334499D01*
X1877299Y1332500D01*
X1885500Y1332500D01*
X1889499Y1334499D01*
X1893599Y1338600D01*
X1895699Y1342699D01*
X1909200Y1367199D02*
G01*
X1913299Y1369299D01*
X1919399Y1375399D01*
X1919399Y1332500D01*
X1885699Y1500199D02*
G01*
X1883599Y1504299D01*
X1879499Y1508400D01*
X1875500Y1510399D01*
X1867299Y1510399D01*
X1863199Y1508400D01*
X1859099Y1504299D01*
X1856999Y1500199D01*
X1855000Y1494000D01*
X1855000Y1483800D01*
X1856999Y1477699D01*
X1859099Y1473600D01*
X1863199Y1469499D01*
X1867299Y1467500D01*
X1875500Y1467500D01*
X1879499Y1469499D01*
X1883599Y1473600D01*
X1885699Y1477699D01*
X1901199Y1500199D02*
G01*
X1901199Y1502199D01*
X1903299Y1506300D01*
X1905299Y1508400D01*
X1909399Y1510399D01*
X1917600Y1510399D01*
X1921700Y1508400D01*
X1923699Y1506300D01*
X1925799Y1502199D01*
X1925799Y1498099D01*
X1923699Y1494000D01*
X1919600Y1487899D01*
X1899200Y1467500D01*
X1927799Y1467500D01*
X2659600Y-25000D02*
G01*
X2702500Y-25000D01*
X2659600Y-25000D02*
G01*
X2659600Y-6599D01*
X2661599Y-500D01*
X2663699Y1599D01*
X2667799Y3600D01*
X2671899Y3600D01*
X2676000Y1599D01*
X2678000Y-500D01*
X2680000Y-6599D01*
X2680000Y-25000D01*
X2680000Y-10700D02*
G01*
X2702500Y3600D01*
X2667799Y17100D02*
G01*
X2665699Y21199D01*
X2659600Y27399D01*
X2702500Y27399D01*
X2194600Y-25000D02*
G01*
X2237500Y-25000D01*
X2194600Y-25000D02*
G01*
X2194600Y-6599D01*
X2196599Y-500D01*
X2198699Y1599D01*
X2202799Y3600D01*
X2206899Y3600D01*
X2211000Y1599D01*
X2213000Y-500D01*
X2215000Y-6599D01*
X2215000Y-25000D01*
X2215000Y-10700D02*
G01*
X2237500Y3600D01*
X2204799Y19200D02*
G01*
X2202799Y19200D01*
X2198699Y21199D01*
X2196599Y23299D01*
X2194600Y27399D01*
X2194600Y35500D01*
X2196599Y39600D01*
X2198699Y41700D01*
X2202799Y43699D01*
X2206899Y43699D01*
X2211000Y41700D01*
X2217100Y37600D01*
X2237500Y17100D01*
X2237500Y45799D01*
X1860000Y1595399D02*
G01*
X1860000Y1552500D01*
X1860000Y1595399D02*
G01*
X1878400Y1595399D01*
X1884499Y1593400D01*
X1886599Y1591300D01*
X1888599Y1587199D01*
X1888599Y1583099D01*
X1886599Y1579000D01*
X1884499Y1576999D01*
X1878400Y1575000D01*
X1860000Y1575000D01*
X1874300Y1575000D02*
G01*
X1888599Y1552500D01*
X1906199Y1595399D02*
G01*
X1928699Y1595399D01*
X1916499Y1579000D01*
X1922600Y1579000D01*
X1926700Y1576999D01*
X1928699Y1575000D01*
X1930799Y1568800D01*
X1930799Y1564699D01*
X1928699Y1558600D01*
X1924600Y1554499D01*
X1918500Y1552500D01*
X1912399Y1552500D01*
X1906199Y1554499D01*
X1904200Y1556500D01*
X1902100Y1560599D01*
X1940000Y1720399D02*
G01*
X1940000Y1677500D01*
X1940000Y1720399D02*
G01*
X1958400Y1720399D01*
X1964499Y1718400D01*
X1966599Y1716300D01*
X1968599Y1712199D01*
X1968599Y1708099D01*
X1966599Y1704000D01*
X1964499Y1701999D01*
X1958400Y1700000D01*
X1940000Y1700000D01*
X1954300Y1700000D02*
G01*
X1968599Y1677500D01*
X2002600Y1720399D02*
G01*
X2002600Y1687699D01*
X2000500Y1681500D01*
X1998500Y1679499D01*
X1994399Y1677500D01*
X1990299Y1677500D01*
X1986199Y1679499D01*
X1984200Y1681500D01*
X1982100Y1687699D01*
X1982100Y1691799D01*
X2018100Y1710199D02*
G01*
X2018100Y1712199D01*
X2020200Y1716300D01*
X2022200Y1718400D01*
X2026300Y1720399D01*
X2034499Y1720399D01*
X2038599Y1718400D01*
X2040600Y1716300D01*
X2042700Y1712199D01*
X2042700Y1708099D01*
X2040600Y1704000D01*
X2036499Y1697899D01*
X2016099Y1677500D01*
X2044700Y1677500D01*
X2255000Y1500399D02*
G01*
X2255000Y1469699D01*
X2256999Y1463600D01*
X2261099Y1459499D01*
X2267299Y1457500D01*
X2271400Y1457500D01*
X2277500Y1459499D01*
X2281599Y1463600D01*
X2283599Y1469699D01*
X2283599Y1500399D01*
X2299200Y1490199D02*
G01*
X2299200Y1492199D01*
X2301199Y1496300D01*
X2303299Y1498400D01*
X2307399Y1500399D01*
X2315500Y1500399D01*
X2319600Y1498400D01*
X2321700Y1496300D01*
X2323699Y1492199D01*
X2323699Y1488099D01*
X2321700Y1484000D01*
X2317600Y1477899D01*
X2297100Y1457500D01*
X2325799Y1457500D01*
X2967899Y1541505D02*
G01*
X2967899Y1572204D01*
X2965900Y1578305D01*
X2961800Y1582404D01*
X2955600Y1584405D01*
X2951499Y1584405D01*
X2945399Y1582404D01*
X2941300Y1578305D01*
X2939300Y1572204D01*
X2939300Y1541505D01*
X2897100Y1547604D02*
G01*
X2901199Y1543505D01*
X2907399Y1541505D01*
X2915500Y1541505D01*
X2921700Y1543505D01*
X2925799Y1547604D01*
X2925799Y1551705D01*
X2923699Y1555805D01*
X2921700Y1557905D01*
X2917600Y1559904D01*
X2905299Y1564005D01*
X2901199Y1566005D01*
X2899200Y1568105D01*
X2897100Y1572204D01*
X2897100Y1578305D01*
X2901199Y1582404D01*
X2907399Y1584405D01*
X2915500Y1584405D01*
X2921700Y1582404D01*
X2925799Y1578305D01*
X2883599Y1541505D02*
G01*
X2883599Y1584405D01*
X2883599Y1541505D02*
G01*
X2865200Y1541505D01*
X2859099Y1543505D01*
X2856999Y1545605D01*
X2855000Y1549704D01*
X2855000Y1553805D01*
X2856999Y1557905D01*
X2859099Y1559904D01*
X2865200Y1561905D01*
X2883599Y1561905D02*
G01*
X2865200Y1561905D01*
X2859099Y1564005D01*
X2856999Y1566005D01*
X2855000Y1570104D01*
X2855000Y1576305D01*
X2856999Y1580405D01*
X2859099Y1582404D01*
X2865200Y1584405D01*
X2883599Y1584405D01*
X2841499Y1549704D02*
G01*
X2837399Y1547604D01*
X2831300Y1541505D01*
X2831300Y1584405D01*
X2574994Y1610394D02*
G01*
X2603594Y1567494D01*
X2603594Y1610394D02*
G01*
X2574994Y1567494D01*
X2617094Y1602195D02*
G01*
X2621194Y1604295D01*
X2627394Y1610394D01*
X2627394Y1567494D01*
X1089300Y1509800D02*
G01*
X1091400Y1505700D01*
X1095500Y1501599D01*
X1099499Y1499600D01*
X1107700Y1499600D01*
X1111800Y1501599D01*
X1115900Y1505700D01*
X1118000Y1509800D01*
X1120000Y1515999D01*
X1120000Y1526199D01*
X1118000Y1532300D01*
X1115900Y1536399D01*
X1111800Y1540500D01*
X1107700Y1542500D01*
X1099499Y1542500D01*
X1095500Y1540500D01*
X1091400Y1536399D01*
X1089300Y1532300D01*
X1071700Y1499600D02*
G01*
X1049200Y1499600D01*
X1061499Y1515999D01*
X1055399Y1515999D01*
X1051300Y1518000D01*
X1049200Y1520000D01*
X1047200Y1526199D01*
X1047200Y1530300D01*
X1049200Y1536399D01*
X1053299Y1540500D01*
X1059499Y1542500D01*
X1065600Y1542500D01*
X1071700Y1540500D01*
X1073800Y1538499D01*
X1075799Y1534400D01*
X1405699Y1600199D02*
G01*
X1403599Y1604299D01*
X1399499Y1608400D01*
X1395500Y1610399D01*
X1387299Y1610399D01*
X1383199Y1608400D01*
X1379099Y1604299D01*
X1376999Y1600199D01*
X1375000Y1594000D01*
X1375000Y1583800D01*
X1376999Y1577699D01*
X1379099Y1573600D01*
X1383199Y1569499D01*
X1387299Y1567500D01*
X1395500Y1567500D01*
X1399499Y1569499D01*
X1403599Y1573600D01*
X1405699Y1577699D01*
X1443699Y1610399D02*
G01*
X1423299Y1610399D01*
X1421199Y1591999D01*
X1423299Y1594000D01*
X1429399Y1596100D01*
X1435500Y1596100D01*
X1441700Y1594000D01*
X1445799Y1590000D01*
X1447799Y1583800D01*
X1447799Y1579699D01*
X1445799Y1573600D01*
X1441700Y1569499D01*
X1435500Y1567500D01*
X1429399Y1567500D01*
X1423299Y1569499D01*
X1421199Y1571500D01*
X1419200Y1575599D01*
X1555699Y1360199D02*
G01*
X1553599Y1364299D01*
X1549499Y1368400D01*
X1545500Y1370399D01*
X1537299Y1370399D01*
X1533199Y1368400D01*
X1529099Y1364299D01*
X1526999Y1360199D01*
X1525000Y1354000D01*
X1525000Y1343800D01*
X1526999Y1337699D01*
X1529099Y1333600D01*
X1533199Y1329499D01*
X1537299Y1327500D01*
X1545500Y1327500D01*
X1549499Y1329499D01*
X1553599Y1333600D01*
X1555699Y1337699D01*
X1593699Y1364299D02*
G01*
X1591700Y1368400D01*
X1585500Y1370399D01*
X1581499Y1370399D01*
X1575299Y1368400D01*
X1571199Y1362199D01*
X1569200Y1351999D01*
X1569200Y1341799D01*
X1571199Y1333600D01*
X1575299Y1329499D01*
X1581499Y1327500D01*
X1583500Y1327500D01*
X1589600Y1329499D01*
X1593699Y1333600D01*
X1595799Y1339699D01*
X1595799Y1341799D01*
X1593699Y1347899D01*
X1589600Y1351999D01*
X1583500Y1354000D01*
X1581499Y1354000D01*
X1575299Y1351999D01*
X1571199Y1347899D01*
X1569200Y1341799D01*
X1115000Y1389600D02*
G01*
X1115000Y1432500D01*
X1115000Y1389600D02*
G01*
X1096599Y1389600D01*
X1090500Y1391599D01*
X1088400Y1393699D01*
X1086400Y1397800D01*
X1086400Y1401900D01*
X1088400Y1405999D01*
X1090500Y1408000D01*
X1096599Y1410000D01*
X1115000Y1410000D01*
X1100699Y1410000D02*
G01*
X1086400Y1432500D01*
X1052399Y1389600D02*
G01*
X1072899Y1418200D01*
X1042200Y1418200D01*
X1052399Y1389600D02*
G01*
X1052399Y1432500D01*
X1375000Y1430399D02*
G01*
X1375000Y1387500D01*
X1375000Y1430399D02*
G01*
X1393400Y1430399D01*
X1399499Y1428400D01*
X1401599Y1426300D01*
X1403599Y1422199D01*
X1403599Y1418099D01*
X1401599Y1414000D01*
X1399499Y1411999D01*
X1393400Y1410000D01*
X1375000Y1410000D01*
X1389300Y1410000D02*
G01*
X1403599Y1387500D01*
X1441700Y1430399D02*
G01*
X1421199Y1430399D01*
X1419200Y1411999D01*
X1421199Y1414000D01*
X1427399Y1416100D01*
X1433500Y1416100D01*
X1439600Y1414000D01*
X1443699Y1410000D01*
X1445799Y1403800D01*
X1445799Y1399699D01*
X1443699Y1393600D01*
X1439600Y1389499D01*
X1433500Y1387500D01*
X1427399Y1387500D01*
X1421199Y1389499D01*
X1419200Y1391500D01*
X1417100Y1395599D01*
X1655000Y1590399D02*
G01*
X1655000Y1559699D01*
X1656999Y1553600D01*
X1661099Y1549499D01*
X1667299Y1547500D01*
X1671400Y1547500D01*
X1677500Y1549499D01*
X1681599Y1553600D01*
X1683599Y1559699D01*
X1683599Y1590399D01*
X1717600Y1590399D02*
G01*
X1697100Y1561799D01*
X1727799Y1561799D01*
X1717600Y1590399D02*
G01*
X1717600Y1547500D01*
X3209600Y-25000D02*
G01*
X3252500Y-25000D01*
X3209600Y-25000D02*
G01*
X3209600Y-6599D01*
X3211599Y-500D01*
X3213699Y1599D01*
X3217799Y3600D01*
X3221899Y3600D01*
X3226000Y1599D01*
X3228000Y-500D01*
X3230000Y-6599D01*
X3230000Y-25000D01*
X3230000Y-10700D02*
G01*
X3252500Y3600D01*
X3215699Y41700D02*
G01*
X3211599Y39600D01*
X3209600Y33499D01*
X3209600Y29400D01*
X3211599Y23299D01*
X3217799Y19200D01*
X3228000Y17100D01*
X3238199Y17100D01*
X3246400Y19200D01*
X3250500Y23299D01*
X3252500Y29400D01*
X3252500Y31500D01*
X3250500Y37600D01*
X3246400Y41700D01*
X3240299Y43699D01*
X3238199Y43699D01*
X3232100Y41700D01*
X3228000Y37600D01*
X3226000Y31500D01*
X3226000Y29400D01*
X3228000Y23299D01*
X3232100Y19200D01*
X3238199Y17100D01*
X2744600Y-25000D02*
G01*
X2787500Y-25000D01*
X2744600Y-25000D02*
G01*
X2744600Y-6599D01*
X2746599Y-500D01*
X2748699Y1599D01*
X2752799Y3600D01*
X2756899Y3600D01*
X2761000Y1599D01*
X2763000Y-500D01*
X2765000Y-6599D01*
X2765000Y-25000D01*
X2765000Y-10700D02*
G01*
X2787500Y3600D01*
X2744600Y45799D02*
G01*
X2787500Y25300D01*
X2744600Y17100D02*
G01*
X2744600Y45799D01*
X1089300Y1579800D02*
G01*
X1091400Y1575700D01*
X1095500Y1571599D01*
X1099499Y1569600D01*
X1107700Y1569600D01*
X1111800Y1571599D01*
X1115900Y1575700D01*
X1118000Y1579800D01*
X1120000Y1585999D01*
X1120000Y1596199D01*
X1118000Y1602300D01*
X1115900Y1606399D01*
X1111800Y1610500D01*
X1107700Y1612500D01*
X1099499Y1612500D01*
X1095500Y1610500D01*
X1091400Y1606399D01*
X1089300Y1602300D01*
X1055399Y1569600D02*
G01*
X1075799Y1598200D01*
X1045100Y1598200D01*
X1055399Y1569600D02*
G01*
X1055399Y1612500D01*
X1405699Y1535199D02*
G01*
X1403599Y1539299D01*
X1399499Y1543400D01*
X1395500Y1545399D01*
X1387299Y1545399D01*
X1383199Y1543400D01*
X1379099Y1539299D01*
X1376999Y1535199D01*
X1375000Y1529000D01*
X1375000Y1518800D01*
X1376999Y1512699D01*
X1379099Y1508600D01*
X1383199Y1504499D01*
X1387299Y1502500D01*
X1395500Y1502500D01*
X1399499Y1504499D01*
X1403599Y1508600D01*
X1405699Y1512699D01*
X1447799Y1545399D02*
G01*
X1427399Y1502500D01*
X1419200Y1545399D02*
G01*
X1447799Y1545399D01*
G36*
X1604600Y1609980D02*
G01*
X1602820Y1609740D01*
X1601120Y1609180D01*
X1599540Y1608340D01*
X1598140Y1607240D01*
X1596940Y1605900D01*
X1596020Y1604360D01*
X1595380Y1602680D01*
X1595060Y1600920D01*
X1595020Y1599940D01*
X1595180Y1598160D01*
X1595660Y1596420D01*
X1596459Y1594820D01*
X1596940Y1594079D01*
X1598140Y1592720D01*
X1599540Y1591620D01*
X1601120Y1590780D01*
X1602820Y1590220D01*
X1603700Y1590060D01*
X1605480Y1590000D01*
X1607260Y1590240D01*
X1608959Y1590800D01*
X1610540Y1591639D01*
X1611940Y1592760D01*
X1613120Y1594120D01*
X1614019Y1595640D01*
X1614660Y1597320D01*
X1614980Y1599079D01*
X1614980Y1600880D01*
X1614660Y1602640D01*
X1614019Y1604319D01*
X1613120Y1605860D01*
X1611940Y1607200D01*
X1610540Y1608320D01*
X1608959Y1609160D01*
X1607260Y1609720D01*
X1605480Y1609980D01*
G37*
D11*
X2266773Y-141579D02*
G01*
X2266773Y-78532D01*
X2266773Y-239945D02*
G01*
X2266773Y-226707D01*
X2613227Y-141579D02*
G01*
X2613227Y-78532D01*
X2613227Y-239945D02*
G01*
X2613227Y-226707D01*
X2613227Y-295958D02*
G01*
X2613227Y-239945D01*
X2266773Y-295958D02*
G01*
X2266773Y-239945D01*
X2266773Y-295958D02*
G01*
X2613227Y-295958D01*
X2826773Y-141579D02*
G01*
X2826773Y-78532D01*
X2826773Y-239945D02*
G01*
X2826773Y-226707D01*
X3173227Y-141579D02*
G01*
X3173227Y-78532D01*
X3173227Y-239945D02*
G01*
X3173227Y-226707D01*
X3173227Y-295958D02*
G01*
X3173227Y-239945D01*
X2826773Y-295958D02*
G01*
X2826773Y-239945D01*
X2826773Y-295958D02*
G01*
X3173227Y-295958D01*
X1041261Y114448D02*
G01*
X3364095Y114448D01*
X923150Y1177438D02*
G01*
X923150Y232557D01*
X3481346Y234340D02*
G01*
X3481346Y1179223D01*
X3364095Y1295549D02*
G01*
X1041261Y1295549D01*
D12*
X1204448Y1255871D02*
G01*
X1204448Y1055871D01*
X3204448Y1055871D01*
X3204448Y1255871D01*
X1204448Y1255871D01*
D11*
X1810002Y1865001D02*
G01*
X1810002Y1660001D01*
X1170002Y1660001D01*
X1170002Y1865001D01*
X1169921Y1995001D02*
G01*
X1169921Y2285001D01*
X1810079Y2285001D01*
X1810079Y1995001D01*
X1983968Y1322064D02*
G01*
X1952474Y1322064D01*
X2006033Y1322046D02*
G01*
X2037529Y1322046D01*
X1983968Y1377957D02*
G01*
X1952474Y1377957D01*
X2006033Y1377937D02*
G01*
X2037529Y1377937D01*
X1940279Y1334261D02*
G01*
X1940279Y1365760D01*
X2049724Y1365738D02*
G01*
X2049724Y1334241D01*
X1983968Y1467064D02*
G01*
X1952474Y1467064D01*
X2006033Y1467046D02*
G01*
X2037529Y1467046D01*
X1983968Y1522957D02*
G01*
X1952474Y1522957D01*
X2006033Y1522937D02*
G01*
X2037529Y1522937D01*
X1940279Y1479261D02*
G01*
X1940279Y1510760D01*
X2049724Y1510738D02*
G01*
X2049724Y1479241D01*
D10*
X2706008Y-73220D02*
G01*
X2706008Y-35468D01*
X2653991Y-35468D01*
X2653991Y-73220D01*
X2706008Y-106779D02*
G01*
X2706008Y-144531D01*
X2653991Y-144531D01*
X2653991Y-106779D01*
X2241008Y-73220D02*
G01*
X2241008Y-35468D01*
X2188991Y-35468D01*
X2188991Y-73220D01*
X2241008Y-106779D02*
G01*
X2241008Y-144531D01*
X2188991Y-144531D01*
X2188991Y-106779D01*
X2016779Y1548991D02*
G01*
X2054530Y1548991D01*
X2054530Y1601008D01*
X2016779Y1601008D01*
X1983220Y1548991D02*
G01*
X1945469Y1548991D01*
X1945469Y1601008D01*
X1983220Y1601008D01*
D11*
X2565002Y1865001D02*
G01*
X2565002Y1660001D01*
X1925002Y1660001D01*
X1925002Y1865001D01*
X1924921Y1995001D02*
G01*
X1924921Y2285001D01*
X2565079Y2285001D01*
X2565079Y1995001D01*
X2100118Y1403229D02*
G01*
X2100118Y1556772D01*
X2116511Y1403229D02*
G01*
X2100118Y1403229D01*
X2489880Y1403229D02*
G01*
X2473490Y1403229D01*
X2489880Y1556772D02*
G01*
X2489880Y1403229D01*
X2473490Y1556772D02*
G01*
X2489880Y1556772D01*
X2100118Y1556772D02*
G01*
X2116511Y1556772D01*
X2676535Y2290747D02*
G01*
X2676535Y1954888D01*
X2676535Y2290747D02*
G01*
X3243464Y2290747D01*
X3243464Y1954888D01*
X2763149Y1979724D02*
G01*
X2776931Y2205826D01*
X2890439Y2205385D01*
X2909930Y1979594D01*
X2889899Y1979747D01*
X2869809Y2158497D01*
X2866850Y2185196D01*
X2797961Y2184776D01*
X2779300Y1996655D01*
X2778121Y1979724D01*
X2763149Y1979724D01*
X2960000Y1960039D02*
G01*
X2957941Y2068591D01*
X2921741Y2059931D01*
X2921741Y2167020D01*
X2957930Y2159140D01*
X2957930Y2288301D01*
X3243464Y1960014D02*
G01*
X2676535Y1960014D01*
X3126060Y2085095D02*
G01*
X3037080Y2085095D01*
X3120550Y2132734D02*
G01*
X3040631Y2132734D01*
X3011180Y1979724D02*
G01*
X3024961Y2205825D01*
X3138470Y2205385D01*
X3157960Y1979594D01*
X3137930Y1979744D01*
X3117840Y2158494D01*
X3114880Y2185194D01*
X3045991Y2184774D01*
X3027331Y1996655D01*
X3026151Y1979724D01*
X3011180Y1979724D01*
X2878110Y2086426D02*
G01*
X2789130Y2086426D01*
X2872601Y2134065D02*
G01*
X2792681Y2134065D01*
X3243464Y1819520D02*
G01*
X3243464Y1730479D01*
X2676535Y1730479D02*
G01*
X2676535Y1815621D01*
X3180363Y1601772D02*
G01*
X2739636Y1601772D01*
D10*
X2578885Y1406984D02*
G01*
X2640185Y1406984D01*
X2640185Y1472184D01*
X2631166Y1415961D02*
G01*
X2510803Y1415961D01*
X2510803Y1556008D01*
X2631166Y1556008D01*
X2631166Y1415961D01*
D11*
X1196031Y1547935D02*
G01*
X1227525Y1547935D01*
X1173966Y1547953D02*
G01*
X1142470Y1547953D01*
X1196031Y1492042D02*
G01*
X1227525Y1492042D01*
X1173966Y1492062D02*
G01*
X1142470Y1492062D01*
X1239720Y1535738D02*
G01*
X1239720Y1504239D01*
X1130275Y1504261D02*
G01*
X1130275Y1535758D01*
X1298968Y1562064D02*
G01*
X1267474Y1562064D01*
X1321033Y1562046D02*
G01*
X1352529Y1562046D01*
X1298968Y1617957D02*
G01*
X1267474Y1617957D01*
X1321033Y1617937D02*
G01*
X1352529Y1617937D01*
X1255279Y1574261D02*
G01*
X1255279Y1605760D01*
X1364724Y1605738D02*
G01*
X1364724Y1574241D01*
X1448968Y1317064D02*
G01*
X1417474Y1317064D01*
X1471033Y1317046D02*
G01*
X1502529Y1317046D01*
X1448968Y1372957D02*
G01*
X1417474Y1372957D01*
X1471033Y1372937D02*
G01*
X1502529Y1372937D01*
X1405279Y1329261D02*
G01*
X1405279Y1360760D01*
X1514724Y1360738D02*
G01*
X1514724Y1329241D01*
D10*
X1196779Y1383991D02*
G01*
X1234530Y1383991D01*
X1234530Y1436008D01*
X1196779Y1436008D01*
X1163220Y1383991D02*
G01*
X1125469Y1383991D01*
X1125469Y1436008D01*
X1163220Y1436008D01*
X1293220Y1436008D02*
G01*
X1255469Y1436008D01*
X1255469Y1383991D01*
X1293220Y1383991D01*
X1326779Y1436008D02*
G01*
X1364530Y1436008D01*
X1364530Y1383991D01*
X1326779Y1383991D01*
D13*
X1454849Y1421100D02*
G01*
X1454849Y1405349D01*
X1470600Y1405349D01*
X1624148Y1421100D02*
G01*
X1624148Y1405349D01*
X1608400Y1405349D01*
X1608400Y1574650D02*
G01*
X1624148Y1574650D01*
X1624148Y1558901D01*
X1454849Y1558901D02*
G01*
X1454849Y1574650D01*
X1470600Y1574650D01*
D10*
X3256008Y-73220D02*
G01*
X3256008Y-35468D01*
X3203991Y-35468D01*
X3203991Y-73220D01*
X3256008Y-106779D02*
G01*
X3256008Y-144531D01*
X3203991Y-144531D01*
X3203991Y-106779D01*
X2791008Y-73220D02*
G01*
X2791008Y-35468D01*
X2738991Y-35468D01*
X2738991Y-73220D01*
X2791008Y-106779D02*
G01*
X2791008Y-144531D01*
X2738991Y-144531D01*
X2738991Y-106779D01*
D11*
X1196031Y1617935D02*
G01*
X1227525Y1617935D01*
X1173966Y1617953D02*
G01*
X1142470Y1617953D01*
X1196031Y1562042D02*
G01*
X1227525Y1562042D01*
X1173966Y1562062D02*
G01*
X1142470Y1562062D01*
X1239720Y1605738D02*
G01*
X1239720Y1574239D01*
X1130275Y1574261D02*
G01*
X1130275Y1605758D01*
X1298968Y1492064D02*
G01*
X1267474Y1492064D01*
X1321033Y1492046D02*
G01*
X1352529Y1492046D01*
X1298968Y1547957D02*
G01*
X1267474Y1547957D01*
X1321033Y1547937D02*
G01*
X1352529Y1547937D01*
X1255279Y1504261D02*
G01*
X1255279Y1535760D01*
X1364724Y1535738D02*
G01*
X1364724Y1504241D01*
G75*
G01*
X3364098Y114448D02*
G03*
X3482208Y232558I0J118110D01*
G75*
G01*
X923153Y232468D02*
G03*
X1041263Y114448I118110J90D01*
G75*
G01*
X3482208Y1177530D02*
G03*
X3364098Y1295550I-118110J-90D01*
G75*
G01*
X1041197Y1295510D02*
G03*
X923177Y1177400I90J-118110D01*
G75*
G01*
X2037527Y1377938D02*
G02*
X2049725Y1365739I0J-12198D01*
G75*
G01*
X2049725Y1334244D02*
G02*
X2037527Y1322046I-12198J0D01*
G75*
G01*
X1952476Y1322064D02*
G02*
X1940279Y1334262I1J12198D01*
G75*
G01*
X1940279Y1365757D02*
G02*
X1952476Y1377957I12198J2D01*
G75*
G01*
X2037527Y1522938D02*
G02*
X2049725Y1510739I0J-12198D01*
G75*
G01*
X2049725Y1479244D02*
G02*
X2037527Y1467046I-12198J0D01*
G75*
G01*
X1952476Y1467064D02*
G02*
X1940279Y1479262I1J12198D01*
G75*
G01*
X1940279Y1510757D02*
G02*
X1952476Y1522957I12198J2D01*
G75*
G01*
X1142473Y1492062D02*
G02*
X1130275Y1504261I0J12198D01*
G75*
G01*
X1130275Y1535756D02*
G02*
X1142473Y1547954I12198J0D01*
G75*
G01*
X1227524Y1547936D02*
G02*
X1239721Y1535738I-1J-12198D01*
G75*
G01*
X1239721Y1504243D02*
G02*
X1227524Y1492043I-12198J-2D01*
G75*
G01*
X1352527Y1617938D02*
G02*
X1364725Y1605739I0J-12198D01*
G75*
G01*
X1364725Y1574244D02*
G02*
X1352527Y1562046I-12198J0D01*
G75*
G01*
X1267476Y1562064D02*
G02*
X1255279Y1574262I1J12198D01*
G75*
G01*
X1255279Y1605757D02*
G02*
X1267476Y1617957I12198J2D01*
G75*
G01*
X1502527Y1372938D02*
G02*
X1514725Y1360739I0J-12198D01*
G75*
G01*
X1514725Y1329244D02*
G02*
X1502527Y1317046I-12198J0D01*
G75*
G01*
X1417476Y1317064D02*
G02*
X1405279Y1329262I1J12198D01*
G75*
G01*
X1405279Y1360757D02*
G02*
X1417476Y1372957I12198J2D01*
G75*
G01*
X1142473Y1562062D02*
G02*
X1130275Y1574261I0J12198D01*
G75*
G01*
X1130275Y1605756D02*
G02*
X1142473Y1617954I12198J0D01*
G75*
G01*
X1227524Y1617936D02*
G02*
X1239721Y1605738I-1J-12198D01*
G75*
G01*
X1239721Y1574243D02*
G02*
X1227524Y1562043I-12198J-2D01*
G75*
G01*
X1352527Y1547938D02*
G02*
X1364725Y1535739I0J-12198D01*
G75*
G01*
X1364725Y1504244D02*
G02*
X1352527Y1492046I-12198J0D01*
G75*
G01*
X1267476Y1492064D02*
G02*
X1255279Y1504262I1J12198D01*
G75*
G01*
X1255279Y1535757D02*
G02*
X1267476Y1547957I12198J2D01*
D14*
G75*
G01
X2517370Y1583370D02*
G03X2517370Y1583370I-4110J0D01*
G75*
G01
X2479820Y1541420D02*
G03X2479820Y1541420I-4110J0D01*
M02*
