M48
INCH,LZ
;FILE_FORMAT=2:4
;TYPE=PLATED
;Layer: PTH_Through_Via
;EasyEDA v6.5.51, 2025-12-13 04:46:10
;afe304bc349a47aca8f85fda98863c0f,54a2198792e84a5b8b180a78bcbfafa7,10
;Gerber Generator version 0.2
;Holesize 1 = 0.0120 inch
T01C0.0120
%
G05
G90
T01
X015100Y020800
X020700Y017950
X015500Y017700
X020950Y017700
X016300Y017450
X020350Y017400
X021050Y018250
X016900Y018650
X017050Y019650
X021825Y015000
X021825Y015000
X020750Y015000
X019200Y014950
X024900Y015750
X019150Y015750
X019200Y013500
X015900Y016150
X025600Y017600
X025000Y017350
X017300Y015050
X024100Y001250
X025345Y000550
X023500Y000550
X021700Y-001000
X023900Y-000700
X026400Y-001050
X025100Y-000700
X032000Y-000950
X030700Y-000700
X028000Y-000900
X029500Y-000700
X012500Y016400
X013200Y013450
X022600Y014300
X022600Y012950
X019200Y014500
M30
