G04 Layer: TopPasteMaskLayer*
G04 EasyEDA v6.5.51, 2025-12-13 04:46:10*
G04 afe304bc349a47aca8f85fda98863c0f,54a2198792e84a5b8b180a78bcbfafa7,10*
G04 Gerber Generator version 0.2*
G04 Scale: 100 percent, Rotated: No, Reflected: No *
G04 Dimensions in inches *
G04 leading zeros omitted , absolute positions ,3 integer and 6 decimal *
%FSLAX36Y36*%
%MOIN*%

%ADD10R,0.0315X0.0354*%
%ADD11R,0.0138X0.0689*%
%ADD12R,0.0354X0.0394*%
%ADD13R,0.0175X0.0394*%

%LPD*%
G36*
X2604360Y-148320D02*
G01*
X2604360Y-215240D01*
X2671300Y-215240D01*
X2671300Y-148320D01*
G37*
G36*
X2208700Y-148320D02*
G01*
X2208700Y-215240D01*
X2275640Y-215240D01*
X2275640Y-148320D01*
G37*
G36*
X2554180Y24420D02*
G01*
X2554180Y-20860D01*
X2577799Y-20860D01*
X2577799Y24420D01*
G37*
G36*
X2522680Y24420D02*
G01*
X2522680Y-20860D01*
X2546300Y-20860D01*
X2546300Y24420D01*
G37*
G36*
X2502980Y24420D02*
G01*
X2502980Y-20860D01*
X2514800Y-20860D01*
X2514800Y24420D01*
G37*
G36*
X2483300Y24420D02*
G01*
X2483300Y-20860D01*
X2495120Y-20860D01*
X2495120Y24420D01*
G37*
G36*
X2463620Y24420D02*
G01*
X2463620Y-20860D01*
X2475440Y-20860D01*
X2475440Y24420D01*
G37*
G36*
X2443940Y24420D02*
G01*
X2443940Y-20860D01*
X2455760Y-20860D01*
X2455760Y24420D01*
G37*
G36*
X2424260Y24420D02*
G01*
X2424260Y-20860D01*
X2436060Y-20860D01*
X2436060Y24420D01*
G37*
G36*
X2404580Y24420D02*
G01*
X2404580Y-20860D01*
X2416380Y-20860D01*
X2416380Y24420D01*
G37*
G36*
X2384880Y24420D02*
G01*
X2384880Y-20860D01*
X2396700Y-20860D01*
X2396700Y24420D01*
G37*
G36*
X2365200Y24420D02*
G01*
X2365200Y-20860D01*
X2377020Y-20860D01*
X2377020Y24420D01*
G37*
G36*
X2333700Y24420D02*
G01*
X2333700Y-20860D01*
X2357320Y-20860D01*
X2357320Y24420D01*
G37*
G36*
X2302200Y24420D02*
G01*
X2302200Y-20860D01*
X2325820Y-20860D01*
X2325820Y24420D01*
G37*
G36*
X2609780Y9140D02*
G01*
X2607820Y9000D01*
X2605899Y8660D01*
X2604000Y8139D01*
X2602180Y7420D01*
X2600440Y6520D01*
X2598780Y5460D01*
X2597260Y4220D01*
X2595840Y2859D01*
X2594580Y1360D01*
X2593480Y-260D01*
X2592540Y-1980D01*
X2591780Y-3800D01*
X2591200Y-5679D01*
X2590820Y-7600D01*
X2590620Y-9540D01*
X2590600Y-45960D01*
X2590680Y-47920D01*
X2590980Y-49860D01*
X2591460Y-51760D01*
X2592140Y-53600D01*
X2592980Y-55380D01*
X2594000Y-57060D01*
X2595200Y-58620D01*
X2596540Y-60060D01*
X2598000Y-61360D01*
X2599600Y-62500D01*
X2601300Y-63480D01*
X2603080Y-64280D01*
X2604940Y-64920D01*
X2606860Y-65340D01*
X2608800Y-65600D01*
X2610760Y-65640D01*
X2612720Y-65500D01*
X2614660Y-65160D01*
X2616540Y-64620D01*
X2618380Y-63900D01*
X2620120Y-63000D01*
X2621760Y-61940D01*
X2623300Y-60720D01*
X2624700Y-59360D01*
X2625960Y-57840D01*
X2627080Y-56220D01*
X2628020Y-54500D01*
X2628780Y-52699D01*
X2629360Y-50820D01*
X2629740Y-48900D01*
X2629940Y-46940D01*
X2629960Y-10520D01*
X2629860Y-8560D01*
X2629580Y-6620D01*
X2629080Y-4720D01*
X2628420Y-2880D01*
X2627559Y-1120D01*
X2626540Y560D01*
X2625360Y2120D01*
X2624020Y3560D01*
X2622540Y4860D01*
X2620960Y6000D01*
X2619260Y6979D01*
X2617460Y7800D01*
X2615600Y8420D01*
X2613700Y8860D01*
X2611740Y9100D01*
G37*
G36*
X2269240Y9140D02*
G01*
X2267280Y9000D01*
X2265340Y8660D01*
X2263460Y8139D01*
X2261620Y7420D01*
X2259880Y6520D01*
X2258240Y5460D01*
X2256700Y4220D01*
X2255300Y2859D01*
X2254040Y1360D01*
X2252920Y-260D01*
X2251980Y-1980D01*
X2251220Y-3800D01*
X2250640Y-5679D01*
X2250260Y-7600D01*
X2250060Y-9540D01*
X2250040Y-45960D01*
X2250140Y-47920D01*
X2250420Y-49860D01*
X2250920Y-51760D01*
X2251580Y-53600D01*
X2252440Y-55380D01*
X2253460Y-57060D01*
X2254640Y-58620D01*
X2255980Y-60060D01*
X2257460Y-61360D01*
X2259040Y-62500D01*
X2260740Y-63480D01*
X2262540Y-64280D01*
X2264400Y-64920D01*
X2266300Y-65340D01*
X2268260Y-65600D01*
X2270220Y-65640D01*
X2272180Y-65500D01*
X2274100Y-65160D01*
X2276000Y-64620D01*
X2277820Y-63900D01*
X2279560Y-63000D01*
X2281220Y-61940D01*
X2282740Y-60720D01*
X2284160Y-59360D01*
X2285420Y-57840D01*
X2286520Y-56220D01*
X2287460Y-54500D01*
X2288220Y-52699D01*
X2288800Y-50820D01*
X2289180Y-48900D01*
X2289380Y-46940D01*
X2289400Y-10520D01*
X2289320Y-8560D01*
X2289020Y-6620D01*
X2288540Y-4720D01*
X2287860Y-2880D01*
X2287020Y-1120D01*
X2286000Y560D01*
X2284800Y2120D01*
X2283460Y3560D01*
X2282000Y4860D01*
X2280400Y6000D01*
X2278700Y6979D01*
X2276920Y7800D01*
X2275060Y8420D01*
X2273140Y8860D01*
X2271200Y9100D01*
G37*
G36*
X3164360Y-148320D02*
G01*
X3164360Y-215240D01*
X3231300Y-215240D01*
X3231300Y-148320D01*
G37*
G36*
X2768700Y-148320D02*
G01*
X2768700Y-215240D01*
X2835640Y-215240D01*
X2835640Y-148320D01*
G37*
G36*
X3114180Y24420D02*
G01*
X3114180Y-20860D01*
X3137799Y-20860D01*
X3137799Y24420D01*
G37*
G36*
X3082679Y24420D02*
G01*
X3082679Y-20860D01*
X3106300Y-20860D01*
X3106300Y24420D01*
G37*
G36*
X3063000Y24420D02*
G01*
X3063000Y-20860D01*
X3074800Y-20860D01*
X3074800Y24420D01*
G37*
G36*
X3043300Y24420D02*
G01*
X3043300Y-20860D01*
X3055120Y-20860D01*
X3055120Y24420D01*
G37*
G36*
X3023620Y24420D02*
G01*
X3023620Y-20860D01*
X3035440Y-20860D01*
X3035440Y24420D01*
G37*
G36*
X3003940Y24420D02*
G01*
X3003940Y-20860D01*
X3015760Y-20860D01*
X3015760Y24420D01*
G37*
G36*
X2984260Y24420D02*
G01*
X2984260Y-20860D01*
X2996060Y-20860D01*
X2996060Y24420D01*
G37*
G36*
X2964580Y24420D02*
G01*
X2964580Y-20860D01*
X2976380Y-20860D01*
X2976380Y24420D01*
G37*
G36*
X2944880Y24420D02*
G01*
X2944880Y-20860D01*
X2956700Y-20860D01*
X2956700Y24420D01*
G37*
G36*
X2925200Y24420D02*
G01*
X2925200Y-20860D01*
X2937020Y-20860D01*
X2937020Y24420D01*
G37*
G36*
X2893700Y24420D02*
G01*
X2893700Y-20860D01*
X2917320Y-20860D01*
X2917320Y24420D01*
G37*
G36*
X2862200Y24420D02*
G01*
X2862200Y-20860D01*
X2885820Y-20860D01*
X2885820Y24420D01*
G37*
G36*
X3169780Y9140D02*
G01*
X3167820Y9000D01*
X3165899Y8660D01*
X3164000Y8139D01*
X3162180Y7420D01*
X3160440Y6520D01*
X3158780Y5460D01*
X3157260Y4220D01*
X3155840Y2859D01*
X3154580Y1360D01*
X3153480Y-260D01*
X3152540Y-1980D01*
X3151780Y-3800D01*
X3151200Y-5679D01*
X3150820Y-7600D01*
X3150620Y-9540D01*
X3150600Y-45960D01*
X3150680Y-47920D01*
X3150980Y-49860D01*
X3151460Y-51760D01*
X3152140Y-53600D01*
X3152980Y-55380D01*
X3154000Y-57060D01*
X3155200Y-58620D01*
X3156540Y-60060D01*
X3158000Y-61360D01*
X3159600Y-62500D01*
X3161300Y-63480D01*
X3163080Y-64280D01*
X3164940Y-64920D01*
X3166860Y-65340D01*
X3168800Y-65600D01*
X3170760Y-65640D01*
X3172720Y-65500D01*
X3174660Y-65160D01*
X3176540Y-64620D01*
X3178380Y-63900D01*
X3180120Y-63000D01*
X3181760Y-61940D01*
X3183300Y-60720D01*
X3184700Y-59360D01*
X3185960Y-57840D01*
X3187080Y-56220D01*
X3188020Y-54500D01*
X3188780Y-52699D01*
X3189360Y-50820D01*
X3189740Y-48900D01*
X3189940Y-46940D01*
X3189960Y-10520D01*
X3189860Y-8560D01*
X3189580Y-6620D01*
X3189080Y-4720D01*
X3188420Y-2880D01*
X3187559Y-1120D01*
X3186540Y560D01*
X3185360Y2120D01*
X3184020Y3560D01*
X3182540Y4860D01*
X3180960Y6000D01*
X3179260Y6979D01*
X3177460Y7800D01*
X3175600Y8420D01*
X3173700Y8860D01*
X3171740Y9100D01*
G37*
G36*
X2829240Y9140D02*
G01*
X2827280Y9000D01*
X2825340Y8660D01*
X2823460Y8139D01*
X2821620Y7420D01*
X2819880Y6520D01*
X2818240Y5460D01*
X2816700Y4220D01*
X2815299Y2859D01*
X2814040Y1360D01*
X2812919Y-260D01*
X2811980Y-1980D01*
X2811220Y-3800D01*
X2810640Y-5679D01*
X2810260Y-7600D01*
X2810059Y-9540D01*
X2810040Y-45960D01*
X2810140Y-47920D01*
X2810419Y-49860D01*
X2810920Y-51760D01*
X2811580Y-53600D01*
X2812440Y-55380D01*
X2813460Y-57060D01*
X2814640Y-58620D01*
X2815980Y-60060D01*
X2817460Y-61360D01*
X2819040Y-62500D01*
X2820740Y-63480D01*
X2822540Y-64280D01*
X2824400Y-64920D01*
X2826300Y-65340D01*
X2828260Y-65600D01*
X2830220Y-65640D01*
X2832180Y-65500D01*
X2834100Y-65160D01*
X2836000Y-64620D01*
X2837820Y-63900D01*
X2839560Y-63000D01*
X2841220Y-61940D01*
X2842740Y-60720D01*
X2844160Y-59360D01*
X2845419Y-57840D01*
X2846520Y-56220D01*
X2847460Y-54500D01*
X2848220Y-52699D01*
X2848800Y-50820D01*
X2849180Y-48900D01*
X2849380Y-46940D01*
X2849400Y-10520D01*
X2849320Y-8560D01*
X2849020Y-6620D01*
X2848540Y-4720D01*
X2847860Y-2880D01*
X2847020Y-1120D01*
X2846000Y560D01*
X2844800Y2120D01*
X2843460Y3560D01*
X2842000Y4860D01*
X2840400Y6000D01*
X2838700Y6979D01*
X2836920Y7800D01*
X2835059Y8420D01*
X2833140Y8860D01*
X2831200Y9100D01*
G37*
G36*
X2664260Y-40980D02*
G01*
X2662280Y-42960D01*
X2662280Y-74440D01*
X2664260Y-76420D01*
X2673220Y-76420D01*
X2673220Y-61840D01*
X2686220Y-61840D01*
X2686220Y-76420D01*
X2695740Y-76420D01*
X2697720Y-74440D01*
X2697720Y-42960D01*
X2695740Y-40980D01*
G37*
G36*
X2664260Y-103580D02*
G01*
X2662280Y-105559D01*
X2662280Y-137040D01*
X2664260Y-139020D01*
X2695740Y-139020D01*
X2697720Y-137040D01*
X2697720Y-105559D01*
X2695740Y-103580D01*
X2686780Y-103580D01*
X2686780Y-118160D01*
X2673780Y-118160D01*
X2673780Y-103580D01*
G37*
G36*
X2199260Y-40980D02*
G01*
X2197280Y-42960D01*
X2197280Y-74440D01*
X2199260Y-76420D01*
X2208220Y-76420D01*
X2208220Y-61840D01*
X2221220Y-61840D01*
X2221220Y-76420D01*
X2230740Y-76420D01*
X2232720Y-74440D01*
X2232720Y-42960D01*
X2230740Y-40980D01*
G37*
G36*
X2199260Y-103580D02*
G01*
X2197280Y-105559D01*
X2197280Y-137040D01*
X2199260Y-139020D01*
X2230740Y-139020D01*
X2232720Y-137040D01*
X2232720Y-105559D01*
X2230740Y-103580D01*
X2221780Y-103580D01*
X2221780Y-118160D01*
X2208780Y-118160D01*
X2208780Y-103580D01*
G37*
G36*
X2015560Y1592720D02*
G01*
X2013580Y1590740D01*
X2013580Y1581780D01*
X2028140Y1581780D01*
X2028140Y1568779D01*
X2013580Y1568779D01*
X2013580Y1559259D01*
X2015560Y1557280D01*
X2047040Y1557280D01*
X2049019Y1559259D01*
X2049019Y1590740D01*
X2047040Y1592720D01*
G37*
G36*
X1952960Y1592720D02*
G01*
X1950980Y1590740D01*
X1950980Y1559259D01*
X1952960Y1557280D01*
X1984440Y1557280D01*
X1986420Y1559259D01*
X1986420Y1568220D01*
X1971860Y1568220D01*
X1971860Y1581220D01*
X1986420Y1581220D01*
X1986420Y1590740D01*
X1984440Y1592720D01*
G37*
G36*
X1195560Y1427720D02*
G01*
X1193580Y1425740D01*
X1193580Y1416780D01*
X1208140Y1416780D01*
X1208140Y1403779D01*
X1193580Y1403779D01*
X1193580Y1394259D01*
X1195560Y1392280D01*
X1227040Y1392280D01*
X1229020Y1394259D01*
X1229020Y1425740D01*
X1227040Y1427720D01*
G37*
G36*
X1132960Y1427720D02*
G01*
X1130980Y1425740D01*
X1130980Y1394259D01*
X1132960Y1392280D01*
X1164440Y1392280D01*
X1166420Y1394259D01*
X1166420Y1403220D01*
X1151860Y1403220D01*
X1151860Y1416220D01*
X1166420Y1416220D01*
X1166420Y1425740D01*
X1164440Y1427720D01*
G37*
G36*
X1262960Y1427720D02*
G01*
X1260980Y1425740D01*
X1260980Y1394259D01*
X1262960Y1392280D01*
X1294440Y1392280D01*
X1296420Y1394259D01*
X1296420Y1403220D01*
X1281860Y1403220D01*
X1281860Y1416220D01*
X1296420Y1416220D01*
X1296420Y1425740D01*
X1294440Y1427720D01*
G37*
G36*
X1325560Y1427720D02*
G01*
X1323580Y1425740D01*
X1323580Y1416780D01*
X1338140Y1416780D01*
X1338140Y1403779D01*
X1323580Y1403779D01*
X1323580Y1394259D01*
X1325560Y1392280D01*
X1357040Y1392280D01*
X1359019Y1394259D01*
X1359019Y1425740D01*
X1357040Y1427720D01*
G37*
G36*
X1496980Y1532520D02*
G01*
X1496980Y1447480D01*
X1582020Y1447480D01*
X1582020Y1532520D01*
G37*
G36*
X1608500Y1544720D02*
G01*
X1607600Y1544640D01*
X1606699Y1544420D01*
X1605360Y1543740D01*
X1604440Y1542940D01*
X1603580Y1541699D01*
X1603240Y1540860D01*
X1603000Y1539660D01*
X1603040Y1538440D01*
X1603340Y1537280D01*
X1603720Y1536440D01*
X1604440Y1535480D01*
X1605360Y1534680D01*
X1606140Y1534220D01*
X1607300Y1533820D01*
X1607900Y1533720D01*
X1629280Y1533700D01*
X1630480Y1533899D01*
X1631860Y1534500D01*
X1632600Y1535040D01*
X1633580Y1536200D01*
X1634240Y1537560D01*
X1634460Y1538760D01*
X1634480Y1539360D01*
X1634319Y1540560D01*
X1633880Y1541699D01*
X1633020Y1542940D01*
X1632120Y1543740D01*
X1630760Y1544420D01*
X1629580Y1544680D01*
G37*
G36*
X1608200Y1485660D02*
G01*
X1607000Y1485460D01*
X1605620Y1484860D01*
X1604880Y1484319D01*
X1604240Y1483660D01*
X1603720Y1482920D01*
X1603160Y1481500D01*
X1603000Y1480620D01*
X1602980Y1480000D01*
X1603080Y1479100D01*
X1603580Y1477660D01*
X1604440Y1476420D01*
X1605360Y1475620D01*
X1606140Y1475160D01*
X1607600Y1474720D01*
X1608500Y1474640D01*
X1629580Y1474680D01*
X1630760Y1474940D01*
X1631320Y1475160D01*
X1632120Y1475620D01*
X1633020Y1476420D01*
X1633880Y1477660D01*
X1634319Y1478800D01*
X1634480Y1480000D01*
X1634379Y1481220D01*
X1634019Y1482360D01*
X1633580Y1483180D01*
X1632600Y1484319D01*
X1631860Y1484860D01*
X1630480Y1485460D01*
X1629280Y1485660D01*
G37*
G36*
X1608500Y1525040D02*
G01*
X1607600Y1524960D01*
X1606140Y1524520D01*
X1604880Y1523680D01*
X1604440Y1523260D01*
X1603580Y1522020D01*
X1603240Y1521180D01*
X1603000Y1519980D01*
X1603040Y1518760D01*
X1603340Y1517600D01*
X1603720Y1516759D01*
X1604240Y1516020D01*
X1604880Y1515360D01*
X1605620Y1514820D01*
X1607000Y1514220D01*
X1608200Y1514019D01*
X1629580Y1514040D01*
X1630180Y1514139D01*
X1631600Y1514680D01*
X1632120Y1515000D01*
X1632820Y1515580D01*
X1633420Y1516260D01*
X1634139Y1517600D01*
X1634440Y1518760D01*
X1634440Y1520280D01*
X1634240Y1521180D01*
X1633740Y1522280D01*
X1633420Y1522780D01*
X1632820Y1523480D01*
X1631600Y1524379D01*
X1630480Y1524820D01*
X1629880Y1524960D01*
X1628980Y1525040D01*
G37*
G36*
X1608500Y1465980D02*
G01*
X1607600Y1465900D01*
X1606140Y1465460D01*
X1604880Y1464620D01*
X1604440Y1464199D01*
X1603580Y1462960D01*
X1603080Y1461519D01*
X1602980Y1460620D01*
X1603080Y1459400D01*
X1603580Y1457980D01*
X1603880Y1457440D01*
X1604440Y1456740D01*
X1605360Y1455940D01*
X1606140Y1455480D01*
X1607300Y1455080D01*
X1607900Y1454980D01*
X1629280Y1454960D01*
X1630480Y1455160D01*
X1631860Y1455760D01*
X1632600Y1456300D01*
X1633580Y1457440D01*
X1634240Y1458820D01*
X1634460Y1460020D01*
X1634480Y1460620D01*
X1634319Y1461819D01*
X1633880Y1462960D01*
X1633020Y1464199D01*
X1632120Y1465000D01*
X1631320Y1465460D01*
X1630180Y1465840D01*
X1629580Y1465940D01*
G37*
G36*
X1608200Y1505340D02*
G01*
X1607000Y1505140D01*
X1605620Y1504540D01*
X1604880Y1504000D01*
X1604240Y1503340D01*
X1603580Y1502320D01*
X1603080Y1500900D01*
X1602980Y1499980D01*
X1603000Y1499379D01*
X1603240Y1498180D01*
X1603580Y1497340D01*
X1604440Y1496100D01*
X1605360Y1495300D01*
X1606699Y1494620D01*
X1607600Y1494400D01*
X1608500Y1494319D01*
X1629580Y1494360D01*
X1630760Y1494620D01*
X1632120Y1495300D01*
X1633020Y1496100D01*
X1633880Y1497340D01*
X1634319Y1498480D01*
X1634480Y1499680D01*
X1634379Y1500900D01*
X1634019Y1502040D01*
X1633220Y1503340D01*
X1632600Y1504000D01*
X1631860Y1504540D01*
X1630480Y1505140D01*
X1629280Y1505340D01*
G37*
G36*
X1608500Y1446300D02*
G01*
X1607600Y1446220D01*
X1606140Y1445780D01*
X1604880Y1444940D01*
X1604440Y1444520D01*
X1603580Y1443280D01*
X1603080Y1441840D01*
X1602980Y1440940D01*
X1603000Y1440320D01*
X1603340Y1438860D01*
X1603720Y1438020D01*
X1604440Y1437060D01*
X1605360Y1436260D01*
X1606140Y1435800D01*
X1607300Y1435400D01*
X1607900Y1435300D01*
X1629280Y1435280D01*
X1630480Y1435480D01*
X1631860Y1436080D01*
X1632600Y1436620D01*
X1633580Y1437780D01*
X1634240Y1439139D01*
X1634460Y1440320D01*
X1634480Y1440940D01*
X1634319Y1442140D01*
X1633880Y1443280D01*
X1633020Y1444520D01*
X1632120Y1445320D01*
X1631320Y1445780D01*
X1630180Y1446160D01*
X1629580Y1446260D01*
G37*
G36*
X1589060Y1584480D02*
G01*
X1587860Y1584319D01*
X1587280Y1584139D01*
X1585940Y1583420D01*
X1585260Y1582820D01*
X1584680Y1582120D01*
X1584100Y1581040D01*
X1583820Y1580180D01*
X1583720Y1579580D01*
X1583700Y1558200D01*
X1583899Y1557000D01*
X1584500Y1555620D01*
X1585040Y1554880D01*
X1585700Y1554240D01*
X1586440Y1553720D01*
X1587860Y1553160D01*
X1589060Y1552980D01*
X1589660Y1553000D01*
X1590860Y1553240D01*
X1591699Y1553580D01*
X1592940Y1554440D01*
X1593740Y1555360D01*
X1594420Y1556699D01*
X1594640Y1557600D01*
X1594720Y1558500D01*
X1594680Y1579580D01*
X1594420Y1580760D01*
X1593740Y1582120D01*
X1592940Y1583020D01*
X1591699Y1583880D01*
X1590560Y1584319D01*
G37*
G36*
X1588740Y1427000D02*
G01*
X1587540Y1426840D01*
X1586399Y1426399D01*
X1585160Y1425540D01*
X1584360Y1424640D01*
X1583899Y1423839D01*
X1583520Y1422700D01*
X1583420Y1422100D01*
X1583380Y1401020D01*
X1583460Y1400120D01*
X1583899Y1398660D01*
X1584740Y1397400D01*
X1585160Y1396960D01*
X1586399Y1396100D01*
X1587840Y1395600D01*
X1588740Y1395500D01*
X1589360Y1395520D01*
X1590820Y1395860D01*
X1591660Y1396240D01*
X1592620Y1396960D01*
X1593420Y1397880D01*
X1593880Y1398660D01*
X1594280Y1399820D01*
X1594379Y1400420D01*
X1594400Y1421800D01*
X1594199Y1423000D01*
X1593600Y1424379D01*
X1593060Y1425120D01*
X1591900Y1426100D01*
X1590540Y1426759D01*
X1589360Y1426980D01*
G37*
G36*
X1569379Y1427000D02*
G01*
X1568180Y1426840D01*
X1567600Y1426660D01*
X1566260Y1425940D01*
X1565580Y1425340D01*
X1565000Y1424640D01*
X1564420Y1423560D01*
X1564139Y1422700D01*
X1564040Y1422100D01*
X1564019Y1400720D01*
X1564220Y1399520D01*
X1564820Y1398140D01*
X1565360Y1397400D01*
X1566020Y1396759D01*
X1566759Y1396240D01*
X1568180Y1395680D01*
X1569379Y1395500D01*
X1569980Y1395520D01*
X1571180Y1395760D01*
X1572020Y1396100D01*
X1573260Y1396960D01*
X1574060Y1397880D01*
X1574520Y1398660D01*
X1574960Y1400120D01*
X1575040Y1401020D01*
X1575000Y1422100D01*
X1574740Y1423280D01*
X1574520Y1423839D01*
X1574060Y1424640D01*
X1573260Y1425540D01*
X1572020Y1426399D01*
X1570880Y1426840D01*
G37*
G36*
X1569379Y1584480D02*
G01*
X1568180Y1584319D01*
X1567600Y1584139D01*
X1566260Y1583420D01*
X1565580Y1582820D01*
X1565000Y1582120D01*
X1564420Y1581040D01*
X1564139Y1580180D01*
X1564040Y1579580D01*
X1564019Y1558200D01*
X1564220Y1557000D01*
X1564820Y1555620D01*
X1565360Y1554880D01*
X1566020Y1554240D01*
X1566759Y1553720D01*
X1568180Y1553160D01*
X1569379Y1552980D01*
X1569980Y1553000D01*
X1571180Y1553240D01*
X1572020Y1553580D01*
X1573260Y1554440D01*
X1574060Y1555360D01*
X1574520Y1556140D01*
X1574960Y1557600D01*
X1575040Y1558500D01*
X1575000Y1579580D01*
X1574740Y1580760D01*
X1574520Y1581320D01*
X1574060Y1582120D01*
X1573260Y1583020D01*
X1572020Y1583880D01*
X1570880Y1584319D01*
G37*
G36*
X1549680Y1427000D02*
G01*
X1548480Y1426840D01*
X1547340Y1426399D01*
X1546100Y1425540D01*
X1545300Y1424640D01*
X1544840Y1423839D01*
X1544460Y1422700D01*
X1544360Y1422100D01*
X1544319Y1401020D01*
X1544400Y1400120D01*
X1544840Y1398660D01*
X1545680Y1397400D01*
X1546100Y1396960D01*
X1547340Y1396100D01*
X1548779Y1395600D01*
X1549680Y1395500D01*
X1550300Y1395520D01*
X1551759Y1395860D01*
X1552600Y1396240D01*
X1553560Y1396960D01*
X1554360Y1397880D01*
X1554820Y1398660D01*
X1555220Y1399820D01*
X1555320Y1400420D01*
X1555340Y1421800D01*
X1555140Y1423000D01*
X1554540Y1424379D01*
X1554000Y1425120D01*
X1552840Y1426100D01*
X1551480Y1426759D01*
X1550300Y1426980D01*
G37*
G36*
X1549680Y1584480D02*
G01*
X1548480Y1584319D01*
X1547340Y1583880D01*
X1546100Y1583020D01*
X1545300Y1582120D01*
X1544840Y1581320D01*
X1544460Y1580180D01*
X1544360Y1579580D01*
X1544319Y1558500D01*
X1544400Y1557600D01*
X1544840Y1556140D01*
X1545680Y1554880D01*
X1546100Y1554440D01*
X1547340Y1553580D01*
X1548779Y1553080D01*
X1549680Y1552980D01*
X1550300Y1553000D01*
X1551759Y1553340D01*
X1552600Y1553720D01*
X1553560Y1554440D01*
X1554360Y1555360D01*
X1554820Y1556140D01*
X1555220Y1557300D01*
X1555320Y1557900D01*
X1555340Y1579280D01*
X1555140Y1580480D01*
X1554540Y1581860D01*
X1554000Y1582600D01*
X1552840Y1583580D01*
X1551480Y1584240D01*
X1550300Y1584460D01*
G37*
G36*
X1530000Y1427000D02*
G01*
X1528800Y1426840D01*
X1527660Y1426399D01*
X1526420Y1425540D01*
X1525620Y1424640D01*
X1525160Y1423839D01*
X1524780Y1422700D01*
X1524680Y1422100D01*
X1524640Y1401020D01*
X1524720Y1400120D01*
X1525160Y1398660D01*
X1526000Y1397400D01*
X1526420Y1396960D01*
X1527660Y1396100D01*
X1528500Y1395760D01*
X1529700Y1395520D01*
X1530920Y1395560D01*
X1532080Y1395860D01*
X1532920Y1396240D01*
X1533660Y1396759D01*
X1534319Y1397400D01*
X1534860Y1398140D01*
X1535460Y1399520D01*
X1535660Y1400720D01*
X1535640Y1422100D01*
X1535540Y1422700D01*
X1535000Y1424120D01*
X1534680Y1424640D01*
X1534100Y1425340D01*
X1533420Y1425940D01*
X1532080Y1426660D01*
X1530920Y1426960D01*
G37*
G36*
X1530000Y1584480D02*
G01*
X1528800Y1584319D01*
X1527660Y1583880D01*
X1526420Y1583020D01*
X1525620Y1582120D01*
X1525160Y1581320D01*
X1524780Y1580180D01*
X1524680Y1579580D01*
X1524640Y1558500D01*
X1524720Y1557600D01*
X1525160Y1556140D01*
X1526000Y1554880D01*
X1526420Y1554440D01*
X1527660Y1553580D01*
X1528500Y1553240D01*
X1529700Y1553000D01*
X1530920Y1553040D01*
X1532080Y1553340D01*
X1532920Y1553720D01*
X1533660Y1554240D01*
X1534319Y1554880D01*
X1534860Y1555620D01*
X1535460Y1557000D01*
X1535660Y1558200D01*
X1535640Y1579580D01*
X1535540Y1580180D01*
X1535000Y1581600D01*
X1534680Y1582120D01*
X1534100Y1582820D01*
X1533420Y1583420D01*
X1532080Y1584139D01*
X1530920Y1584440D01*
G37*
G36*
X1510320Y1427000D02*
G01*
X1509120Y1426840D01*
X1508540Y1426660D01*
X1507200Y1425940D01*
X1506519Y1425340D01*
X1505940Y1424640D01*
X1505360Y1423560D01*
X1505080Y1422700D01*
X1504980Y1422100D01*
X1504960Y1400720D01*
X1505160Y1399520D01*
X1505760Y1398140D01*
X1506300Y1397400D01*
X1506960Y1396759D01*
X1507700Y1396240D01*
X1509120Y1395680D01*
X1510320Y1395500D01*
X1510920Y1395520D01*
X1512120Y1395760D01*
X1512960Y1396100D01*
X1514199Y1396960D01*
X1515000Y1397880D01*
X1515460Y1398660D01*
X1515900Y1400120D01*
X1515980Y1401020D01*
X1515940Y1422100D01*
X1515680Y1423280D01*
X1515460Y1423839D01*
X1515000Y1424640D01*
X1514199Y1425540D01*
X1512960Y1426399D01*
X1511819Y1426840D01*
G37*
G36*
X1510320Y1584480D02*
G01*
X1509120Y1584319D01*
X1508540Y1584139D01*
X1507200Y1583420D01*
X1506519Y1582820D01*
X1505940Y1582120D01*
X1505360Y1581040D01*
X1505080Y1580180D01*
X1504980Y1579580D01*
X1504960Y1558200D01*
X1505160Y1557000D01*
X1505760Y1555620D01*
X1506300Y1554880D01*
X1506960Y1554240D01*
X1507700Y1553720D01*
X1509120Y1553160D01*
X1510320Y1552980D01*
X1510920Y1553000D01*
X1512120Y1553240D01*
X1512960Y1553580D01*
X1514199Y1554440D01*
X1515000Y1555360D01*
X1515460Y1556140D01*
X1515900Y1557600D01*
X1515980Y1558500D01*
X1515940Y1579580D01*
X1515680Y1580760D01*
X1515460Y1581320D01*
X1515000Y1582120D01*
X1514199Y1583020D01*
X1512960Y1583880D01*
X1511819Y1584319D01*
G37*
G36*
X1490640Y1427000D02*
G01*
X1489440Y1426840D01*
X1488860Y1426660D01*
X1487520Y1425940D01*
X1486840Y1425340D01*
X1486260Y1424640D01*
X1485680Y1423560D01*
X1485400Y1422700D01*
X1485300Y1422100D01*
X1485280Y1400720D01*
X1485480Y1399520D01*
X1486080Y1398140D01*
X1486620Y1397400D01*
X1487280Y1396759D01*
X1488300Y1396100D01*
X1489720Y1395600D01*
X1490940Y1395500D01*
X1491840Y1395600D01*
X1492720Y1395860D01*
X1493540Y1396240D01*
X1494740Y1397180D01*
X1495640Y1398400D01*
X1495900Y1398940D01*
X1496260Y1400420D01*
X1496300Y1421500D01*
X1496220Y1422400D01*
X1495900Y1423560D01*
X1495640Y1424120D01*
X1494740Y1425340D01*
X1494040Y1425940D01*
X1493000Y1426540D01*
X1492440Y1426759D01*
X1491540Y1426960D01*
G37*
G36*
X1490640Y1584480D02*
G01*
X1489440Y1584319D01*
X1488860Y1584139D01*
X1487520Y1583420D01*
X1486840Y1582820D01*
X1486260Y1582120D01*
X1485680Y1581040D01*
X1485400Y1580180D01*
X1485300Y1579580D01*
X1485280Y1558200D01*
X1485480Y1557000D01*
X1486080Y1555620D01*
X1486620Y1554880D01*
X1487280Y1554240D01*
X1488300Y1553580D01*
X1489720Y1553080D01*
X1490940Y1552980D01*
X1491840Y1553080D01*
X1492720Y1553340D01*
X1493540Y1553720D01*
X1494740Y1554660D01*
X1495640Y1555880D01*
X1495900Y1556420D01*
X1496260Y1557900D01*
X1496300Y1578980D01*
X1496220Y1579880D01*
X1495900Y1581040D01*
X1495640Y1581600D01*
X1494740Y1582820D01*
X1494040Y1583420D01*
X1493000Y1584019D01*
X1492440Y1584240D01*
X1491540Y1584440D01*
G37*
G36*
X1451020Y1446300D02*
G01*
X1450120Y1446220D01*
X1448660Y1445780D01*
X1447400Y1444940D01*
X1446960Y1444520D01*
X1446100Y1443280D01*
X1445600Y1441840D01*
X1445500Y1440940D01*
X1445520Y1440320D01*
X1445860Y1438860D01*
X1446240Y1438020D01*
X1446960Y1437060D01*
X1447880Y1436260D01*
X1448660Y1435800D01*
X1449820Y1435400D01*
X1450420Y1435300D01*
X1471800Y1435280D01*
X1473000Y1435480D01*
X1474379Y1436080D01*
X1475120Y1436620D01*
X1476100Y1437780D01*
X1476759Y1439139D01*
X1476980Y1440320D01*
X1477000Y1440940D01*
X1476840Y1442140D01*
X1476399Y1443280D01*
X1475540Y1444520D01*
X1474640Y1445320D01*
X1473839Y1445780D01*
X1472700Y1446160D01*
X1472100Y1446260D01*
G37*
G36*
X1450720Y1505340D02*
G01*
X1449520Y1505140D01*
X1448140Y1504540D01*
X1447400Y1504000D01*
X1446759Y1503340D01*
X1446100Y1502320D01*
X1445600Y1500900D01*
X1445500Y1499980D01*
X1445520Y1499379D01*
X1445760Y1498180D01*
X1446100Y1497340D01*
X1446960Y1496100D01*
X1447880Y1495300D01*
X1449220Y1494620D01*
X1450120Y1494400D01*
X1451020Y1494319D01*
X1472100Y1494360D01*
X1473280Y1494620D01*
X1474640Y1495300D01*
X1475540Y1496100D01*
X1476399Y1497340D01*
X1476840Y1498480D01*
X1477000Y1499680D01*
X1476900Y1500900D01*
X1476540Y1502040D01*
X1475740Y1503340D01*
X1475120Y1504000D01*
X1474379Y1504540D01*
X1473000Y1505140D01*
X1471800Y1505340D01*
G37*
G36*
X1451020Y1465980D02*
G01*
X1450120Y1465900D01*
X1448660Y1465460D01*
X1447400Y1464620D01*
X1446960Y1464199D01*
X1446100Y1462960D01*
X1445600Y1461519D01*
X1445500Y1460620D01*
X1445600Y1459400D01*
X1446100Y1457980D01*
X1446399Y1457440D01*
X1446960Y1456740D01*
X1447880Y1455940D01*
X1448660Y1455480D01*
X1449820Y1455080D01*
X1450420Y1454980D01*
X1471800Y1454960D01*
X1473000Y1455160D01*
X1474379Y1455760D01*
X1475120Y1456300D01*
X1476100Y1457440D01*
X1476759Y1458820D01*
X1476980Y1460020D01*
X1477000Y1460620D01*
X1476840Y1461819D01*
X1476399Y1462960D01*
X1475540Y1464199D01*
X1474640Y1465000D01*
X1473839Y1465460D01*
X1472700Y1465840D01*
X1472100Y1465940D01*
G37*
G36*
X1451020Y1525040D02*
G01*
X1450120Y1524960D01*
X1448660Y1524520D01*
X1447400Y1523680D01*
X1446960Y1523260D01*
X1446100Y1522020D01*
X1445760Y1521180D01*
X1445520Y1519980D01*
X1445560Y1518760D01*
X1445860Y1517600D01*
X1446240Y1516759D01*
X1446759Y1516020D01*
X1447400Y1515360D01*
X1448140Y1514820D01*
X1449520Y1514220D01*
X1450720Y1514019D01*
X1472100Y1514040D01*
X1472700Y1514139D01*
X1474120Y1514680D01*
X1474640Y1515000D01*
X1475340Y1515580D01*
X1475940Y1516260D01*
X1476660Y1517600D01*
X1476960Y1518760D01*
X1476960Y1520280D01*
X1476759Y1521180D01*
X1476260Y1522280D01*
X1475940Y1522780D01*
X1475340Y1523480D01*
X1474120Y1524379D01*
X1473000Y1524820D01*
X1472400Y1524960D01*
X1471500Y1525040D01*
G37*
G36*
X1450720Y1485660D02*
G01*
X1449520Y1485460D01*
X1448140Y1484860D01*
X1447400Y1484319D01*
X1446759Y1483660D01*
X1446240Y1482920D01*
X1445680Y1481500D01*
X1445520Y1480620D01*
X1445500Y1480000D01*
X1445600Y1479100D01*
X1446100Y1477660D01*
X1446960Y1476420D01*
X1447880Y1475620D01*
X1448660Y1475160D01*
X1450120Y1474720D01*
X1451020Y1474640D01*
X1472100Y1474680D01*
X1473280Y1474940D01*
X1473839Y1475160D01*
X1474640Y1475620D01*
X1475540Y1476420D01*
X1476399Y1477660D01*
X1476840Y1478800D01*
X1477000Y1480000D01*
X1476900Y1481220D01*
X1476540Y1482360D01*
X1476100Y1483180D01*
X1475120Y1484319D01*
X1474379Y1484860D01*
X1473000Y1485460D01*
X1471800Y1485660D01*
G37*
G36*
X1451020Y1544720D02*
G01*
X1450120Y1544640D01*
X1449220Y1544420D01*
X1447880Y1543740D01*
X1446960Y1542940D01*
X1446100Y1541699D01*
X1445760Y1540860D01*
X1445520Y1539660D01*
X1445560Y1538440D01*
X1445860Y1537280D01*
X1446240Y1536440D01*
X1446960Y1535480D01*
X1447880Y1534680D01*
X1448660Y1534220D01*
X1449820Y1533820D01*
X1450420Y1533720D01*
X1471800Y1533700D01*
X1473000Y1533899D01*
X1474379Y1534500D01*
X1475120Y1535040D01*
X1476100Y1536200D01*
X1476759Y1537560D01*
X1476980Y1538760D01*
X1477000Y1539360D01*
X1476840Y1540560D01*
X1476399Y1541699D01*
X1475540Y1542940D01*
X1474640Y1543740D01*
X1473280Y1544420D01*
X1472100Y1544680D01*
G37*
G36*
X3214260Y-40980D02*
G01*
X3212280Y-42960D01*
X3212280Y-74440D01*
X3214260Y-76420D01*
X3223220Y-76420D01*
X3223220Y-61840D01*
X3236220Y-61840D01*
X3236220Y-76420D01*
X3245740Y-76420D01*
X3247720Y-74440D01*
X3247720Y-42960D01*
X3245740Y-40980D01*
G37*
G36*
X3214260Y-103580D02*
G01*
X3212280Y-105559D01*
X3212280Y-137040D01*
X3214260Y-139020D01*
X3245740Y-139020D01*
X3247720Y-137040D01*
X3247720Y-105559D01*
X3245740Y-103580D01*
X3236780Y-103580D01*
X3236780Y-118160D01*
X3223780Y-118160D01*
X3223780Y-103580D01*
G37*
G36*
X2749260Y-40980D02*
G01*
X2747280Y-42960D01*
X2747280Y-74440D01*
X2749260Y-76420D01*
X2758220Y-76420D01*
X2758220Y-61840D01*
X2771220Y-61840D01*
X2771220Y-76420D01*
X2780740Y-76420D01*
X2782720Y-74440D01*
X2782720Y-42960D01*
X2780740Y-40980D01*
G37*
G36*
X2749260Y-103580D02*
G01*
X2747280Y-105559D01*
X2747280Y-137040D01*
X2749260Y-139020D01*
X2780740Y-139020D01*
X2782720Y-137040D01*
X2782720Y-105559D01*
X2780740Y-103580D01*
X2771780Y-103580D01*
X2771780Y-118160D01*
X2758780Y-118160D01*
X2758780Y-103580D01*
G37*
D10*
G01*
X2022560Y1350000D03*
G01*
X1967439Y1350000D03*
G01*
X2022560Y1495000D03*
G01*
X1967439Y1495000D03*
D11*
G01*
X2457500Y1376630D03*
G01*
X2432500Y1376630D03*
G01*
X2407500Y1376630D03*
G01*
X2382500Y1376630D03*
G01*
X2357500Y1376630D03*
G01*
X2332500Y1376630D03*
G01*
X2307500Y1376630D03*
G01*
X2282500Y1376630D03*
G01*
X2257500Y1376630D03*
G01*
X2232500Y1376630D03*
G01*
X2207500Y1376630D03*
G01*
X2182500Y1376630D03*
G01*
X2157500Y1376630D03*
G01*
X2132500Y1376630D03*
G01*
X2132500Y1583370D03*
G01*
X2157500Y1583370D03*
G01*
X2182500Y1583370D03*
G01*
X2207500Y1583370D03*
G01*
X2232500Y1583370D03*
G01*
X2257500Y1583370D03*
G01*
X2282500Y1583370D03*
G01*
X2307500Y1583370D03*
G01*
X2332500Y1583370D03*
G01*
X2357500Y1583370D03*
G01*
X2382500Y1583370D03*
G01*
X2407500Y1583370D03*
G01*
X2432500Y1583370D03*
G01*
X2457500Y1583370D03*
D12*
G01*
X2539489Y1448589D03*
G01*
X2539489Y1521419D03*
G01*
X2600519Y1521419D03*
G01*
X2600519Y1448589D03*
D10*
G01*
X1157439Y1520000D03*
G01*
X1212560Y1520000D03*
G01*
X1337560Y1590000D03*
G01*
X1282439Y1590000D03*
G01*
X1487560Y1345000D03*
G01*
X1432439Y1345000D03*
G01*
X1157439Y1590000D03*
G01*
X1212560Y1590000D03*
G01*
X1337560Y1520000D03*
G01*
X1282439Y1520000D03*
M02*
